<svg xmlns="http://www.w3.org/2000/svg" xmlns:xlink="http://www.w3.org/1999/xlink" fill="white" viewBox="0 0 1080 1080" width="1080" height="1080" preserveAspectRatio="xMidYMid meet" style="width: 100%; height: 100%; transform: translate3d(0px, 0px, 0px); content-visibility: visible;"><defs><clipPath id="__lottie_element_2"><rect width="1080" height="1080" x="0" y="0"></rect></clipPath></defs><g clip-path="url(#__lottie_element_2)"><g transform="matrix(0.945881187915802,0,0,0.945881187915802,540.3382568359375,562.9097290039062)" opacity="1" style="display: block;"><g opacity="1" transform="matrix(1,0,0,1,0,0)"><path fill="rgb(80,90,106)" fill-opacity="1" d=" M73.4010009765625,405.99200439453125 C58.058998107910156,403.9880065917969 35.11399841308594,404.8739929199219 19.084999084472656,404.8940124511719 C3.2079999446868896,404.9119873046875 -20.07699966430664,404.10101318359375 -35.2140007019043,406.0050048828125 C-51.7760009765625,403.22900390625 -107.98999786376953,410.8160095214844 -129.1739959716797,413.6570129394531 C-139.5970001220703,415.05499267578125 -151.69700622558594,414.45001220703125 -153.1479949951172,425.4339904785156 C-111.78399658203125,442.1719970703125 -36.76499938964844,442.010986328125 6.735000133514404,441.95599365234375 C30.85099983215332,441.9230041503906 137.23800659179688,439.96099853515625 162.22999572753906,426.9070129394531 C164.7830047607422,425.5710144042969 164.197998046875,425.8819885253906 165.6490020751953,424.3269958496094 C157.8939971923828,408.1189880371094 80.6240005493164,404.7860107421875 73.4010009765625,405.99200439453125"></path></g></g><g transform="matrix(1,0,0,1,540,531.3410034179688)" opacity="1" style="display: block;"><g opacity="1" transform="matrix(1,0,0,1,0,0)"><path fill="rgb(3,4,1)" fill-opacity="1" d=" M-65.2030029296875,-313.7820129394531 C-63.55799865722656,-299.1109924316406 -55.65299987792969,-287.4800109863281 -48.11600112915039,-280.7760009765625 C-33.46699905395508,-267.7460021972656 -29.77899932861328,-269.4599914550781 -17.722999572753906,-262.4909973144531 C-17.722999572753906,-262.4909973144531 -17.4950008392334,-228.98199462890625 -17.4950008392334,-228.98199462890625 C-17.4950008392334,-228.98199462890625 -20.884000778198242,-228.39700317382812 -20.884000778198242,-228.39700317382812 C-105.89399719238281,-216.18899536132812 -226.7790069580078,-269.83099365234375 -260.4159851074219,-123.9739990234375 C-358.47100830078125,-96.25800323486328 -324.4570007324219,-7.632999897003174 -280.7539978027344,7.919000148773193 C-263.0570068359375,14.215999603271484 -261.3810119628906,4.758999824523926 -258.43701171875,30.152999877929688 C-257.8299865722656,35.39699935913086 -256.1130065917969,36.742000579833984 -254.01199340820312,40.99399948120117 C-239.35899353027344,70.66699981689453 -232.27999877929688,87.927001953125 -198.23800659179688,104.94999694824219 C-187.8679962158203,110.13600158691406 -176.71099853515625,113.77100372314453 -165.00900268554688,116.34200286865234 C-165.00900268554688,116.34200286865234 -152.4810028076172,119.39299774169922 -152.4810028076172,119.39299774169922 C-154.34500122070312,123.30500030517578 -160.6199951171875,128.7030029296875 -167.00599670410156,137.53799438476562 C-171.7220001220703,144.06300354003906 -176.06500244140625,150.3990020751953 -180.6699981689453,157.13600158691406 C-183.30499267578125,160.9929962158203 -184.36000061035156,162.7969970703125 -186.56900024414062,167.36500549316406 C-188.54400634765625,171.44200134277344 -191.57699584960938,173.8990020751953 -193.07000732421875,177.02699279785156 C-195.57000732421875,182.26199340820312 -204.12899780273438,227.0070037841797 -206.177001953125,229.4720001220703 C-208.14500427246094,231.8419952392578 -217.46600341796875,233.9290008544922 -225.53700256347656,243.36300659179688 C-230.4720001220703,249.13499450683594 -234.21099853515625,257.614013671875 -234.14199829101562,267.5799865722656 C-234.10899353027344,272.4859924316406 -233.697998046875,278.8450012207031 -233.36900329589844,283.7929992675781 C-233.04400634765625,288.6570129394531 -229.90199279785156,291.3160095214844 -225.69400024414062,293.1709899902344 C-222.58200073242188,289.60198974609375 -208.90699768066406,269.00299072265625 -207.44200134277344,263.31298828125 C-196.1199951171875,265.5169982910156 -188.23899841308594,273.82000732421875 -179.32400512695312,277.6260070800781 C-182.46499633789062,292.17999267578125 -193.99099731445312,298.07501220703125 -196.7209930419922,311.75201416015625 C-185.6529998779297,312.0260009765625 -178.48800659179688,310.6449890136719 -170.48300170898438,306.0199890136719 C-165.02499389648438,302.8659973144531 -158.9969940185547,295.72698974609375 -156.197998046875,288.9440002441406 C-149.15199279785156,271.87200927734375 -155.718994140625,269.31201171875 -141.7259979248047,256.8680114746094 C-141.7259979248047,256.8680114746094 -135.7050018310547,251.4720001220703 -135.7050018310547,251.4720001220703 C-133.1959991455078,249.3249969482422 -135.3300018310547,250.54800415039062 -132.90899658203125,249.56500244140625 C-126.11000061035156,259.1709899902344 -118.21299743652344,291.2080078125 -100.08599853515625,313.625 C-95.8489990234375,318.864013671875 -96.97799682617188,320.52301025390625 -94.48899841308594,324.11700439453125 C-93.38500213623047,325.7120056152344 -88.16100311279297,328.510009765625 -85.38500213623047,331.1960144042969 C-74.20600128173828,342.01300048828125 -66.55699920654297,351.14300537109375 -49.237998962402344,359.67999267578125 C5.321000099182129,386.5719909667969 55.85900115966797,368.3940124511719 91.3759994506836,329.40899658203125 C125.78199768066406,291.64801025390625 128.36900329589844,259.89898681640625 137.83599853515625,245.93899536132812 C161.56700134277344,256.53900146484375 160.26300048828125,277.7829895019531 163.48800659179688,286.552001953125 C170.05299377441406,304.3940124511719 187.4429931640625,311.5920104980469 205.58799743652344,311.96099853515625 C202.98199462890625,298.6549987792969 190.3780059814453,291.25201416015625 189.01499938964844,278.9840087890625 C194.84800720214844,273.7640075683594 206.42100524902344,265.47100830078125 215.7259979248047,263.2330017089844 C218.14700317382812,266.16400146484375 222.39700317382812,274.8559875488281 224.65199279785156,278.60400390625 C227.7270050048828,283.7170104980469 232.01800537109375,288.82000732421875 234.50100708007812,293.2969970703125 C234.50100708007812,293.2969970703125 241.22000122070312,290.1409912109375 241.22000122070312,290.1409912109375 C242.91000366210938,269.0580139160156 245.81300354003906,252.3990020751953 231.79800415039062,240.11399841308594 C223.3800048828125,232.73399353027344 215.40199279785156,232.38999938964844 213.8820037841797,226.7530059814453 C207.37100219726562,202.59100341796875 207.9250030517578,183.7010040283203 189.22500610351562,155.39599609375 C184.51800537109375,148.27200317382812 180.88999938964844,143.72300720214844 175.96400451660156,137.31500244140625 C173.64500427246094,134.29299926757812 171.04299926757812,131.26499938964844 168.67300415039062,128.427001953125 C165.7949981689453,124.98400115966797 162.8419952392578,123.81500244140625 161.49200439453125,119.46600341796875 C186.23500061035156,110.60399627685547 200.6230010986328,109.0469970703125 220.38699340820312,94.60800170898438 C259.7099914550781,65.87999725341797 263.3299865722656,17.138999938964844 265.25201416015625,14.07800006866455 C267.2380065917969,10.91100025177002 275.7590026855469,9.175999641418457 279.5450134277344,7.474999904632568 C304.4469909667969,-3.7079999446868896 322.8590087890625,-17.726999282836914 323.8599853515625,-53.29100036621094 C324.3080139160156,-99.26300048828125 300.6960144042969,-107.83200073242188 270.3630065917969,-122.38600158691406 C262.02899169921875,-126.38400268554688 262.7510070800781,-133.49600219726562 260.3550109863281,-143.7429962158203 C258.2149963378906,-152.8979949951172 255.93299865722656,-158.0399932861328 251.98599243164062,-165.73800659179688 C245.20899963378906,-178.9600067138672 234.83700561523438,-191.5449981689453 225.23500061035156,-199.78199768066406 C199.41000366210938,-221.93600463867188 174.17999267578125,-226.9340057373047 131.18099975585938,-228.3260040283203 C110.60600280761719,-228.9929962158203 90.01599884033203,-228.83099365234375 69.43399810791016,-228.61500549316406 C50.042999267578125,-228.41200256347656 27.690000534057617,-226.8470001220703 8.670000076293945,-228.01699829101562 C8.670000076293945,-228.01699829101562 8.656999588012695,-261.72100830078125 8.656999588012695,-261.72100830078125 C27.308000564575195,-272.10198974609375 32.611000061035156,-270.406005859375 45.308998107910156,-285.67498779296875 C73.99199676513672,-320.17401123046875 57.20000076293945,-389.5299987792969 -11.307999610900879,-385.25201416015625 C-32.03300094604492,-381.6390075683594 -42.194000244140625,-375.5039978027344 -52.57699966430664,-363.6050109863281 C-61.375,-353.5220031738281 -69.12999725341797,-332.2409973144531 -65.2030029296875,-313.7820129394531 M-38.74599838256836,-346.3389892578125 C-37.65700149536133,-351.343994140625 -35.792999267578125,-352.5480041503906 -33.09400177001953,-355.5190124511719 C-27.8700008392334,-361.2690124511719 -30.96500015258789,-358.0459899902344 -24.101999282836914,-360.3890075683594 C-21.430999755859375,-364.4750061035156 -15.430000305175781,-366.2869873046875 -10.583999633789062,-367.0820007324219 C33.742000579833984,-374.3489990234375 55.5369987487793,-319.5069885253906 25.496999740600586,-292.1709899902344 C-2.2960000038146973,-266.8760070800781 -41.44499969482422,-286.35101318359375 -46.63399887084961,-316.43499755859375 C-48.582000732421875,-327.73699951171875 -46.07699966430664,-338.0010070800781 -38.74599838256836,-346.3389892578125z M-119.36000061035156,-207.39999389648438 C-104.53500366210938,-211.81300354003906 101.81400299072266,-209.08299255371094 119.2770004272461,-208.53500366210938 C119.2770004272461,-208.53500366210938 118.427001953125,-125.0719985961914 118.427001953125,-125.0719985961914 C101.46600341796875,-121.33699798583984 -108.2770004272461,-121.68299865722656 -119.1969985961914,-125.98400115966797 C-119.1969985961914,-125.98400115966797 -119.36000061035156,-207.39999389648438 -119.36000061035156,-207.39999389648438z M-183.8719940185547,-114.57599639892578 C-193.14700317382812,-93.01399993896484 -190.33299255371094,-69.47899627685547 -190.28900146484375,-44.95000076293945 C-190.26699829101562,-32.44599914550781 -191.9770050048828,21.04199981689453 -189.25999450683594,27.687999725341797 C-184.65899658203125,27.20199966430664 -188.0030059814453,26.54400062561035 -184.20599365234375,28.66900062561035 C-183.92599487304688,23.76099967956543 -183.06399536132812,22.780000686645508 -180.40899658203125,20.601999282836914 C-179.92100524902344,23.680999755859375 -179.11000061035156,27.19499969482422 -178.5050048828125,30.100000381469727 C-172.41099548339844,26.788999557495117 -174.3699951171875,26.417999267578125 -171.86700439453125,23.45199966430664 C-169.593994140625,4.915999889373779 -171.8679962158203,-20.895999908447266 -172.46200561523438,-40.180999755859375 C-172.802001953125,-51.27399826049805 -173.10000610351562,-62.39500045776367 -172.5279998779297,-73.48799896240234 C-172.0970001220703,-81.88800048828125 -169.1199951171875,-96.91400146484375 -169.44000244140625,-103.02100372314453 C-168.39999389648438,-108.05699920654297 -165.96099853515625,-110.33300018310547 -160.66700744628906,-112.04199981689453 C-153.38900756835938,-114.38999938964844 -134.17300415039062,-113.00299835205078 -133.85699462890625,-113.02100372314453 C-111.1510009765625,-114.3290023803711 -16.2450008392334,-113.947998046875 0.08699999749660492,-112.1719970703125 C8.107000350952148,-111.2969970703125 14.690999984741211,-111.59400177001953 22.92099952697754,-111.48999786376953 C27.320999145507812,-111.43499755859375 28.906999588012695,-110.5979995727539 33.26900100708008,-110.47200012207031 C51.939998626708984,-109.93299865722656 48.41299819946289,-112.41100311279297 66.58200073242188,-112.39299774169922 C81.08899688720703,-112.37799835205078 148.8350067138672,-113.2040023803711 155.68699645996094,-111.9209976196289 C156.68800354003906,-111.73300170898438 157.39199829101562,-111.49600219726562 158.03900146484375,-111.38600158691406 C161.3679962158203,-110.81800079345703 168.67100524902344,-109.23300170898438 170.61000061035156,-112.10199737548828 C172.64199829101562,-115.10199737548828 171.40499877929688,-112.76200103759766 171.08200073242188,-116.19200134277344 C171.39300537109375,-115.79399871826172 173.47900390625,-115.52300262451172 170.9320068359375,-115.822998046875 C170.9320068359375,-115.822998046875 156.875,-120.27400207519531 156.875,-120.27400207519531 C150.4080047607422,-121.04100036621094 149.46200561523438,-119.97599792480469 146.37899780273438,-119.40399932861328 C139.26699829101562,-118.08799743652344 141.87100219726562,-120.35800170898438 135.9290008544922,-120.94100189208984 C135.88900756835938,-126.91799926757812 134.03399658203125,-125.10199737548828 134.03399658203125,-141.84500122070312 C134.03399658203125,-161.92300415039062 135.5189971923828,-153.56700134277344 136.58799743652344,-163.8070068359375 C137.2530059814453,-170.1840057373047 135.21600341796875,-168.16700744628906 134.91799926757812,-175.093994140625 C134.91799926757812,-175.093994140625 134.96200561523438,-197.89100646972656 134.96200561523438,-197.89100646972656 C134.93800354003906,-203.2469940185547 135.6540069580078,-205.1009979248047 135.9340057373047,-209.28900146484375 C137.51300048828125,-210.60800170898438 136.68099975585938,-209.42100524902344 139.1479949951172,-209.71299743652344 C156.53599548339844,-208.26400756835938 177.6490020751953,-206.99600219726562 193.2169952392578,-199.13499450683594 C198.30799865722656,-196.56399536132812 201.81100463867188,-193.41400146484375 204.843994140625,-189.15499877929688 C209.44000244140625,-190.01400756835938 213.99899291992188,-184.406005859375 216.85299682617188,-181.92799377441406 C219.67999267578125,-179.47000122070312 224.32899475097656,-176.07000732421875 224.01800537109375,-170.71600341796875 C224.01800537109375,-170.71600341796875 228.3780059814453,-167.76300048828125 228.3780059814453,-167.76300048828125 C229.95700073242188,-166.44000244140625 230.302001953125,-166.02999877929688 231.6649932861328,-164.42599487304688 C234.031005859375,-161.64500427246094 234.8679962158203,-160.17999267578125 236.5070037841797,-156.91799926757812 C239.58599853515625,-150.77499389648438 241.34800720214844,-144.93299865722656 242.71800231933594,-137.55799865722656 C247.18600463867188,-113.48899841308594 246.50799560546875,-14.666000366210938 245.66000366210938,10.182999610900879 C245.11399841308594,26.183000564575195 241.54200744628906,36.86800003051758 234.83200073242188,49.19499969482422 C213.82899475097656,87.78500366210938 180.76100158691406,100.08799743652344 134.02999877929688,99.60600280761719 C67.33599853515625,98.91699981689453 0.33000001311302185,99.97799682617188 -66.41100311279297,100.05500030517578 C-85.49299621582031,100.0770034790039 -149.93899536132812,100.9489974975586 -164.74200439453125,97.9540023803711 C-189.9969940185547,92.84500122070312 -216.7949981689453,74.6050033569336 -223.968994140625,55.750999450683594 C-238.81199645996094,52.638999938964844 -242.01400756835938,-2.872999906539917 -242.66799926757812,-21.163999557495117 C-243.78599548339844,-52.46900177001953 -243.1230010986328,-85.01499938964844 -241.45799255371094,-116.1719970703125 C-239.25599670410156,-157.33900451660156 -214.5260009765625,-188.05499267578125 -181.20599365234375,-201.54400634765625 C-171.56500244140625,-205.44700622558594 -151.31700134277344,-210.75100708007812 -139.89100646972656,-208.20599365234375 C-139.89100646972656,-208.20599365234375 -139.79200744628906,-123.85900115966797 -139.79200744628906,-123.85900115966797 C-149.1060028076172,-123.8280029296875 -156.25100708007812,-125.88800048828125 -165.8990020751953,-123.54499816894531 C-177.4709930419922,-120.73500061035156 -178.6840057373047,-114.57599639892578 -183.8719940185547,-114.57599639892578z M264.3550109863281,-102.1050033569336 C285.9830017089844,-104.47100067138672 305.7569885253906,-76.95700073242188 305.1960144042969,-54.42300033569336 C304.6659851074219,-33.231998443603516 285.35400390625,-6.021999835968018 264.6839904785156,-8.505000114440918 C264.6839904785156,-8.505000114440918 264.364013671875,-92.447998046875 264.364013671875,-92.447998046875 C264.364013671875,-92.447998046875 264.3550109863281,-102.1050033569336 264.3550109863281,-102.1050033569336z M-263.4389953613281,-7.914999961853027 C-286.3680114746094,-9.763999938964844 -304.1629943847656,-30.628000259399414 -304.0840148925781,-55.402000427246094 C-304.0039978027344,-79.89700317382812 -286.5060119628906,-100.64700317382812 -263.6830139160156,-102.7249984741211 C-263.6830139160156,-102.7249984741211 -263.4389953613281,-7.914999961853027 -263.4389953613281,-7.914999961853027z M151.0019989013672,134.47000122070312 C168.25900268554688,142.0919952392578 197.28700256347656,199.01800537109375 197.35800170898438,228.32400512695312 C187.5019989013672,230.8820037841797 182.19500732421875,235.2949981689453 174.87899780273438,237.3800048828125 C171.54800415039062,239.69900512695312 168.86000061035156,244.2270050048828 167.51499938964844,247.96400451660156 C161.06500244140625,246.1529998779297 151.38900756835938,235.58799743652344 148.0399932861328,230.77999877929688 C140.5959930419922,220.10899353027344 143.9669952392578,214.18299865722656 145.45799255371094,201.06300354003906 C148.22799682617188,176.6510009765625 144.10899353027344,138.8260040283203 145.72300720214844,130.2689971923828 C145.72300720214844,130.2689971923828 151.0019989013672,134.47000122070312 151.0019989013672,134.47000122070312z M-142.24099731445312,199.0679931640625 C-140.56500244140625,203.66900634765625 -137.29800415039062,224.822998046875 -139.10499572753906,230.04200744628906 C-141.12399291992188,235.87100219726562 -151.73899841308594,245.23399353027344 -157.60800170898438,247.156005859375 C-161.1580047607422,244.2030029296875 -161.95399475097656,240.28799438476562 -165.4459991455078,237.4810028076172 C-174.43800354003906,234.6649932861328 -176.95700073242188,230.35800170898438 -188.55099487304688,228.83399963378906 C-186.7220001220703,192.55499267578125 -162.04299926757812,148.13800048828125 -142.4290008544922,135.28500366210938 C-142.38900756835938,145.80299377441406 -143.13099670410156,156.35400390625 -143.16400146484375,166.88800048828125 C-143.19700622558594,177.0570068359375 -141.77499389648438,189.68499755859375 -142.24099731445312,199.0679931640625z M-118.70600128173828,121.50199890136719 C-118.70600128173828,121.50199890136719 -113.20899963378906,119.0790023803711 -113.20899963378906,119.0790023803711 C-102.26000213623047,116.91200256347656 -72.8030014038086,118.29499816894531 -61.6619987487793,118.55999755859375 C-23.531999588012695,119.46600341796875 22.66200065612793,118.60700225830078 61.83300018310547,118.6709976196289 C81.98999786376953,118.7040023803711 102.80000305175781,117.74500274658203 122.61699676513672,119.41500091552734 C122.61699676513672,119.41500091552734 123.83200073242188,122.26399993896484 123.83200073242188,122.26399993896484 C129.5570068359375,133.3209991455078 130.10299682617188,164.24899291992188 129.23699951171875,178.31900024414062 C124.70700073242188,251.88699340820312 82.6780014038086,358.7080078125 -4.664000034332275,352.8970031738281 C-22.41200065612793,351.7170104980469 -37.99700164794922,344.6159973144531 -50.215999603271484,336.8630065917969 C-59.652000427246094,330.87701416015625 -77.14099884033203,315.42498779296875 -81.08399963378906,305.4169921875 C-86.43199920654297,299.2919921875 -88.10099792480469,300.3500061035156 -94.06500244140625,289.5419921875 C-97.39600372314453,283.510009765625 -100.6510009765625,276.4440002441406 -103.55799865722656,269.5880126953125 C-109.01799774169922,256.7130126953125 -114.99600219726562,240.21299743652344 -118.25599670410156,225.3990020751953 C-121.7699966430664,209.4429931640625 -123.53500366210938,189.4949951171875 -124.38999938964844,172.61099243164062 C-124.98899841308594,160.76499938964844 -125.74600219726562,137.44500732421875 -121.77200317382812,125.7490005493164 C-121.32599639892578,124.43499755859375 -121.31999969482422,124.13099670410156 -120.61499786376953,123.14099884033203 C-118.71800231933594,120.47100067138672 -120.60800170898438,122.43000030517578 -118.70600128173828,121.50199890136719z"></path></g><g opacity="1" transform="matrix(1,0,0,1,0,0)"><path fill="rgb(3,4,1)" fill-opacity="1" d=" M-145.42599487304688,-93.87899780273438 C-153.93600463867188,-92.38600158691406 -158.14500427246094,-88.55799865722656 -159.39500427246094,-80.04100036621094 C-160.60299682617188,-71.80899810791016 -160.18699645996094,-60.983001708984375 -160.01499938964844,-52.54999923706055 C-158.5019989013672,21.572999954223633 -169.24400329589844,24.04199981689453 -125.30899810791016,24.006000518798828 C-125.30899810791016,24.006000518798828 39.98400115966797,23.551000595092773 39.98400115966797,23.551000595092773 C67.375,23.479999542236328 128.04200744628906,24.503000259399414 151.1060028076172,23.21500015258789 C157.8159942626953,22.841999053955078 156.86900329589844,21.81800079345703 159.49099731445312,18.56399917602539 C162.2790069580078,15.104999542236328 160.31199645996094,19.381000518798828 162.55599975585938,14.980999946594238 C163.40199279785156,13.321999549865723 163.73300170898438,10.786999702453613 163.95199584960938,8.600000381469727 C165.6529998779297,-8.494000434875488 165.0449981689453,-56.979000091552734 164.16400146484375,-73.49199676513672 C163.95899963378906,-77.30699920654297 163.9969940185547,-81.6760025024414 162.43299865722656,-84.75499725341797 C162.43299865722656,-84.75499725341797 160.25900268554688,-88.25299835205078 160.25900268554688,-88.25299835205078 C158.56700134277344,-91.32099914550781 159.46200561523438,-91.46199798583984 156.20599365234375,-92.78099822998047 C149.71400451660156,-95.41200256347656 84.83399963378906,-94.15499877929688 75.13300323486328,-94.15499877929688 C60.78200149536133,-94.15499877929688 -137.07000732421875,-95.34600067138672 -145.42599487304688,-93.87899780273438"></path></g><g opacity="1" transform="matrix(1,0,0,1,0,0)"><path fill="rgb(5,3,1)" fill-opacity="1" d=" M-169.44000244140625,-103.02100372314453 C-131.16400146484375,-108.10299682617188 98.15499877929688,-107.06400299072266 153.06500244140625,-104.51699829101562 C156.3520050048828,-104.36499786376953 168.2570037841797,-104.06199645996094 171.1439971923828,-102.9749984741211 C172.58900451660156,-102.43099975585938 172.3990020751953,-102.4540023803711 173.18699645996094,-101.87100219726562 C179.1199951171875,-89.04000091552734 177.61399841308594,-1.7309999465942383 176.0260009765625,16.927000045776367 C175.00799560546875,28.905000686645508 174.87899780273438,33.176998138427734 163.1750030517578,35.38100051879883 C156.3979949951172,36.65999984741211 79.26499938964844,35.696998596191406 68.48400115966797,35.68199920654297 C68.48400115966797,35.68199920654297 -119.60700225830078,35.641998291015625 -119.60700225830078,35.641998291015625 C-133.06700134277344,35.63999938964844 -156.08999633789062,38.01900100708008 -164.6269989013672,33.32099914550781 C-169.5570068359375,30.608999252319336 -172.14100646972656,30.406999588012695 -171.86700439453125,23.45199966430664 C-174.3699951171875,26.417999267578125 -172.41099548339844,26.788999557495117 -178.5050048828125,30.100000381469727 C-179.11000061035156,27.19499969482422 -179.92100524902344,23.680999755859375 -180.40899658203125,20.601999282836914 C-183.06399536132812,22.780000686645508 -183.92599487304688,23.76099967956543 -184.20599365234375,28.66900062561035 C-188.0030059814453,26.54400062561035 -184.65899658203125,27.20199966430664 -189.25999450683594,27.687999725341797 C-186.3730010986328,51.641998291015625 -168.53500366210938,54.35900115966797 -144.31100463867188,54.391998291015625 C-144.31100463867188,54.391998291015625 144.47999572753906,54.38999938964844 144.47999572753906,54.38999938964844 C167.27000427246094,54.40999984741211 189.39100646972656,53.20600128173828 193.7310028076172,31.82699966430664 C196.9510040283203,15.961000442504883 197.23199462890625,-96.86100006103516 192.51199340820312,-107.60900115966797 C191.28199768066406,-108.3270034790039 192.10299682617188,-107.63999938964844 190.7010040283203,-109.23300170898438 C183.89999389648438,-116.94200134277344 177.86900329589844,-121.5989990234375 177.36599731445312,-122.23799896240234 C177.36599731445312,-122.23799896240234 140.04400634765625,-124.75399780273438 140.04400634765625,-124.75399780273438 C139.156005859375,-126.05699920654297 139.72000122070312,-124.61000061035156 139.23199462890625,-126.83699798583984 C139.23199462890625,-126.83699798583984 139.1479949951172,-209.71299743652344 139.1479949951172,-209.71299743652344 C136.68099975585938,-209.42100524902344 137.51300048828125,-210.60800170898438 135.9340057373047,-209.28900146484375 C135.6540069580078,-205.1009979248047 134.93800354003906,-203.2469940185547 134.96200561523438,-197.89100646972656 C134.96200561523438,-197.89100646972656 134.91799926757812,-175.093994140625 134.91799926757812,-175.093994140625 C135.21600341796875,-168.16700744628906 137.2530059814453,-170.1840057373047 136.58799743652344,-163.8070068359375 C135.5189971923828,-153.56700134277344 134.03399658203125,-161.92300415039062 134.03399658203125,-141.84500122070312 C134.03399658203125,-125.10199737548828 135.88900756835938,-126.91799926757812 135.9290008544922,-120.94100189208984 C141.87100219726562,-120.35800170898438 139.26699829101562,-118.08799743652344 146.37899780273438,-119.40399932861328 C149.46200561523438,-119.97599792480469 150.4080047607422,-121.04100036621094 156.875,-120.27400207519531 C156.875,-120.27400207519531 170.9320068359375,-115.822998046875 170.9320068359375,-115.822998046875 C173.47900390625,-115.52300262451172 171.39300537109375,-115.79399871826172 171.08200073242188,-116.19200134277344 C171.40499877929688,-112.76200103759766 172.64199829101562,-115.10199737548828 170.61000061035156,-112.10199737548828 C168.67100524902344,-109.23300170898438 161.3679962158203,-110.81800079345703 158.03900146484375,-111.38600158691406 C157.39199829101562,-111.49600219726562 156.68800354003906,-111.73300170898438 155.68699645996094,-111.9209976196289 C148.8350067138672,-113.2040023803711 81.08899688720703,-112.37799835205078 66.58200073242188,-112.39299774169922 C48.4119987487793,-112.41100311279297 51.939998626708984,-109.93299865722656 33.26900100708008,-110.47200012207031 C28.906999588012695,-110.5979995727539 27.320999145507812,-111.43499755859375 22.92099952697754,-111.48999786376953 C14.690999984741211,-111.59400177001953 8.107000350952148,-111.2969970703125 0.08699999749660492,-112.1719970703125 C-16.2450008392334,-113.947998046875 -111.1510009765625,-114.3290023803711 -133.85699462890625,-113.02100372314453 C-134.17300415039062,-113.00299835205078 -153.38900756835938,-114.38999938964844 -160.66700744628906,-112.04199981689453 C-165.96099853515625,-110.33300018310547 -168.39999389648438,-108.05699920654297 -169.44000244140625,-103.02100372314453"></path></g></g><g transform="matrix(1,0,0,1,540,531.3410034179688)" opacity="0.6851249049822477" style="display: block;"><g opacity="1" transform="matrix(1,0,0,1,0,0)"><path fill="rgb(53,255,247)" fill-opacity="1" d=" M91.60099792480469,-63.16400146484375 C57.46200180053711,-53.52299880981445 74.2229995727539,-8.123000144958496 102.85099792480469,-15.298999786376953 C135.1699981689453,-23.400999069213867 123.16500091552734,-72.07599639892578 91.60099792480469,-63.16400146484375"></path></g></g><g transform="matrix(1,0,0,1,540,531.3410034179688)" opacity="0.6851249049822477" style="display: block;"><g opacity="1" transform="matrix(1,0,0,1,0,0)"><path fill="rgb(53,255,247)" fill-opacity="1" d=" M-123.23699951171875,-37.349998474121094 C-120.13200378417969,-5.952000141143799 -71.81199645996094,-8.26200008392334 -74.1510009765625,-41.08700180053711 C-76.58300018310547,-75.22200012207031 -126.35199737548828,-68.85399627685547 -123.23699951171875,-37.349998474121094"></path></g></g><g transform="matrix(1,0,0,1,532,623.3410034179688)" opacity="1" style="display: block;"><g opacity="1" transform="matrix(1,0,0,1,12,138)"><path stroke-linecap="round" stroke-linejoin="miter" fill-opacity="0" stroke-miterlimit="4" stroke="rgb(0,0,0)" stroke-opacity="1" stroke-width="18" d=" M30.05299949645996,-56.50899887084961 C50.24399948120117,-45.73899841308594 64,-24.46299934387207 64,0 C64,35.32160186767578 35.32160186767578,64 0,64 C-35.32160186767578,64 -64,35.32160186767578 -64,0 C-64,-25.263999938964844 -49.327999114990234,-47.130001068115234 -28.04800033569336,-57.53300094604492"></path></g></g><g transform="matrix(1,0,0,1,541.5,623.3410034179688)" opacity="1" style="display: block;"><g opacity="1" transform="matrix(1,0,0,1,0,0)"><path stroke-linecap="round" stroke-linejoin="miter" fill-opacity="0" stroke-miterlimit="4" stroke="rgb(0,0,0)" stroke-opacity="1" stroke-width="18" d=" M3.5,54.5 C3.5,54.5 3.5,142.5 3.5,142.5"></path></g></g></g></svg>