<?xml version="1.0" encoding="UTF-8"?>
<svg version="1.1" xmlns="http://www.w3.org/2000/svg" width="512" height="512">
<path d="M0 0 C0.81823762 -0.00265183 1.63647525 -0.00530365 2.47950795 -0.00803584 C5.24496267 -0.01574783 8.01037313 -0.01628874 10.7758379 -0.01688576 C12.76912977 -0.02089912 14.76242083 -0.02533713 16.7557109 -0.03016531 C22.25184907 -0.0421506 27.74797846 -0.04778378 33.24412715 -0.05234647 C39.16453401 -0.0582951 45.08493033 -0.06990673 51.00533009 -0.08063698 C64.63563215 -0.10401687 78.26593839 -0.11857013 91.89625416 -0.13086639 C96.61157969 -0.13512062 101.32690484 -0.13968633 106.04222989 -0.14444971 C131.10934429 -0.16970875 156.17645935 -0.19175874 181.24358368 -0.20417786 C187.05184589 -0.20709923 192.86010808 -0.21006674 198.66837025 -0.21308327 C199.38997938 -0.21345418 200.11158851 -0.21382509 200.85506459 -0.21420723 C224.25400981 -0.22636412 247.65287983 -0.25731041 271.05178973 -0.29900479 C295.10340148 -0.34178411 319.15497351 -0.36841778 343.20662433 -0.37365257 C346.60311692 -0.37439303 349.99960944 -0.37530371 353.39610195 -0.37631035 C354.39880087 -0.37659627 354.39880087 -0.37659627 355.42175634 -0.37688797 C365.51635105 -0.38018488 375.61086108 -0.39747917 385.70542431 -0.42220116 C397.18735444 -0.45015971 408.66914163 -0.46121938 420.15110316 -0.4500057 C426.01132544 -0.44480846 431.87124816 -0.44777528 437.73142719 -0.47247124 C443.09503767 -0.4948863 448.45813205 -0.49428395 453.8217511 -0.47526737 C455.76325153 -0.4724565 457.70478638 -0.47812585 459.64623126 -0.4930803 C462.28464514 -0.5121625 464.92121403 -0.50041444 467.55958557 -0.48101807 C468.31421511 -0.49386729 469.06884466 -0.50671651 469.84634176 -0.5199551 C476.30790461 -0.41550719 481.08199355 2.16135318 485.6623749 6.68586973 C489.17884687 10.73288293 490.2174237 13.75907075 490.23141003 19.01284885 C490.23648457 20.02407313 490.24155911 21.0352974 490.24678743 22.07716483 C490.24753406 23.74843411 490.24753406 23.74843411 490.24829578 25.45346642 C490.25267804 26.63461535 490.25706029 27.81576428 490.26157534 29.03270561 C490.2726448 32.31695099 490.27918928 35.60114872 490.28375649 38.8854059 C490.28971257 42.42542635 490.30132239 45.96542924 490.312047 49.50543785 C490.33657063 58.05749952 490.35119797 66.609567 490.36410707 75.16165301 C490.36781899 77.57702713 490.37179222 79.99240067 490.37585974 82.40777421 C490.4010959 97.40611877 490.42314955 112.40446425 490.43558788 127.40282536 C490.43851759 130.87696587 490.44147925 134.35110636 490.44449329 137.82524681 C490.44523934 138.68873011 490.4459854 139.5522134 490.44675405 140.44186286 C490.45940779 154.42989304 490.49263114 168.41779611 490.53429513 182.40576687 C490.57671768 196.76609891 490.60028327 211.12636589 490.60550845 225.48676044 C490.60892217 233.54994443 490.6206727 241.61292978 490.65361118 249.67605209 C490.6816173 256.54302443 490.69260864 263.4097574 490.68141572 270.27678242 C490.67623043 273.7796716 490.67910636 277.28205956 490.70388126 280.78487587 C490.72650002 284.58555152 490.7183094 288.38496272 490.70239735 292.18564415 C490.71627943 293.28867006 490.73016152 294.39169598 490.74446428 295.52814692 C490.6748136 302.27625598 489.6336258 306.99211697 485.09439564 312.13701439 C479.63724504 316.93125005 475.30528766 318.2624362 468.1279192 318.25726891 C467.41481781 318.25812333 466.70171643 318.25897776 465.96700591 318.25985807 C463.57169965 318.26150839 461.17646305 318.25599881 458.78116322 318.25053978 C457.06645681 318.25025779 455.35175029 318.25041588 453.63704395 318.25098228 C448.97620269 318.25126978 444.31538704 318.24538072 439.65455174 318.23840833 C434.78584278 318.23216688 429.91713326 318.23157036 425.04842091 318.23038292 C415.82619725 318.22727194 406.60398542 318.21906169 397.38176697 318.20903343 C384.92163286 318.19577769 372.46149551 318.1903705 360.00135612 318.18453121 C340.36569377 318.17512166 320.73005637 318.15520117 301.09439564 318.13701439 C301.09439564 344.86701439 301.09439564 371.59701439 301.09439564 399.13701439 C310.66439564 399.13701439 320.23439564 399.13701439 330.09439564 399.13701439 C336.09439564 404.13701439 336.09439564 404.13701439 336.95889759 406.20366478 C337.20133385 409.6628589 337.27893613 413.10892999 337.28189564 416.57451439 C337.29414173 417.3253933 337.30638783 418.0762722 337.31900501 418.84990501 C337.33323869 424.24447055 336.91809002 428.00113881 333.29598713 432.24327564 C328.26349196 435.21999242 323.31102515 434.69086556 317.56815052 434.65167809 C315.63755559 434.66209638 315.63755559 434.66209638 313.66795874 434.67272514 C310.09728056 434.69137366 306.52701651 434.68504018 302.956321 434.67457211 C299.10484295 434.66758633 295.25345052 434.68357322 291.40199757 434.69656944 C283.85773299 434.71822472 276.31361917 434.71807874 268.76933372 434.7099439 C262.63866428 434.70364738 256.50803885 434.70477773 250.37736988 434.71121597 C249.50525215 434.71211763 248.63313443 434.71301928 247.73458889 434.71394826 C245.96297021 434.71579943 244.19135153 434.717662 242.41973287 434.71953582 C225.80219256 434.73611943 209.18473713 434.72739012 192.56720191 434.71055024 C177.35831981 434.6958508 162.14963522 434.7104841 146.94077855 434.7393204 C131.32945322 434.76869973 115.71821909 434.7796911 100.10686731 434.7701382 C98.34171869 434.76911564 96.57657005 434.76812103 94.81142139 434.76715469 C93.50864704 434.76644011 93.50864704 434.76644011 92.17955402 434.76571109 C86.05531268 434.76354512 79.93115753 434.77336063 73.80693531 434.78792572 C66.34482033 434.80542493 58.88295727 434.80536647 51.4208523 434.78257407 C47.61254268 434.77141006 43.80467727 434.76831757 39.99638653 434.78687477 C35.87077014 434.80671986 31.74624181 434.78794409 27.62064075 434.76520348 C26.41296685 434.7770392 25.20529294 434.78887493 23.96102285 434.80106932 C14.95576385 434.69975651 14.95576385 434.69975651 11.87400532 431.72275257 C9.55528345 428.35369488 8.96814763 426.88794622 9.15822315 422.87380028 C9.19808873 421.99701181 9.23795431 421.12022335 9.27902794 420.21686554 C9.32887809 419.26609571 9.37872824 418.31532589 9.430089 417.33574486 C9.47877345 416.34884604 9.5274579 415.36194721 9.57761765 414.34514236 C10.10156467 404.19999986 10.88582878 394.08057382 11.72330189 383.95732689 C11.87915388 382.03823618 12.0346591 380.11911729 12.18983936 378.19997215 C12.59246491 373.23186379 12.99968921 368.26414362 13.40799427 363.29649925 C13.82651543 358.19409202 14.24051816 353.09131821 14.65494251 347.98857689 C15.46376261 338.03769975 16.27745918 328.08722826 17.09439564 318.13701439 C16.40925892 318.15796165 15.7241222 318.17890892 15.01822376 318.20049095 C11.87710041 318.28426838 8.736213 318.33586852 5.59439564 318.38701439 C4.51673939 318.42053001 3.43908314 318.45404564 2.32877064 318.48857689 C-4.9988465 318.57793807 -10.94631261 317.91662795 -16.42269421 312.6887722 C-20.21552216 308.35450135 -22.1536316 304.87928434 -22.16287327 299.13533878 C-22.16932216 298.12150676 -22.17577105 297.10767475 -22.18241537 296.06312054 C-22.17931816 294.95117174 -22.17622096 293.83922294 -22.1730299 292.69357872 C-22.17756101 291.5108698 -22.18209213 290.32816087 -22.18676054 289.10961229 C-22.19724287 285.8256656 -22.19872831 282.54185635 -22.19637179 279.25789821 C-22.19596401 275.71654491 -22.20699916 272.1752244 -22.21648693 268.63388634 C-22.23310646 261.6951173 -22.23859692 254.75638224 -22.23971169 247.81759497 C-22.24066176 242.17748942 -22.24477 236.53739509 -22.25111294 230.89729309 C-22.26872834 214.90849639 -22.2779514 198.91972656 -22.27645199 182.93092009 C-22.27637208 182.06879205 -22.27629217 181.20666401 -22.27620983 180.31841087 C-22.27612807 179.45523077 -22.27604631 178.59205066 -22.27596207 177.70271359 C-22.27514919 163.71408732 -22.29428643 149.72556873 -22.32248656 135.73697361 C-22.35121009 121.37547789 -22.36502714 107.01403469 -22.36329901 92.65250951 C-22.3626349 84.58885389 -22.36813629 76.52531113 -22.38965511 68.46168137 C-22.40786 61.59581472 -22.41222006 54.73011211 -22.39863627 47.86423179 C-22.39210288 44.36153605 -22.39200229 40.85915505 -22.40934277 37.35648918 C-22.42472999 33.55784373 -22.4155288 29.76002799 -22.40008068 25.96140099 C-22.41036781 24.85614435 -22.42065493 23.75088771 -22.43125379 22.61213845 C-22.36453575 15.2011939 -21.2354359 10.73180026 -16.08919811 5.17607689 C-15.51298717 4.70943626 -14.93677624 4.24279564 -14.34310436 3.76201439 C-13.47492077 3.03885033 -13.47492077 3.03885033 -12.58919811 2.30107689 C-8.68471268 -0.39854413 -4.53819383 -0.00709316 0 0 Z M229.09439564 318.13701439 C229.64155832 325.09743272 230.19142713 332.05752142 230.74844837 339.01714134 C230.93726021 341.38680312 231.12443744 343.75659571 231.30997181 346.12651634 C231.5763029 349.52490111 231.84843045 352.92277836 232.12173939 356.32060814 C232.24524014 357.92058899 232.24524014 357.92058899 232.37123585 359.55289268 C232.45124332 360.533834 232.5312508 361.51477531 232.61368275 362.52544212 C232.68252171 363.39370125 232.75136066 364.26196037 232.82228565 365.15653038 C232.89088369 367.1349279 232.89088369 367.1349279 234.09439564 368.13701439 C241.50674189 367.87228774 247.68796032 365.66692391 252.92642689 360.23857689 C257.69691621 354.17970724 259.35596545 348.74068234 259.28970814 340.98857689 C259.28471302 339.78539818 259.2797179 338.58221947 259.27457142 337.3425808 C259.25636341 335.83099388 259.2381554 334.31940697 259.21939564 332.76201439 C259.17814564 327.93576439 259.13689564 323.10951439 259.09439564 318.13701439 C249.19439564 318.13701439 239.29439564 318.13701439 229.09439564 318.13701439 Z " fill="#F1EEF1" transform="translate(21.905604362487793,38.862985610961914)"/>
<path d="M0 0 C3.0068932 -0.03974993 6.01381213 -0.06784554 9.02086067 -0.09282017 C11.00267516 -0.11321858 12.98431432 -0.14889231 14.96590233 -0.18513775 C21.82299408 -0.22845685 26.89062565 -0.10322698 32.14458275 4.78838825 C34.78263198 9.92564203 34.37087494 15.7425348 34.351614 21.38213825 C34.34879417 22.45528278 34.34597435 23.52842731 34.34306908 24.63409138 C34.33944359 25.44813435 34.3358181 26.26217731 34.33208275 27.10088825 C35.4786431 27.0997427 36.62520346 27.09859715 37.80650806 27.09741688 C72.28564994 27.06648184 106.76393583 27.16188755 141.24276668 27.2944316 C148.72311358 27.32314991 156.20346439 27.35078826 163.68381547 27.37839144 C177.01147952 27.42759851 190.33914047 27.47759812 203.66679955 27.52813435 C216.57304795 27.57707087 229.47929774 27.62561034 242.38554955 27.67364216 C243.58941406 27.67812265 243.58941406 27.67812265 244.81759907 27.68269366 C248.84598941 27.697684 252.87437978 27.7126668 256.90277016 27.72764587 C290.04587878 27.85089408 323.18898237 27.97544444 356.33208275 28.10088825 C356.45630904 33.65093674 356.54671592 39.20016407 356.60674095 44.75127888 C356.63178052 46.63683908 356.66582274 48.52230323 356.70928001 50.40752888 C356.77040061 53.12847389 356.79839768 55.84812852 356.820364 58.56963825 C356.84617043 59.40329914 356.87197685 60.23696003 356.89856529 61.09588337 C356.90146132 67.2323816 355.29622709 71.38526679 351.33208275 76.10088825 C345.89313582 80.90691754 341.53046163 82.22630105 334.36560631 82.22114277 C333.65250492 82.22199719 332.93940354 82.22285162 332.20469302 82.22373194 C329.80938676 82.22538226 327.41415016 82.21987267 325.01885033 82.21441364 C323.30414392 82.21413165 321.5894374 82.21428974 319.87473106 82.21485615 C315.2138898 82.21514364 310.55307415 82.20925459 305.89223886 82.20228219 C301.02352989 82.19604074 296.15482037 82.19544422 291.28610802 82.19425678 C282.06388436 82.19114581 272.84167253 82.18293555 263.61945409 82.17290729 C251.15931997 82.15965156 238.69918263 82.15424436 226.23904324 82.14840508 C206.60338088 82.13899552 186.96774348 82.11907503 167.33208275 82.10088825 C167.33208275 108.83088825 167.33208275 135.56088825 167.33208275 163.10088825 C176.90208275 163.10088825 186.47208275 163.10088825 196.33208275 163.10088825 C202.33208275 168.10088825 202.33208275 168.10088825 203.1965847 170.16753864 C203.43902096 173.62673277 203.51662324 177.07280385 203.51958275 180.53838825 C203.53182884 181.28926716 203.54407494 182.04014606 203.55669212 182.81377888 C203.57092581 188.20834441 203.15577713 191.96501267 199.53367424 196.20714951 C194.50117907 199.18386628 189.54871226 198.65473942 183.80583763 198.61555195 C181.8752427 198.62597024 181.8752427 198.62597024 179.90564585 198.636599 C176.33496767 198.65524752 172.76470363 198.64891404 169.19400811 198.63844597 C165.34253006 198.63146019 161.49113763 198.64744708 157.63968468 198.66044331 C150.0954201 198.68209858 142.55130628 198.6819526 135.00702083 198.67381776 C128.87635139 198.66752124 122.74572596 198.66865159 116.61505699 198.67508984 C115.74293927 198.67599149 114.87082154 198.67689315 113.972276 198.67782212 C112.20065732 198.6796733 110.42903864 198.68153586 108.65741998 198.68340968 C92.03987967 198.69999329 75.42242424 198.69126399 58.80488902 198.6744241 C43.59600692 198.65972466 28.38732233 198.67435796 13.17846566 198.70319427 C-2.43285967 198.73257359 -18.0440938 198.74356496 -33.65544558 198.73401207 C-35.4205942 198.7329895 -37.18574284 198.73199489 -38.95089149 198.73102856 C-40.25366585 198.73031397 -40.25366585 198.73031397 -41.58275887 198.72958495 C-47.70700021 198.72741899 -53.83115536 198.73723449 -59.95537758 198.75179958 C-67.41749256 198.76929879 -74.87935562 198.76924033 -82.34146059 198.74644793 C-86.14977021 198.73528392 -89.95763562 198.73219143 -93.76592636 198.75074863 C-97.89154274 198.77059372 -102.01607107 198.75181796 -106.14167213 198.72907734 C-107.34934604 198.74091307 -108.55701995 198.7527488 -109.80129004 198.76494318 C-118.80654904 198.66363037 -118.80654904 198.66363037 -121.88830757 195.68662643 C-124.20702944 192.31756874 -124.79416526 190.85182008 -124.60408974 186.83767414 C-124.56422416 185.96088568 -124.52435858 185.08409721 -124.48328495 184.1807394 C-124.4334348 183.22996958 -124.38358465 182.27919975 -124.33222389 181.29961872 C-124.28353944 180.3127199 -124.23485498 179.32582108 -124.18469524 178.30901623 C-123.66074822 168.16387373 -122.87648411 158.04444768 -122.039011 147.92120075 C-121.88315901 146.00211005 -121.72765379 144.08299115 -121.57247353 142.16384602 C-121.16984797 137.19573766 -120.76262367 132.22801749 -120.35431862 127.26037312 C-119.93579746 122.15796589 -119.52179473 117.05519207 -119.10737038 111.95245075 C-118.29855028 102.00157362 -117.48485371 92.05110212 -116.66791725 82.10088825 C-117.69562233 82.13230915 -117.69562233 82.13230915 -118.74408913 82.16436481 C-121.88521248 82.24814224 -125.02609989 82.29974239 -128.16791725 82.35088825 C-129.2455735 82.38440388 -130.32322975 82.4179195 -131.43354225 82.45245075 C-138.76115939 82.54181194 -144.7086255 81.88050181 -150.1850071 76.65264606 C-153.61341513 72.73481768 -155.92818921 69.22385739 -155.89496803 63.97491169 C-155.89472633 63.16328571 -155.89448463 62.35165974 -155.89423561 61.51543903 C-155.87888771 60.25062702 -155.87888771 60.25062702 -155.86322975 58.96026325 C-155.86121559 58.17796345 -155.85920143 57.39566364 -155.85712624 56.58965778 C-155.84668847 53.67667468 -155.81876587 50.76377537 -155.79291725 47.85088825 C-155.75166725 41.33338825 -155.71041725 34.81588825 -155.66791725 28.10088825 C-141.14791725 28.10088825 -126.62791725 28.10088825 -111.66791725 28.10088825 C-111.33791725 21.50088825 -111.00791725 14.90088825 -110.66791725 8.10088825 C-105.66791725 2.10088825 -105.66791725 2.10088825 -103.66791725 1.10088825 C-100.81677842 0.97796225 -97.98853491 0.91510478 -95.13617897 0.89556599 C-94.25094551 0.88566639 -93.36571205 0.87576679 -92.45365334 0.86556721 C-89.50166475 0.83379406 -86.54966121 0.80907845 -83.59760475 0.784482 C-81.52477582 0.76387193 -79.4519507 0.74287451 -77.37912941 0.72150898 C-73.00585085 0.67743009 -68.63255824 0.63656562 -64.25922585 0.59820271 C-58.75270192 0.54986657 -53.2462502 0.49609605 -47.73979759 0.44027996 C-37.24277546 0.33391085 -26.74576971 0.24266901 -16.24846458 0.16922283 C-10.83197556 0.13001835 -5.41610493 0.07537918 0 0 Z M95.33208275 82.10088825 C95.87924543 89.06130658 96.42911424 96.02139528 96.98613548 102.98101521 C97.17494732 105.35067698 97.36212455 107.72046957 97.54765892 110.09039021 C97.81399001 113.48877497 98.08611756 116.88665222 98.3594265 120.284482 C98.48292725 121.88446285 98.48292725 121.88446285 98.60892296 123.51676655 C98.68893044 124.49770786 98.76893791 125.47864918 98.85136986 126.48931599 C98.92020882 127.35757511 98.98904778 128.22583424 99.05997276 129.12040424 C99.1285708 131.09880177 99.1285708 131.09880177 100.33208275 132.10088825 C107.74442901 131.8361616 113.92564743 129.63079778 119.164114 124.20245075 C123.93460332 118.14358111 125.59365256 112.7045562 125.52739525 104.95245075 C125.52240013 103.74927204 125.51740501 102.54609333 125.51225853 101.30645466 C125.49405052 99.79486774 125.47584251 98.28328083 125.45708275 96.72588825 C125.41583275 91.89963825 125.37458275 87.07338825 125.33208275 82.10088825 C115.43208275 82.10088825 105.53208275 82.10088825 95.33208275 82.10088825 Z " fill="#FDE165" transform="translate(155.6679172515869,274.8991117477417)"/>
<path d="M0 0 C1.12926753 -0.0013775 2.25853506 -0.00275499 3.42202282 -0.00417423 C4.66658906 -0.00057612 5.9111553 0.00302198 7.19343567 0.00672913 C8.53545027 0.00703544 9.87746503 0.00690201 11.21947956 0.00636387 C14.81607979 0.00613794 18.41264681 0.01193738 22.0092392 0.0189743 C25.38309841 0.02466564 28.7569495 0.02493723 32.1308136 0.02565002 C42.00040622 0.03089913 51.86999265 0.04486026 61.73957825 0.05775452 C83.78770325 0.07837952 105.83582825 0.09900452 128.55207825 0.12025452 C128.55207825 78.33025452 128.55207825 156.54025452 128.55207825 237.12025452 C96.87207825 237.45025452 65.19207825 237.78025452 32.55207825 238.12025452 C27.73832633 241.39854321 27.73832633 241.39854321 26.55207825 244.12025452 C25.89207825 250.72025452 25.23207825 257.32025452 24.55207825 264.12025452 C10.03207825 264.12025452 -4.48792175 264.12025452 -19.44792175 264.12025452 C-19.53835543 232.39090083 -19.60996459 200.66159629 -19.65218307 168.93214425 C-19.65718587 165.18584681 -19.66236316 161.43954962 -19.66764832 157.69325256 C-19.66869756 156.94743504 -19.6697468 156.20161752 -19.67082784 155.43319947 C-19.68823113 143.35841654 -19.71976839 131.28370982 -19.75653294 119.20897209 C-19.7939445 106.81835707 -19.81615805 94.42778195 -19.82427573 82.03711277 C-19.82976308 74.3919178 -19.84709169 66.74693823 -19.87958762 59.10180957 C-19.90323913 53.23864232 -19.90574104 47.37558551 -19.90035248 41.51236916 C-19.90145376 39.10774789 -19.90942151 36.70311854 -19.92474365 34.29854584 C-19.94463356 31.01639761 -19.93986377 27.73517234 -19.92893982 24.45300293 C-19.94059119 23.50065575 -19.95224255 22.54830856 -19.96424699 21.56710237 C-19.90196803 14.6481891 -18.431608 10.34135236 -13.6315155 5.15931702 C-13.05530457 4.69267639 -12.47909363 4.22603577 -11.88542175 3.74525452 C-11.01723816 3.02209045 -11.01723816 3.02209045 -10.1315155 2.28431702 C-6.83045595 0.00191389 -3.88041322 -0.00362995 0 0 Z " fill="#21C0F7" transform="translate(19.447921752929688,38.87974548339844)"/>
<path d="M0 0 C89.1 0 178.2 0 270 0 C270 40 270 40 265 48 C259.1016461 52.77970057 255.5071077 54.12563507 248.03352356 54.12025452 C247.32042217 54.12110894 246.60732079 54.12196337 245.87261027 54.12284368 C243.47730401 54.124494 241.08206741 54.11898442 238.68676758 54.11352539 C236.97206117 54.1132434 235.25735465 54.11340149 233.54264832 54.1139679 C228.88180705 54.11425539 224.2209914 54.10836634 219.56015611 54.10139394 C214.69144714 54.09515249 209.82273762 54.09455597 204.95402527 54.09336853 C195.73180161 54.09025756 186.50958978 54.0820473 177.28737134 54.07201904 C164.82723722 54.0587633 152.36709988 54.05335611 139.90696049 54.04751682 C120.27129813 54.03810727 100.63566073 54.01818678 81 54 C81 80.73 81 107.46 81 135 C90.57 135 100.14 135 110 135 C116 140 116 140 116.86450195 142.06665039 C117.10693821 145.52584451 117.18454049 148.9719156 117.1875 152.4375 C117.19974609 153.18837891 117.21199219 153.93925781 117.22460938 154.71289062 C117.23896017 160.15184097 116.89278199 163.98068597 113.02217102 168.11004639 C108.76126748 170.77465735 105.27362337 170.53219216 100.34448242 170.45410156 C98.89498199 170.45497772 98.89498199 170.45497772 97.41619873 170.45587158 C94.22892064 170.4530896 91.04258304 170.42199147 87.85546875 170.390625 C85.64301565 170.38316304 83.43055594 170.37746989 81.21809387 170.37347412 C75.39988908 170.35821441 69.58208482 170.3189292 63.76403809 170.2746582 C57.82516905 170.23371307 51.88623518 170.21546469 45.94726562 170.1953125 C34.29800128 170.15243568 22.64903397 170.08417987 11 170 C12.2065625 168.824375 12.2065625 168.824375 13.4375 167.625 C17.38019427 163.58614245 17.14509682 161.29192835 17.08886719 155.88043213 C16.9385116 151.00699048 16.54154097 146.16159937 16.125 141.3046875 C15.99182373 139.69450241 15.99182373 139.69450241 15.85595703 138.05178833 C15.57447999 134.6591923 15.28733573 131.26710432 15 127.875 C14.80691528 125.55992719 14.61420332 123.24482327 14.421875 120.9296875 C13.95222447 115.28609146 13.47793351 109.6429003 13 104 C13.82056885 103.80809082 14.6411377 103.61618164 15.48657227 103.41845703 C16.56479248 103.15919434 17.6430127 102.89993164 18.75390625 102.6328125 C19.8219751 102.37902832 20.89004395 102.12524414 21.99047852 101.86376953 C28.33566736 100.04262261 31.62306934 97.04975719 34.875 91.375 C37.38935273 86.49615662 38.15399926 82.64316808 38.31640625 77.14453125 C38.37356812 75.32852417 38.37356812 75.32852417 38.43188477 73.47583008 C38.47498779 71.93693115 38.51809082 70.39803223 38.5625 68.8125 C38.706875 63.924375 38.85125 59.03625 39 54 C29.1 54 19.2 54 9 54 C7.75405438 50.26216315 7.58484639 46.61218767 7.31640625 42.7109375 C7.19220089 41.0299373 7.0678471 39.34894806 6.94335938 37.66796875 C6.75239113 35.02864583 6.56349976 32.38920262 6.37768555 29.74951172 C6.19635353 27.19453165 6.00679098 24.64025679 5.81640625 22.0859375 C5.76424454 21.31059662 5.71208282 20.53525574 5.65834045 19.73641968 C5.10037597 12.34959837 4.52155375 6.02873833 0 0 Z " fill="#908190" transform="translate(242,303)"/>
<path d="M0 0 C6.66085161 -0.0848836 13.32139861 -0.14991504 19.98269653 -0.18658447 C22.10022416 -0.19977501 24.21772777 -0.21769507 26.33517456 -0.24041748 C29.30143858 -0.27009973 32.26712525 -0.28003891 35.23352051 -0.2845459 C36.55082657 -0.30299057 36.55082657 -0.30299057 37.89474487 -0.32180786 C42.62229419 -0.3046657 45.8064542 -0.08177411 49.60461426 3.0435791 C52.68813911 6.20858792 53.10725411 8.87856027 53.51867676 13.2154541 C53.63928467 14.42942871 53.75989258 15.64340332 53.88415527 16.89416504 C53.99815674 18.18097168 54.1121582 19.46777832 54.22961426 20.7935791 C54.3562761 22.12211199 54.48380189 23.45056278 54.61218262 24.77893066 C55.34506431 32.57898905 55.93819315 40.37073446 56.34313965 48.19445801 C56.60115489 51.99265438 57.02917378 55.72857732 57.51086426 59.5045166 C58.86975561 70.61279017 59.68283595 81.76276891 60.54211426 92.9185791 C60.88800627 97.353614 61.23623672 101.78846319 61.58508301 106.2232666 C61.67085602 107.31661316 61.75662903 108.40995972 61.84500122 109.53643799 C62.37644903 116.27340764 62.93620423 123.0071725 63.53039551 129.7388916 C63.60140976 130.54615692 63.67242401 131.35342224 63.74559021 132.18515015 C64.07138677 135.87665438 64.40255148 139.56757794 64.74108887 143.25793457 C66.44353819 162.39465965 66.44353819 162.39465965 63.79211426 167.6060791 C61.36237312 170.31350494 59.97837224 170.96086683 56.37535286 171.17780018 C55.06186017 171.1842104 55.06186017 171.1842104 53.72183228 171.19075012 C52.7152356 171.19790543 51.70863892 171.20506073 50.67153931 171.21243286 C49.56809174 171.21512177 48.46464417 171.21781067 47.32775879 171.22058105 C46.16492371 171.22715225 45.00208862 171.23372345 43.80401611 171.24049377 C39.94848571 171.26023659 36.09299423 171.2718902 32.23742676 171.28186035 C30.92251125 171.28593588 29.60759575 171.29001141 28.25283432 171.29421043 C22.01379629 171.31325403 15.77477005 171.32748805 9.53570855 171.3358224 C2.33630557 171.34559889 -4.86279029 171.3719322 -12.06208503 171.4123233 C-17.62905922 171.44248385 -23.19594535 171.45729111 -28.76299965 171.46060342 C-32.08713119 171.46295359 -35.41085916 171.47388168 -38.7349205 171.49706459 C-42.44344517 171.52132585 -46.15116204 171.52051456 -49.85974121 171.5135498 C-50.95914032 171.52635986 -52.05853943 171.53916992 -53.19125366 171.55236816 C-60.63624353 171.50129645 -60.63624353 171.50129645 -64.55386353 169.13920593 C-67.79679712 165.44879232 -67.573748 162.37018212 -67.55847168 157.65881348 C-67.55655697 156.90334984 -67.55464226 156.1478862 -67.55266953 155.36952972 C-67.46261119 146.271849 -66.62731976 137.25299945 -65.78601074 128.1998291 C-65.61675493 126.31534094 -65.44822945 124.43078706 -65.28038025 122.5461731 C-64.83522534 117.56689621 -64.38139639 112.58844926 -63.92550278 107.61014557 C-63.17582458 99.403083 -62.44085487 91.19467884 -61.70403099 82.98645401 C-61.52185495 80.95849839 -61.33935147 78.93057216 -61.15651894 76.90267563 C-60.0582901 64.71769118 -59.00560583 52.53191335 -58.07897949 40.3326416 C-57.9888559 39.15768127 -57.8987323 37.98272095 -57.80587769 36.77215576 C-57.41220825 31.61170868 -57.03281473 26.45081823 -56.67565918 21.28771973 C-56.54491498 19.54224395 -56.41376267 17.79679867 -56.28210449 16.0513916 C-56.23549179 15.29435944 -56.18887909 14.53732727 -56.14085388 13.75735474 C-55.80169167 9.447848 -55.04358896 6.4907989 -52.39538574 3.0435791 C-48.52107988 0.46070853 -45.22851628 0.69163914 -40.72741699 0.6295166 C-39.84002838 0.60996918 -38.95263977 0.59042175 -38.0383606 0.57028198 C-35.09496562 0.50900687 -32.15158148 0.462923 -29.20788574 0.4185791 C-27.16043863 0.38258526 -25.112994 0.34645039 -23.06555176 0.31018066 C-15.37731656 0.18167343 -7.68864657 0.09868225 0 0 Z " fill="#FA3A81" transform="translate(194.3953857421875,301.9564208984375)"/>
<path d="M0 0 C5.83488314 -0.12417084 11.66898684 -0.21460824 17.50488281 -0.2746582 C19.48744109 -0.29970683 21.46990789 -0.33375584 23.45214844 -0.37719727 C26.31207926 -0.43827619 29.17078292 -0.46630629 32.03125 -0.48828125 C32.90865845 -0.51408768 33.78606689 -0.5398941 34.69006348 -0.56648254 C41.73408249 -0.56964845 46.54921231 1.57795988 51.56237793 6.54936218 C54.88331772 10.35455042 56.12553944 13.29772841 56.12304783 18.27348614 C56.1250387 19.15058302 56.12702957 20.0276799 56.12908077 20.93135548 C56.12616811 21.89507918 56.12325544 22.85880289 56.12025452 23.85173035 C56.12111053 24.87270813 56.12196655 25.89368591 56.12284851 26.94560242 C56.1245099 30.39368407 56.11897 33.84171767 56.11352539 37.28979492 C56.11321921 39.79323735 56.11335228 42.29667987 56.11389065 44.80012226 C56.11409398 50.83850926 56.10980016 56.87687752 56.10338932 62.91525983 C56.09619725 69.8981375 56.095395 76.88100995 56.09460449 83.8638916 C56.08935136 102.30509676 56.07539028 120.7462986 56.0625 139.1875 C56.041875 180.375625 56.02125 221.56375 56 264 C-34.09 264 -124.18 264 -217 264 C-217 263.67 -217 263.34 -217 263 C-140.11 263 -63.22 263 16 263 C15.67 245.84 15.34 228.68 15 211 C14.67 214.96 14.34 218.92 14 223 C11.15868739 228.84976126 7.51344857 233.43537665 2 237 C-3.62191942 238.92920603 -10.83091403 239.20331906 -16.38671875 237.09375 C-21.61523614 233.98651681 -25.25015916 229.99972715 -28.3125 224.75 C-29.3691998 220.52320078 -29.15145415 216.33327146 -29 212 C-31.97 211.67 -34.94 211.34 -38 211 C-37.67 211.66 -37.34 212.32 -37 213 C-36.17890109 219.48802746 -37.16090441 224.6679228 -41 230 C-45.26351795 234.55650852 -49.53943742 237.59453899 -55.8671875 238.3359375 C-62.56145043 238.42287598 -66.66563249 238.16080666 -72 234 C-76.98734095 229.11680306 -80.00871093 224.79616428 -80.3125 217.6875 C-80.2029095 212.22624025 -78.43399342 207.86798684 -76 203 C-76.33 202.01 -76.66 201.02 -77 200 C-77.09082866 198.43813433 -77.13154942 196.87307189 -77.140625 195.30859375 C-77.3441086 183.25426652 -78.62659547 172.77881124 -82.28857422 161.31689453 C-83.61379527 157.00105794 -84.70826912 152.62657354 -85.8125 148.25 C-86.03131836 147.41573486 -86.25013672 146.58146973 -86.47558594 145.72192383 C-87.56536022 141.42029868 -88.45963133 137.47283023 -88 133 C-85.32028796 130.32028796 -83.27212278 130.74952254 -79.6287384 130.71783447 C-78.73362045 130.72031189 -77.8385025 130.72278931 -76.91625977 130.7253418 C-75.50390549 130.7176754 -75.50390549 130.7176754 -74.0630188 130.70985413 C-70.93908395 130.69591203 -67.81536858 130.69691837 -64.69140625 130.69921875 C-62.52668678 130.69533433 -60.36196807 130.69100019 -58.19725037 130.68623352 C-53.65515678 130.67876135 -49.1131409 130.67906979 -44.57104492 130.68432617 C-38.74205934 130.69012181 -32.91339139 130.6731922 -27.08445835 130.6499815 C-22.612423 130.63527021 -18.1404646 130.63436891 -13.66840935 130.63749123 C-11.51895455 130.63697669 -9.36949559 130.63171433 -7.22006416 130.62167931 C-4.21754269 130.60938283 -1.21564577 130.6160658 1.78686523 130.62768555 C2.67995895 130.62004181 3.57305267 130.61239807 4.49320984 130.60452271 C5.71931976 130.61504417 5.71931976 130.61504417 6.97019958 130.6257782 C7.68014792 130.62561046 8.39009626 130.62544271 9.12155819 130.62526989 C11.57475608 131.11465802 12.47972656 132.04982477 14 134 C14.6360872 142.13455943 11.94002438 150.92831463 10.1875 158.8125 C9.8152832 160.59430664 9.8152832 160.59430664 9.43554688 162.41210938 C6.94687903 173.70293577 6.94687903 173.70293577 3 178 C-0.75942253 179.8806385 -3.8075414 180.24493558 -7.98364258 180.22705078 C-9.75491264 180.22682419 -9.75491264 180.22682419 -11.56196594 180.22659302 C-13.45908577 180.21110916 -13.45908577 180.21110916 -15.39453125 180.1953125 C-17.34826912 180.19106766 -17.34826912 180.19106766 -19.34147644 180.18673706 C-22.79222384 180.17912697 -26.24280098 180.15950135 -29.69348145 180.1373291 C-33.219459 180.11681388 -36.74546425 180.10772324 -40.27148438 180.09765625 C-47.18106628 180.0762527 -54.09050742 180.04109218 -61 180 C-61 184.95 -61 189.9 -61 195 C-58.80956055 194.98952637 -56.61912109 194.97905273 -54.36230469 194.96826172 C-47.12595431 194.93512556 -39.88960058 194.91303174 -32.65319443 194.89637566 C-28.26566302 194.88593743 -23.87820933 194.87177751 -19.49072266 194.84912109 C-15.25673915 194.82739411 -11.02283042 194.81543166 -6.78879547 194.81024551 C-5.17325921 194.8065495 -3.55772704 194.79933215 -1.9422226 194.78853989 C0.32018383 194.77402682 2.58228109 194.77202197 4.84472656 194.77294922 C6.13268127 194.768508 7.42063599 194.76406677 8.74761963 194.75949097 C11.8733142 194.99063176 13.32695915 195.53463474 16 197 C16.00956034 173.29508919 15.98492269 149.59042655 15.9197216 125.88559818 C15.89024145 114.87867851 15.87189596 103.87195175 15.87988281 92.86499023 C15.88681687 83.26981189 15.87273715 73.6749322 15.83356392 64.07982725 C15.81355724 59.0005453 15.80397861 53.92173216 15.81957626 48.84242439 C15.8339368 44.05775757 15.8201186 39.27398518 15.78504753 34.48943329 C15.77710426 32.73715494 15.77929784 30.98479547 15.79260826 29.23254967 C15.96302849 17.11617483 15.96302849 17.11617483 10.53480721 6.51352596 C8.54792136 4.55418977 6.76393141 3.35712761 4.125 2.4375 C3.34382812 2.14746094 2.56265625 1.85742188 1.7578125 1.55859375 C1.17773438 1.37425781 0.59765625 1.18992188 0 1 C0 0.67 0 0.34 0 0 Z " fill="#E0DCE0" transform="translate(456,39)"/>
<path d="M0 0 C13.86 0 27.72 0 42 0 C42 26.73 42 53.46 42 81 C51.57 81 61.14 81 71 81 C77 86 77 86 77.86450195 88.06665039 C78.10693821 91.52584451 78.18454049 94.9719156 78.1875 98.4375 C78.19974609 99.18837891 78.21199219 99.93925781 78.22460938 100.71289062 C78.23896017 106.15184097 77.89278199 109.98068597 74.02217102 114.11004639 C69.76126748 116.77465735 66.27362337 116.53219216 61.34448242 116.45410156 C59.89498199 116.45497772 59.89498199 116.45497772 58.41619873 116.45587158 C55.22892064 116.4530896 52.04258304 116.42199147 48.85546875 116.390625 C46.64301565 116.38316304 44.43055594 116.37746989 42.21809387 116.37347412 C36.39988908 116.35821441 30.58208482 116.3189292 24.76403809 116.2746582 C18.82516905 116.23371307 12.88623518 116.21546469 6.94726562 116.1953125 C-4.70199872 116.15243568 -16.35096603 116.08417987 -28 116 C-26.7934375 114.824375 -26.7934375 114.824375 -25.5625 113.625 C-21.61980573 109.58614245 -21.85490318 107.29192835 -21.91113281 101.88043213 C-22.0614884 97.00699048 -22.45845903 92.16159937 -22.875 87.3046875 C-22.96378418 86.23123077 -23.05256836 85.15777405 -23.14404297 84.05178833 C-23.42552001 80.6591923 -23.71266427 77.26710432 -24 73.875 C-24.19308472 71.55992719 -24.38579668 69.24482327 -24.578125 66.9296875 C-25.04777553 61.28609146 -25.52206649 55.6429003 -26 50 C-24.76914673 49.71213623 -24.76914673 49.71213623 -23.51342773 49.41845703 C-22.43520752 49.15919434 -21.3569873 48.89993164 -20.24609375 48.6328125 C-19.1780249 48.37902832 -18.10995605 48.12524414 -17.00952148 47.86376953 C-10.66433264 46.04262261 -7.37693066 43.04975719 -4.125 37.375 C-1.61064727 32.49615662 -0.84600074 28.64316808 -0.68359375 23.14453125 C-0.64548584 21.93385986 -0.60737793 20.72318848 -0.56811523 19.47583008 C-0.52501221 17.93693115 -0.48190918 16.39803223 -0.4375 14.8125 C-0.293125 9.924375 -0.14875 5.03625 0 0 Z " fill="#685E67" transform="translate(281,357)"/>
<path d="M0 0 C10.56 0 21.12 0 32 0 C32 77.88 32 155.76 32 236 C21.44 236 10.88 236 0 236 C0 158.12 0 80.24 0 0 Z " fill="#1FAAEE" transform="translate(116,39)"/>
<path d="M0 0 C4.75043103 -0.14870119 9.49949856 -0.25737512 14.25170898 -0.32958984 C15.86685796 -0.35970087 17.48184423 -0.40060063 19.09643555 -0.45263672 C21.42277163 -0.52571534 23.74694148 -0.5595088 26.07421875 -0.5859375 C26.79212082 -0.61690521 27.51002289 -0.64787292 28.24967957 -0.67977905 C32.34445605 -0.6825067 33.85071319 -0.13462594 36.92602539 2.63867188 C39.10274623 6.16652266 39.75716874 8.27659822 40.109375 12.3671875 C40.2806189 14.17848145 40.2806189 14.17848145 40.45532227 16.02636719 C40.60118774 17.93144043 40.60118774 17.93144043 40.75 19.875 C40.86722412 21.18114258 40.98444824 22.48728516 41.10522461 23.83300781 C41.78576239 31.59761065 42.33507267 39.36754146 42.73901367 47.15136719 C42.99657414 50.94948065 43.42457411 54.68511256 43.90625 58.4609375 C45.26514135 69.56921107 46.07822169 80.71918981 46.9375 91.875 C47.28339201 96.3100349 47.63162246 100.74488409 47.98046875 105.1796875 C48.06624176 106.27303406 48.15201477 107.36638062 48.24038696 108.49285889 C48.77183477 115.22982854 49.33158997 121.9635934 49.92578125 128.6953125 C49.9967955 129.50257782 50.06780975 130.30984314 50.14097595 131.14157104 C50.46677251 134.83307528 50.79793722 138.52399884 51.13647461 142.21435547 C52.83892393 161.35108055 52.83892393 161.35108055 50.1875 166.5625 C48 169 48 169 45 170 C42.48631945 170.0846817 40.00130626 170.11601885 37.48828125 170.09765625 C36.76005661 170.0962413 36.03183197 170.09482635 35.28153992 170.09336853 C32.95848461 170.08777659 30.63552612 170.07522562 28.3125 170.0625 C26.73632952 170.05748396 25.16015752 170.05292123 23.58398438 170.04882812 C19.72261902 170.0378098 15.86132592 170.02055074 12 170 C12.813479 169.23171875 13.62695801 168.4634375 14.46508789 167.671875 C17.19970789 165.26226265 17.19970789 165.26226265 17.55859375 162.25 C17.49865234 160.64125 17.49865234 160.64125 17.4375 159 C17.39367187 157.70191406 17.34984375 156.40382813 17.3046875 155.06640625 C17.20760256 153.37734085 17.10536623 151.68856903 17 150 C16.93329102 148.86546387 16.86658203 147.73092773 16.79785156 146.56201172 C15.96959773 130.72003329 15.96959773 130.72003329 14 115 C13.82672714 112.41465885 13.68077547 109.83757769 13.5625 107.25 C13.24710545 101.13455317 12.72471408 95.08017207 12 89 C10.97087147 80.34773229 10.41853376 71.70109669 10 63 C9.40574219 63.47050781 8.81148437 63.94101562 8.19921875 64.42578125 C-0.075821 70.64171313 -8.57193046 73.86932214 -19.03515625 73.5390625 C-27.73319503 71.9576009 -36.26734557 67.13215752 -41.671875 60.1171875 C-46.91900284 51.75264841 -48.22938052 44.27267183 -48.375 34.5625 C-48.41238281 33.62083984 -48.44976562 32.67917969 -48.48828125 31.70898438 C-48.54812607 26.99786732 -48.55751041 24.74708263 -45.66796875 20.875 C-43 19 -43 19 -39.9375 18.4375 C-36.17254668 19.15844851 -35.23844881 19.8813155 -33 23 C-32.31298709 27.09556116 -32.49328741 31.24190481 -32.51171875 35.3828125 C-32.41215022 41.41123443 -31.44506659 45.9653093 -28 51 C-22.697776 55.92349371 -19.13428026 56.35826982 -12.05078125 56.2734375 C-7.51948232 55.86730315 -5.54440793 54.87983145 -2 52 C2.23002382 46.13180331 2.58552293 41.36574166 2.625 34.25 C2.65051056 32.38007589 2.68401083 30.51023895 2.7265625 28.640625 C2.73252441 27.82110352 2.73848633 27.00158203 2.74462891 26.15722656 C3 24 3 24 5 21 C5.35709396 17.73947214 5.35709396 17.73947214 5.3125 14.125 C5.32925781 12.91070312 5.34601563 11.69640625 5.36328125 10.4453125 C4.87305318 5.79605274 3.25912094 3.25912094 0 0 Z " fill="#FA1466" transform="translate(208,303)"/>
<path d="M0 0 C0.86777573 -0.00860046 1.73555145 -0.01720093 2.62962341 -0.02606201 C3.58907867 -0.03032196 4.54853394 -0.03458191 5.5370636 -0.03897095 C7.04438301 -0.05123718 7.04438301 -0.05123718 8.58215332 -0.06375122 C11.92429499 -0.08866456 15.26639396 -0.1051379 18.6085968 -0.11953735 C20.31706756 -0.12752287 20.31706756 -0.12752287 22.06005287 -0.13566971 C28.09046888 -0.16242926 34.12086401 -0.1817937 40.15132141 -0.19619751 C46.38484197 -0.21283674 52.61783294 -0.25760106 58.85115337 -0.30856895 C63.6389833 -0.34221141 68.42668723 -0.35377184 73.2146244 -0.35942459 C75.51235302 -0.36614716 77.81007306 -0.38139514 80.107687 -0.4053154 C83.32547046 -0.43689917 86.54182236 -0.43701315 89.75971985 -0.42959595 C91.18372101 -0.45420395 91.18372101 -0.45420395 92.63648987 -0.47930908 C97.05052544 -0.43767271 100.03680286 -0.26706085 103.54763794 2.56536865 C107.23183346 6.49924306 107.1434415 9.22465099 107.17500305 14.3921814 C107.18070312 15.10996262 107.1864032 15.82774384 107.192276 16.567276 C107.20172757 18.08791632 107.20826061 19.60857713 107.21211243 21.12924194 C107.2217973 23.44707404 107.25280885 25.7640114 107.28437805 28.08163452 C107.29091042 29.56014489 107.29615998 31.03866159 107.30000305 32.5171814 C107.31234985 33.20693558 107.32469666 33.89668976 107.3374176 34.60734558 C107.31738414 38.97205278 106.65739757 41.69395357 103.97187805 45.15390015 C100.8633051 47.22628211 100.18365211 47.40588214 96.65855408 47.42132568 C95.33797752 47.43412064 95.33797752 47.43412064 93.99072266 47.44717407 C93.02753616 47.4462677 92.06434967 47.44536133 91.07197571 47.44442749 C90.05544418 47.45114471 89.03891266 47.45786194 87.99157715 47.46478271 C84.62298222 47.48381854 81.25458595 47.48768976 77.88594055 47.48983765 C75.5480796 47.49626174 73.21021947 47.5029898 70.87236023 47.51000977 C65.96801387 47.52199656 61.06373803 47.52568915 56.15937805 47.52450562 C49.87206525 47.52430236 43.58520415 47.55160526 37.29799843 47.58605003 C32.46816426 47.60827739 27.6384395 47.61234443 22.80855942 47.61128616 C20.49049192 47.61364837 18.1724217 47.62250657 15.85440445 47.6379509 C12.61280357 47.65752583 9.37218585 47.65180566 6.13056946 47.63973999 C5.17143143 47.650979 4.2122934 47.66221802 3.22409058 47.67379761 C-1.01508621 47.6336606 -3.40165814 47.52965896 -7.10054016 45.31103516 C-11.66068713 40.20782618 -10.3287208 32.17627045 -10.3782196 25.6758728 C-10.39478551 24.08132336 -10.42208451 22.48684837 -10.46025085 20.89266968 C-10.51513442 18.58612824 -10.53690607 16.28131979 -10.55155945 13.97421265 C-10.57422882 13.26572174 -10.59689819 12.55723083 -10.62025452 11.82727051 C-10.60334266 7.84772525 -10.16315486 6.31386304 -7.5579071 3.22763062 C-6.723078 2.54329956 -5.8882489 1.85896851 -5.02812195 1.15390015 C-3.50094011 -0.37328169 -2.13066824 0.01565874 0 0 Z " fill="#23F0A8" transform="translate(207.0281219482422,172.84609985351563)"/>
<path d="M0 0 C4.17193482 1.36536049 5.16473945 2.40577048 7.4375 6.125 C7.98264105 9.00954872 7.9480629 11.8294588 7.90625 14.7578125 C7.91329956 15.5902951 7.92034912 16.42277771 7.9276123 17.28048706 C7.95693602 20.82289961 7.94059071 24.36475438 7.92822266 27.90722656 C7.91632086 40.73736722 7.93798937 52.42969398 17.2890625 62.33203125 C21.25850914 65.6447149 25.7911177 67.90683558 30.4375 70.125 C30.41357178 69.23627197 30.41357178 69.23627197 30.38916016 68.32958984 C30.27232761 60.19227852 30.89305736 52.15211967 31.609375 44.05566406 C31.81147851 41.76159487 32.0039003 39.46685817 32.1953125 37.171875 C32.56550381 32.81811089 32.99067459 28.47148701 33.4375 24.125 C33.5602832 22.86397461 33.68306641 21.60294922 33.80957031 20.30371094 C34.3780072 15.57649922 34.94378527 11.98670087 37.32421875 7.83203125 C42.18934573 5.16445221 46.8059269 5.59633338 52.25 5.8125 C53.32443359 5.83505859 54.39886719 5.85761719 55.50585938 5.88085938 C58.1511685 5.93964402 60.79361413 6.02176043 63.4375 6.125 C62.4784375 7.300625 62.4784375 7.300625 61.5 8.5 C58.42934063 12.40811193 58.13776065 15.35531909 57.76074219 20.17431641 C57.67001765 21.27039451 57.67001765 21.27039451 57.57746029 22.38861561 C57.37594143 24.83430091 57.18024242 27.28041863 56.984375 29.7265625 C56.84276355 31.45544255 56.70073152 33.1842882 56.55830383 34.9131012 C56.17616728 39.56191243 55.79866744 44.21108931 55.42201614 48.86034775 C54.71916299 57.52073751 54.00592139 66.18028067 53.29296875 74.83984375 C53.21423964 75.79781923 53.13551052 76.75579472 53.05439568 77.74279976 C52.04418552 90.0224679 50.9940672 102.29724614 49.86328125 114.56640625 C49.68600998 116.49815704 49.68600998 116.49815704 49.50515747 118.46893311 C48.96764429 124.30605032 48.42059807 130.14207357 47.86035156 135.97705078 C47.01959973 144.88177224 46.23234417 153.79411188 45.99609375 162.73828125 C45.95669678 164.03161377 45.9172998 165.32494629 45.87670898 166.6574707 C46.61459475 171.22002688 48.25221301 172.8547888 51.4375 176.125 C47.72958456 176.27092789 44.02241274 176.35927895 40.3125 176.4375 C38.74242188 176.5003418 38.74242188 176.5003418 37.140625 176.56445312 C36.12226562 176.58056641 35.10390625 176.59667969 34.0546875 176.61328125 C33.12253418 176.63946533 32.19038086 176.66564941 31.22998047 176.69262695 C27.14336575 175.86194159 25.23507999 174.17387032 22.4375 171.125 C21.78344727 167.81445312 21.78344727 167.81445312 21.94140625 163.90625 C21.96497696 163.17756714 21.98854767 162.44888428 22.01283264 161.69812012 C22.11218077 159.16973217 22.26873961 156.64968756 22.4375 154.125 C22.52822784 152.701875 22.52822784 152.701875 22.62078857 151.25 C23.11903806 143.70093204 23.73939777 136.16353809 24.375 128.625 C24.74117142 124.19815152 25.10356825 119.77100048 25.46484375 115.34375 C25.55148285 114.28913574 25.63812195 113.23452148 25.72738647 112.14794922 C26.43075552 103.48011757 26.98750305 94.80941527 27.4375 86.125 C26.45559692 85.78831299 26.45559692 85.78831299 25.45385742 85.44482422 C13.01949601 81.06757444 3.18382074 72.91537974 -3.09375 61.2890625 C-7.01127119 52.97571812 -8.87558767 45.78856131 -8.93359375 36.6484375 C-8.94262222 35.76016266 -8.9516507 34.87188782 -8.96095276 33.95669556 C-8.97538942 32.08932841 -8.98432551 30.22191145 -8.98803711 28.35449219 C-8.99999541 25.50109531 -9.04929504 22.64982046 -9.09960938 19.796875 C-9.10906812 17.97657299 -9.11630577 16.15625779 -9.12109375 14.3359375 C-9.14062607 13.48687836 -9.16015839 12.63781921 -9.18028259 11.76303101 C-9.14714858 7.41322467 -8.95006432 5.63921531 -6.25024414 2.05712891 C-3.5625 0.125 -3.5625 0.125 0 0 Z " fill="#EDBE27" transform="translate(81.5625,296.875)"/>
<path d="M0 0 C0.89511795 0.00247742 1.7902359 0.00495483 2.71247864 0.00750732 C3.65404816 0.00239639 4.59561768 -0.00271454 5.5657196 -0.00798035 C8.68965445 -0.02192244 11.81336982 -0.0209161 14.93733215 -0.01861572 C17.10205162 -0.02250014 19.26677033 -0.02683428 21.43148804 -0.03160095 C25.97358163 -0.03907313 30.5155975 -0.03876469 35.05769348 -0.0335083 C40.88667907 -0.02771267 46.71534701 -0.04464227 52.54428005 -0.06785297 C57.0163154 -0.08256427 61.4882738 -0.08346556 65.96032906 -0.08034325 C68.10978385 -0.08085778 70.25924281 -0.08612014 72.40867424 -0.09615517 C75.41119572 -0.10845164 78.41309263 -0.10176867 81.41560364 -0.09014893 C82.75524422 -0.10161453 82.75524422 -0.10161453 84.12194824 -0.11331177 C85.34805817 -0.1027903 85.34805817 -0.1027903 86.59893799 -0.09205627 C87.30888633 -0.09222402 88.01883467 -0.09239176 88.75029659 -0.09256458 C91.20349449 0.39682354 92.10846496 1.3319903 93.6287384 3.28216553 C94.2648256 11.41672496 91.56876279 20.21048015 89.8162384 28.09466553 C89.56809387 29.28253662 89.31994934 30.47040771 89.06428528 31.6942749 C86.66163649 42.59484178 86.66163649 42.59484178 82.6287384 47.28216553 C79.66194035 48.76556455 76.63503388 48.44681058 73.38093567 48.45916748 C72.63443756 48.46573868 71.88793945 48.47230988 71.11882019 48.4790802 C68.64426072 48.49881968 66.16976186 48.51047547 63.69514465 48.52044678 C62.85121595 48.5245223 62.00728725 48.52859783 61.13778496 48.53279686 C56.67342752 48.55365759 52.20910085 48.56796086 47.7447052 48.57733154 C43.1263097 48.58841293 38.50839379 48.62283233 33.89016819 48.66250324 C30.34460533 48.68860107 26.79915809 48.69701712 23.25350761 48.70061302 C21.55060006 48.70549454 19.84769819 48.71715284 18.14488411 48.73565102 C15.76484316 48.75990462 13.3860614 48.75910372 11.00593567 48.75213623 C9.94681725 48.77135132 9.94681725 48.77135132 8.86630249 48.79095459 C5.71991689 48.75729701 4.06545688 48.69858719 1.74058533 46.48176575 C0.08357128 43.20364501 -0.77236401 39.7765498 -1.63298035 36.22747803 C-1.82849991 35.44831024 -2.02401947 34.66914246 -2.22546387 33.86636353 C-2.63578924 32.22174988 -3.04146979 30.57597127 -3.4427948 28.92913818 C-4.05566054 26.41986229 -4.68591627 23.91543361 -5.31852722 21.41107178 C-5.7160588 19.80846659 -6.11257678 18.20560957 -6.50798035 16.60247803 C-6.6954332 15.8585379 -6.88288605 15.11459778 -7.07601929 14.34811401 C-8.06215033 10.25686861 -8.76135709 6.4907792 -8.3712616 2.28216553 C-5.69154956 -0.39754651 -3.64338438 0.03168807 0 0 Z " fill="#FA3A82" transform="translate(376.3712615966797,169.71783447265625)"/>
<path d="M0 0 C8.39231001 6.21652593 13.67118922 15.40756505 15.3203125 25.71875 C16.40608304 34.83210269 13.88585153 44.6142347 8.5703125 52.09375 C7.52192058 53.33252155 6.43757962 54.54172208 5.3203125 55.71875 C4.45792969 56.64107422 4.45792969 56.64107422 3.578125 57.58203125 C-3.85128732 64.78023779 -12.538544 68.17654256 -22.8046875 68.28125 C-34.4452395 68.03925121 -42.31249516 63.63929506 -50.6796875 55.71875 C-58.24000325 47.25409026 -60.13945813 37.53129474 -60.01171875 26.41796875 C-59.05136959 15.71854928 -53.43863413 7.82458664 -45.6796875 0.71875 C-31.77821836 -10.53224448 -14.49942502 -9.27235958 0 0 Z " fill="#28D193" transform="translate(436.6796875,74.28125)"/>
<path d="M0 0 C24.75 0.33 49.5 0.66 75 1 C75 1.33 75 1.66 75 2 C55.53 2 36.06 2 16 2 C16 6.95 16 11.9 16 17 C18.18520264 16.97905273 20.37040527 16.95810547 22.62182617 16.93652344 C29.84613612 16.87020957 37.07045959 16.82604715 44.2949934 16.79275131 C48.67477216 16.77188694 53.05423877 16.74359065 57.43383789 16.69824219 C61.66136551 16.65474288 65.88859312 16.63085424 70.11632729 16.62049103 C71.72828201 16.61310694 73.34022053 16.59868733 74.95204735 16.57707977 C77.21212465 16.54799022 79.47096642 16.54404613 81.73120117 16.54589844 C83.65980232 16.53257477 83.65980232 16.53257477 85.62736511 16.51898193 C89.57075855 17.08140376 91.21966391 18.20123004 94 21 C94.59375 23 94.59375 23 94.5 25 C94.4896875 25.66 94.479375 26.32 94.46875 27 C94 29 94 29 92.4609375 30.890625 C90.51079952 33.70633225 90.85410516 35.37692236 91.125 38.75 C91.26747583 44.91395426 90.08724562 48.41206679 86 53 C80.65003355 58.45744346 76.91811536 60.11674741 69.25 60.375 C62.32327332 60.30750449 58.35532472 58.27809218 53.47265625 53.5078125 C47.90710499 47.2808479 47.72085426 41.98666984 48 34 C45.03 33.67 42.06 33.34 39 33 C39.33 33.66 39.66 34.32 40 35 C40.82109891 41.48802746 39.83909559 46.6679228 36 52 C31.73648205 56.55650852 27.46056258 59.59453899 21.1328125 60.3359375 C14.43854957 60.42287598 10.33436751 60.16080666 5 56 C0.01265905 51.11680306 -3.00871093 46.79616428 -3.3125 39.6875 C-3.2029095 34.22624025 -1.43399342 29.86798684 1 25 C0.67 24.01 0.34 23.02 0 22 C0 14.74 0 7.48 0 0 Z " fill="#B7ADB7" transform="translate(379,217)"/>
<path d="M0 0 C12.15235089 -0.11588634 24.30457016 -0.20471195 36.45736122 -0.25906086 C42.10051628 -0.28514666 47.7432931 -0.32052692 53.38623047 -0.37719727 C58.83273406 -0.43155215 64.278874 -0.46142819 69.7256279 -0.47438622 C71.8028778 -0.48361976 73.88010796 -0.50165092 75.95720291 -0.52865028 C78.8685521 -0.56498632 81.77840169 -0.56994338 84.68994141 -0.56762695 C85.97603806 -0.59459152 85.97603806 -0.59459152 87.28811646 -0.62210083 C91.50190124 -0.58586024 94.1836667 -0.28411299 97.52784729 2.40631104 C101.84275632 6.93335012 101.18236286 11.42190881 101.1875 17.4375 C101.19974609 18.18837891 101.21199219 18.93925781 101.22460938 19.71289062 C101.23896017 25.15184097 100.89278199 28.98068597 97.02217102 33.11004639 C92.76126748 35.77465735 89.27362337 35.53219216 84.34448242 35.45410156 C82.89498199 35.45497772 82.89498199 35.45497772 81.41619873 35.45587158 C78.22892064 35.4530896 75.04258304 35.42199147 71.85546875 35.390625 C69.64301565 35.38316304 67.43055594 35.37746989 65.21809387 35.37347412 C59.39988908 35.35821441 53.58208482 35.3189292 47.76403809 35.2746582 C41.82516905 35.23371307 35.88623518 35.21546469 29.94726562 35.1953125 C18.29800128 35.15243568 6.64903397 35.08417987 -5 35 C-4.195625 34.21625 -3.39125 33.4325 -2.5625 32.625 C0.5095312 29.47804121 1.13968574 28.22949408 1.125 24 C1.06218197 18.86462581 0.78803224 13.75093166 0.4921875 8.625 C0.42149048 7.37783203 0.42149048 7.37783203 0.34936523 6.10546875 C0.23386119 4.0702583 0.11706215 2.03512142 0 0 Z " fill="#908190" transform="translate(258,438)"/>
<path d="M0 0 C3.5622103 3.13439582 3.5622103 3.13439582 4.03515625 7.15234375 C3.91026777 11.80365239 1.80044585 14.28683032 -1.46875 17.40234375 C-2.48258609 18.43148917 -3.49560651 19.46143877 -4.5078125 20.4921875 C-5.00442383 20.9857373 -5.50103516 21.47928711 -6.01269531 21.98779297 C-8.44609173 24.45785233 -10.64107907 27.1291865 -12.87109375 29.78125 C-14.60492859 31.6121443 -16.27084569 33.05539641 -18.40625 34.40234375 C-22.15870951 34.33651113 -24.46937483 34.2183318 -27.34375 31.71484375 C-28.74110229 28.67354759 -28.75898278 26.73279747 -28.40625 23.40234375 C-26.54296875 20.8046875 -26.54296875 20.8046875 -24.09375 18.33984375 C-21.00274487 15.18910905 -18.54052487 12.2771923 -16.40625 8.40234375 C-22.73347141 8.65243155 -27.5178048 8.97946476 -32.40625 13.40234375 C-35.77858546 17.92837292 -37.13072676 21.4556865 -36.859375 27.125 C-35.84507556 32.22272907 -32.99117384 35.95327052 -29.21875 39.40234375 C-23.6493297 41.38258208 -18.31729377 41.22136251 -12.90625 38.90234375 C-12.08125 38.40734375 -11.25625 37.91234375 -10.40625 37.40234375 C-9.74625 37.40234375 -9.08625 37.40234375 -8.40625 37.40234375 C-8.15875 36.84546875 -7.91125 36.28859375 -7.65625 35.71484375 C-6.11021149 32.8546725 -4.75080741 30.68353474 -2.40625 28.40234375 C1.55944988 27.76499913 3.62655512 27.78234703 7.03125 29.96484375 C9.2169526 33.37453981 9.14379566 35.41451275 8.59375 39.40234375 C4.9213634 46.90678592 -2.10008905 52.80350629 -9.78125 55.90234375 C-18.31225625 58.56753957 -25.8992712 58.36738403 -34.05859375 54.65625 C-42.91615082 49.92534181 -49.31331167 43.12698767 -52.40625 33.40234375 C-53.56488852 22.60695219 -53.00759906 13.47568735 -46.40625 4.40234375 C-33.99388603 -9.64457021 -14.71331086 -11.84903928 0 0 Z " fill="#C5EFFC" transform="translate(94.40625,84.59765625)"/>
<path d="M0 0 C3.79922833 2.13496459 6.05419287 3.95722606 8.6484375 7.48828125 C9.1382601 11.15695259 8.99819594 12.92478154 7.03125 16.09375 C6.28617188 16.94582031 5.54109375 17.79789062 4.7734375 18.67578125 C3.95230469 19.61550781 3.13117188 20.55523437 2.28515625 21.5234375 C1.41503906 22.50183594 0.54492188 23.48023438 -0.3515625 24.48828125 C-1.2029399 25.52560285 -2.05061719 26.56597256 -2.89453125 27.609375 C-9.97697817 36.05340862 -9.97697817 36.05340862 -14.7265625 36.92578125 C-18.3515625 36.48828125 -18.3515625 36.48828125 -20.8515625 34.98828125 C-22.90511035 31.5657015 -22.74681964 29.44085268 -22.3515625 25.48828125 C-20.41796875 22.43359375 -20.41796875 22.43359375 -17.9140625 19.61328125 C-17.09035156 18.66710937 -16.26664063 17.7209375 -15.41796875 16.74609375 C-13.3515625 14.48828125 -13.3515625 14.48828125 -12.3515625 13.48828125 C-18.40918044 13.0705145 -21.54181347 13.36563922 -26.3515625 17.48828125 C-29.28307817 22.12650125 -28.98046952 27.18858918 -28.3515625 32.48828125 C-26.30992129 36.64447942 -24.62666504 38.80253922 -20.3515625 40.48828125 C-15.59304777 41.03434032 -10.99250615 41.09471695 -6.4765625 39.42578125 C-4.02075581 37.18666339 -2.26671137 34.79375541 -0.46484375 32.01171875 C0.6484375 30.48828125 0.6484375 30.48828125 2.6484375 29.48828125 C6.19074811 29.10324749 8.01101092 29.06892166 11.0234375 31.05078125 C13.29174489 34.45324234 13.20330818 36.46546883 12.6484375 40.48828125 C9.2782142 47.3752593 2.53956313 53.72470851 -4.6640625 56.48828125 C-12.69442323 58.6325137 -20.80938936 58.60524052 -28.2578125 54.74609375 C-36.34137938 49.88992111 -41.10414525 45.05331444 -44.6640625 36.23828125 C-46.3337252 27.13103017 -46.07233353 19.55877429 -41.3515625 11.48828125 C-41.01253906 10.86179687 -40.67351562 10.2353125 -40.32421875 9.58984375 C-31.68229933 -4.49556228 -13.85995409 -6.45706523 0 0 Z " fill="#E01058" transform="translate(209.3515625,392.51171875)"/>
<path d="M0 0 C14.52 0 29.04 0 44 0 C42.68 17.82 41.36 35.64 40 54 C15 54 15 54 7 50 C2.90572759 45.72771574 -0.26533999 41.92371873 -0.22705078 35.87402344 C-0.22680908 35.06239746 -0.22656738 34.25077148 -0.22631836 33.41455078 C-0.21097046 32.14973877 -0.21097046 32.14973877 -0.1953125 30.859375 C-0.19329834 30.0770752 -0.19128418 29.29477539 -0.18920898 28.48876953 C-0.17877122 25.57578643 -0.15084861 22.66288712 -0.125 19.75 C-0.08375 13.2325 -0.0425 6.715 0 0 Z " fill="#918290" transform="translate(0,303)"/>
<path d="M0 0 C13.2 0 26.4 0 40 0 C40.1546875 9.6525 40.1546875 9.6525 40.3125 19.5 C40.35802002 21.51544922 40.40354004 23.53089844 40.45043945 25.60742188 C40.46505996 27.22784772 40.47779692 28.84829211 40.48828125 30.46875 C40.526651 31.70286621 40.526651 31.70286621 40.5657959 32.96191406 C40.57037843 39.11350035 38.97496211 43.27151006 35 48 C30.66414592 51.8313008 26.64783809 54.13107459 20.80395508 54.11352539 C19.96331009 54.11344986 19.1226651 54.11337433 18.25654602 54.11329651 C17.35333115 54.10813522 16.45011627 54.10297394 15.51953125 54.09765625 C14.59154221 54.0962413 13.66355316 54.09482635 12.70744324 54.09336853 C9.74242942 54.08776937 6.77749101 54.07521704 3.8125 54.0625 C1.80273547 54.05748489 -0.20703025 54.052922 -2.21679688 54.04882812 C-7.14456032 54.03780021 -12.07226737 54.02053617 -17 54 C-14 52 -14 52 -11.1875 50.8125 C-6.3600792 48.06749602 -2.76980875 44.30942626 -1 39 C-0.84566845 36.05301975 -0.74236528 33.12484766 -0.68359375 30.17578125 C-0.66494263 29.41213257 -0.6462915 28.64848389 -0.6270752 27.86169434 C-0.55883363 25.01207935 -0.49864909 22.16227601 -0.4375 19.3125 C-0.293125 12.939375 -0.14875 6.56625 0 0 Z " fill="#7A6E79" transform="translate(472,303)"/>
<path d="M0 0 C5.92903394 3.63293646 10.27807257 8.4741566 14.64453125 13.828125 C13.93941406 14.36953125 13.23429687 14.9109375 12.5078125 15.46875 C9.42017832 18.01299426 6.63309077 20.72844896 3.83203125 23.578125 C3.32994141 24.08472656 2.82785156 24.59132813 2.31054688 25.11328125 C1.08622067 26.34926771 -0.13495497 27.5883737 -1.35546875 28.828125 C-2.10570312 28.50585938 -2.8559375 28.18359375 -3.62890625 27.8515625 C-7.09496198 26.55055018 -9.68237057 26.42000298 -13.35546875 26.828125 C-15.54094559 28.26961475 -15.54094559 28.26961475 -16.35546875 30.828125 C-16.58112639 34.73952414 -16.05666829 36.96770111 -13.56640625 40.0234375 C-8.88083043 44.93174915 -8.88083043 44.93174915 -2.73046875 47.328125 C4.92398586 46.19413172 10.68189086 37.87035758 15.859375 32.55078125 C17.64453125 30.828125 17.64453125 30.828125 18.64453125 30.828125 C19.48478359 40.28096381 15.61881478 48.64648476 9.640625 55.8203125 C4.32912142 61.16299907 -2.07017599 64.97106645 -9.48046875 66.453125 C-17.03567176 65.23454387 -23.20876182 59.68698969 -27.85546875 53.765625 C-34.1453174 44.52117886 -35.34447007 34.84676325 -34.35546875 23.828125 C-31.72869944 13.23135319 -25.05498944 5.06463244 -16.41796875 -1.421875 C-10.77430822 -4.5684397 -5.47981907 -2.72627814 0 0 Z " fill="#24F0A8" transform="translate(411.35546875,73.171875)"/>
<path d="M0 0 C0.56170898 0.16298584 1.12341797 0.32597168 1.70214844 0.49389648 C4.13553181 1.02985098 6.27622228 1.11361396 8.765625 1.09765625 C9.65507813 1.09443359 10.54453125 1.09121094 11.4609375 1.08789062 C12.38132812 1.07951172 13.30171875 1.07113281 14.25 1.0625 C15.65378906 1.05573242 15.65378906 1.05573242 17.0859375 1.04882812 C19.39069375 1.03706916 21.69530273 1.01976857 24 1 C24.15668893 8.98205767 23.68529844 16.78550509 22.90625 24.7265625 C22.67825034 27.16535196 22.45039018 29.60415446 22.22265625 32.04296875 C21.86321865 35.82757774 21.50126153 39.61192246 21.13623047 43.39599609 C19.42721593 60.61942779 19.42721593 60.61942779 18.53125 77.8984375 C18.49580078 79.15060059 18.46035156 80.40276367 18.42382812 81.69287109 C19.19414438 86.11435582 20.91281136 87.80604101 24 91 C20.29208456 91.14592789 16.58491274 91.23427895 12.875 91.3125 C11.82828125 91.35439453 10.7815625 91.39628906 9.703125 91.43945312 C8.68476562 91.45556641 7.66640625 91.47167969 6.6171875 91.48828125 C5.68503418 91.51446533 4.75288086 91.54064941 3.79248047 91.56762695 C-0.29413425 90.73694159 -2.20242001 89.04887032 -5 86 C-5.65405273 82.68945312 -5.65405273 82.68945312 -5.49609375 78.78125 C-5.47252304 78.05256714 -5.44895233 77.32388428 -5.42466736 76.57312012 C-5.32531923 74.04473217 -5.16876039 71.52468756 -5 69 C-4.93951477 68.05125 -4.87902954 67.1025 -4.81671143 66.125 C-4.31846194 58.57593204 -3.69810223 51.03853809 -3.0625 43.5 C-2.69632858 39.07315153 -2.33390489 34.64600266 -1.97265625 30.21875 C-1.88601715 29.16341064 -1.79937805 28.10807129 -1.71011353 27.02075195 C-0.49219577 13.52936535 -0.49219577 13.52936535 0 0 Z " fill="#FCD230" transform="translate(109,382)"/>
<path d="M0 0 C3.76495332 0.72094851 4.69905119 1.4438155 6.9375 4.5625 C7.62451291 8.65806116 7.44421259 12.80440481 7.42578125 16.9453125 C7.52534978 22.97373443 8.49243341 27.5278093 11.9375 32.5625 C17.239724 37.48599371 20.80321974 37.92076982 27.88671875 37.8359375 C32.41801768 37.42980315 34.39309207 36.44233145 37.9375 33.5625 C42.74155831 26.91674122 42.44309893 21.0986819 42.33789062 13.125 C42.42163956 6.24773462 42.42163956 6.24773462 45.28125 2.44921875 C47.9375 0.5625 47.9375 0.5625 51 0 C54.62900496 0.69491584 55.63808659 1.71771484 57.9375 4.5625 C58.47094727 7.02929688 58.47094727 7.02929688 58.50390625 9.78125 C58.51744141 10.79058594 58.53097656 11.79992187 58.54492188 12.83984375 C58.53009766 13.90332031 58.51527344 14.96679688 58.5 16.0625 C58.48356445 17.68865234 58.48356445 17.68865234 58.46679688 19.34765625 C58.18341942 29.81373023 56.37255498 37.21201294 49.0625 45.0625 C43.00572682 50.51925639 37.03774814 53.45732971 28.9375 54.5625 C28.10347656 54.68238281 27.26945312 54.80226563 26.41015625 54.92578125 C17.09945136 55.62305871 8.67172019 51.5264064 1.6328125 45.6328125 C-6.37046341 37.07995542 -8.26819392 27.41463706 -8.4375 16.125 C-8.47488281 15.18333984 -8.51226562 14.24167969 -8.55078125 13.27148438 C-8.61062607 8.56036732 -8.62001041 6.30958263 -5.73046875 2.4375 C-3.0625 0.5625 -3.0625 0.5625 0 0 Z " fill="#E01058" transform="translate(168.0625,321.4375)"/>
<path d="M0 0 C0.92904144 -0.0087616 1.85808289 -0.01752319 2.8152771 -0.02655029 C5.88123504 -0.04852747 8.94574657 -0.03399718 12.01171875 -0.01708984 C14.14494096 -0.02045845 16.27816131 -0.02531144 18.41137695 -0.03158569 C22.88023162 -0.03895477 27.3485863 -0.02825001 31.81738281 -0.00488281 C37.54435524 0.02360453 43.27015612 0.0072008 48.99708557 -0.02274513 C53.4014976 -0.04081689 57.80563208 -0.03506053 62.21005249 -0.02210617 C64.32156513 -0.01877185 66.43310301 -0.02286014 68.54458618 -0.03450394 C71.49654843 -0.04721026 74.44661629 -0.02783801 77.3984375 0 C78.70619644 -0.01518173 78.70619644 -0.01518173 80.04037476 -0.03067017 C84.41150628 0.04565957 86.17477695 0.24135726 89.74145508 2.99990845 C91.69921875 5.64697266 91.69921875 5.64697266 92.32421875 8.64697266 C91.46190527 12.78607734 90.03630525 14.06599293 86.69921875 16.64697266 C83.59760607 17.37411424 80.57302918 17.33079905 77.3984375 17.29394531 C76.46939606 17.30270691 75.54035461 17.31146851 74.5831604 17.32049561 C71.51720246 17.34247278 68.45269093 17.32794249 65.38671875 17.31103516 C63.25349654 17.31440376 61.12027619 17.31925675 58.98706055 17.32553101 C54.51820588 17.33290008 50.0498512 17.32219532 45.58105469 17.29882812 C39.85408226 17.27034079 34.12828138 17.28674451 28.40135193 17.31669044 C23.9969399 17.3347622 19.59280542 17.32900584 15.18838501 17.31605148 C13.07687237 17.31271716 10.96533449 17.31680545 8.85385132 17.32844925 C5.90188907 17.34115557 2.95182121 17.32178332 0 17.29394531 C-1.30775894 17.30912704 -1.30775894 17.30912704 -2.64193726 17.32461548 C-7.01306878 17.24828574 -8.77633945 17.05258805 -12.34301758 14.29403687 C-14.30078125 11.64697266 -14.30078125 11.64697266 -14.92578125 8.64697266 C-13.20522638 0.38830926 -7.12502211 -0.08271416 0 0 Z " fill="#CFCFCF" transform="translate(204.30078125,120.35302734375)"/>
<path d="M0 0 C0.92904144 -0.0087616 1.85808289 -0.01752319 2.8152771 -0.02655029 C5.88123504 -0.04852747 8.94574657 -0.03399718 12.01171875 -0.01708984 C14.14494096 -0.02045845 16.27816131 -0.02531144 18.41137695 -0.03158569 C22.88023162 -0.03895477 27.3485863 -0.02825001 31.81738281 -0.00488281 C37.54435524 0.02360453 43.27015612 0.0072008 48.99708557 -0.02274513 C53.4014976 -0.04081689 57.80563208 -0.03506053 62.21005249 -0.02210617 C64.32156513 -0.01877185 66.43310301 -0.02286014 68.54458618 -0.03450394 C71.49654843 -0.04721026 74.44661629 -0.02783801 77.3984375 0 C78.70619644 -0.01518173 78.70619644 -0.01518173 80.04037476 -0.03067017 C84.40982326 0.04563018 86.17648696 0.2438686 89.74536133 2.9960022 C91.69921875 5.64697266 91.69921875 5.64697266 92.26171875 8.70947266 C91.5810036 12.26431846 90.49849416 13.42401866 87.69921875 15.64697266 C84.33592712 17.32861847 80.53125466 16.82179249 76.83081055 16.83984375 C75.91196075 16.84802124 74.99311096 16.85619873 74.04641724 16.86462402 C70.99709734 16.88949413 67.94782403 16.90599763 64.8984375 16.92041016 C63.33840972 16.92839567 63.33840972 16.92839567 61.74686623 16.93654251 C56.24279136 16.96328033 50.73873922 16.98265376 45.23461914 16.99707031 C39.54469268 17.01372534 33.85534463 17.05850879 28.16563702 17.10944176 C23.79475729 17.14306881 19.42401566 17.15464275 15.05301857 17.16029739 C12.95541777 17.16702175 10.85782644 17.1822744 8.76035118 17.2061882 C5.82502225 17.23774661 2.89126403 17.23789048 -0.04418945 17.23046875 C-0.91139114 17.24687408 -1.77859283 17.26327942 -2.67207336 17.28018188 C-7.03922146 17.23495994 -8.77387298 17.05417822 -12.34025574 14.29800415 C-14.30078125 11.64697266 -14.30078125 11.64697266 -14.92578125 8.64697266 C-13.20522638 0.38830926 -7.12502211 -0.08271416 0 0 Z " fill="#CFCFCF" transform="translate(204.30078125,96.35302734375)"/>
<path d="M0 0 C1.61165039 0.03383789 1.61165039 0.03383789 3.25585938 0.06835938 C5.9011685 0.12714402 8.54361413 0.20926043 11.1875 0.3125 C10.548125 1.09625 9.90875 1.88 9.25 2.6875 C6.62972874 6.02239069 6.04543206 7.78324464 5.72265625 11.92651367 C5.64587646 12.88478561 5.56909668 13.84305756 5.48999023 14.83036804 C5.41079346 15.86990128 5.33159668 16.90943451 5.25 17.98046875 C5.16500244 19.04864334 5.08000488 20.11681793 4.99243164 21.21736145 C4.72019533 24.64461094 4.45348054 28.07225977 4.1875 31.5 C3.92085521 34.90982851 3.65299042 38.31954911 3.38256836 41.7290802 C3.21435531 43.85250091 3.04840195 45.97610218 2.88500977 48.09989929 C2.03907626 58.83146008 2.03907626 58.83146008 1.1875 63.3125 C-3.48018254 67.11579689 -11.08684566 66.58515021 -16.8125 66.3125 C-18.49687744 65.69193989 -20.16853632 65.03333676 -21.8125 64.3125 C-22.0478432 55.57152067 -21.41009258 46.94036737 -20.640625 38.24316406 C-20.43852149 35.94909487 -20.2460997 33.65435817 -20.0546875 31.359375 C-19.68449619 27.00561089 -19.25932541 22.65898701 -18.8125 18.3125 C-18.6897168 17.05147461 -18.56693359 15.79044922 -18.44042969 14.49121094 C-17.8719928 9.76399922 -17.30621473 6.17420087 -14.92578125 2.01953125 C-10.06065427 -0.64804779 -5.4440731 -0.21616662 0 0 Z " fill="#FCD230" transform="translate(133.8125,302.6875)"/>
<path d="M0 0 C3.20019358 2.12729195 5.77094605 4.74805777 8.4375 7.5 C9.53481445 8.54414063 9.53481445 8.54414063 10.65429688 9.609375 C16.46484375 15.46875 16.46484375 15.46875 16.9453125 20 C16.36277839 25.49381761 12.2468001 28.87529153 8.4375 32.5 C7.73302734 33.22703125 7.02855469 33.9540625 6.30273438 34.703125 C2.84737361 38.09160781 1.02079642 39.8600521 -3.875 40.53125 C-8.90990991 39.67531532 -8.90990991 39.67531532 -11 37 C-11.21023586 34.31974507 -11.06785996 31.69268339 -11 29 C-11.97348389 28.99589111 -12.94696777 28.99178223 -13.94995117 28.98754883 C-17.57532079 28.96571215 -21.19961202 28.91137784 -24.82446289 28.84741211 C-26.39076369 28.82427118 -27.95721922 28.80984552 -29.52368164 28.80444336 C-31.78108703 28.79512412 -34.03607221 28.75407767 -36.29296875 28.70703125 C-37.33701118 28.71293022 -37.33701118 28.71293022 -38.40214539 28.71894836 C-42.24870844 28.60451918 -43.9033672 28.07739123 -46.94262695 25.64331055 C-49 23 -49 23 -49.625 20 C-48.77360366 15.91329755 -47.24704825 14.58540795 -44 12 C-41.21162027 11.55996858 -39.05947947 11.40914568 -36.29296875 11.51171875 C-35.20487663 11.52233086 -35.20487663 11.52233086 -34.09480286 11.53315735 C-31.79129297 11.56101594 -29.49026749 11.62372809 -27.1875 11.6875 C-25.62047797 11.71259437 -24.0534176 11.73540556 -22.48632812 11.75585938 C-18.65660344 11.81081319 -14.82872203 11.89701774 -11 12 C-11.01812744 11.37424072 -11.03625488 10.74848145 -11.05493164 10.10375977 C-11.06903076 9.28705811 -11.08312988 8.47035645 -11.09765625 7.62890625 C-11.11578369 6.81752197 -11.13391113 6.0061377 -11.15258789 5.17016602 C-11 3 -11 3 -9.4375 0.9375 C-5.9009516 -0.42271092 -3.79970394 -0.51709681 0 0 Z " fill="#CECECE" transform="translate(305,237)"/>
<path d="M0 0 C2.31 0 4.62 0 7 0 C7 18.81 7 37.62 7 57 C-2.9 57 -12.8 57 -23 57 C-24.08387463 53.74837612 -24.30312015 51.00069641 -24.53515625 47.58203125 C-24.62216797 46.32841797 -24.70917969 45.07480469 -24.79882812 43.78320312 C-24.88583984 42.47287109 -24.97285156 41.16253906 -25.0625 39.8125 C-25.1539375 38.47718888 -25.24573025 37.14190204 -25.33789062 35.80664062 C-25.5620946 32.53798273 -25.78264926 29.2691196 -26 26 C-24.76914673 25.71213623 -24.76914673 25.71213623 -23.51342773 25.41845703 C-22.43520752 25.15919434 -21.3569873 24.89993164 -20.24609375 24.6328125 C-19.1780249 24.37902832 -18.10995605 24.12524414 -17.00952148 23.86376953 C-10.88241145 22.1052139 -7.45435908 19.16958703 -4.1875 13.75 C-1.89907562 9.2710115 -0.86246001 4.93954372 0 0 Z " fill="#796D78" transform="translate(281,381)"/>
<path d="M0 0 C4.54132797 -0.1455841 9.08205341 -0.23417333 13.625 -0.3125 C14.91019531 -0.35439453 16.19539063 -0.39628906 17.51953125 -0.43945312 C28.18381746 -0.57759155 28.18381746 -0.57759155 31.8359375 2.39453125 C35.16951393 6.408061 35.17235014 9.1995541 35.203125 14.23828125 C35.20882507 14.95606247 35.21452515 15.67384369 35.22039795 16.41337585 C35.22984952 17.93401617 35.23638256 19.45467699 35.24023438 20.9753418 C35.24991925 23.29317389 35.2809308 25.61011125 35.3125 27.92773438 C35.31903237 29.40624474 35.32428192 30.88476145 35.328125 32.36328125 C35.3404718 33.05303543 35.3528186 33.74278961 35.36553955 34.45344543 C35.34550609 38.81815263 34.68551952 41.54005342 32 45 C28.41331687 47.39112209 26.83603431 47.23381027 22.58203125 47.1953125 C21.32841797 47.18886719 20.07480469 47.18242187 18.78320312 47.17578125 C17.47287109 47.15902344 16.16253906 47.14226562 14.8125 47.125 C13.47722013 47.11496639 12.14193311 47.1058412 10.80664062 47.09765625 C7.53757985 47.07405292 4.26887972 47.04112594 1 47 C1.804375 46.21625 2.60875 45.4325 3.4375 44.625 C7.32626607 40.64138597 7.18367443 37.83649965 7.23828125 32.5078125 C7.246353 31.76546356 7.25442474 31.02311462 7.26274109 30.25827026 C7.27657717 28.68636407 7.28730146 27.11442788 7.29516602 25.54248047 C7.31238512 23.1410217 7.3562728 20.74093782 7.40039062 18.33984375 C7.41051729 16.81251012 7.41903348 15.28516479 7.42578125 13.7578125 C7.44328934 13.04102325 7.46079742 12.32423401 7.47883606 11.58572388 C7.46408177 8.18685382 7.2785893 6.35747301 5.16088867 3.64013672 C3.48403902 2.36739059 1.75160075 1.16773383 0 0 Z " fill="#26D192" transform="translate(279,173)"/>
<path d="M0 0 C4.10403363 -0.08694042 8.20783129 -0.14037149 12.3125 -0.1875 C13.47974609 -0.21263672 14.64699219 -0.23777344 15.84960938 -0.26367188 C16.96787109 -0.27333984 18.08613281 -0.28300781 19.23828125 -0.29296875 C20.26993408 -0.3086792 21.30158691 -0.32438965 22.36450195 -0.34057617 C25 0 25 0 26.86865234 1.21679688 C30.89291881 7.55974946 25.70054113 21.00569212 24.1875 27.8125 C23.93935547 29.00037109 23.69121094 30.18824219 23.43554688 31.41210938 C21.03289809 42.31267626 21.03289809 42.31267626 17 47 C14.28598706 48.35700647 12.15153684 48.1123861 9.1171875 48.09765625 C7.95058594 48.09443359 6.78398437 48.09121094 5.58203125 48.08789062 C4.35871094 48.07951172 3.13539063 48.07113281 1.875 48.0625 C0.64394531 48.05798828 -0.58710938 48.05347656 -1.85546875 48.04882812 C-4.90369392 48.0370133 -7.95182314 48.02054028 -11 48 C-10.21625 47.278125 -9.4325 46.55625 -8.625 45.8125 C-3.21648912 40.01766691 -2.6870205 32.1924827 -1.23071289 24.65283203 C-0.81339625 22.50461364 -0.38073724 20.35985288 0.05273438 18.21484375 C0.32125596 16.84132994 0.58886504 15.46763736 0.85546875 14.09375 C1.09934326 12.85302734 1.34321777 11.61230469 1.59448242 10.33398438 C2.07633175 6.37243449 1.78021817 3.56043635 0 0 Z " fill="#FA1567" transform="translate(442,170)"/>
<path d="M0 0 C0.6461879 -0.00700928 1.29237579 -0.01401855 1.95814514 -0.02124023 C4.08256704 -0.03876735 6.20564399 -0.02721823 8.33007812 -0.01367188 C9.81311294 -0.01636836 11.29614602 -0.02025208 12.7791748 -0.02526855 C15.8827401 -0.03115637 18.98584395 -0.02262444 22.08935547 -0.00390625 C26.06080609 0.01888368 30.03117539 0.00575664 34.00258636 -0.01819611 C37.06361997 -0.03267395 40.12439864 -0.02803917 43.18544006 -0.01768494 C44.64942046 -0.0150231 46.11342426 -0.01826832 47.57737732 -0.02760315 C49.62642413 -0.03780252 51.67373802 -0.02222486 53.72265625 0 C54.88671997 0.00318237 56.05078369 0.00636475 57.25012207 0.00964355 C61.02269309 0.62555237 62.68017166 1.83672591 65.36132812 4.51757812 C66.42382812 7.45507812 66.42382812 7.45507812 66.36132812 10.51757812 C64.59093363 13.26474199 63.29840969 15.04903734 60.36132812 16.51757812 C58.23375496 16.64013936 56.10234581 16.69785229 53.97143555 16.72631836 C52.98818047 16.74099403 52.98818047 16.74099403 51.98506165 16.75596619 C49.81232739 16.78591874 47.63965468 16.8073051 45.46679688 16.82617188 C44.35358787 16.83602962 44.35358787 16.83602962 43.21788979 16.8460865 C39.28940359 16.87867983 35.36094452 16.90313043 31.43237305 16.92260742 C28.18164608 16.94042163 24.93178647 16.97524101 21.68139648 17.02514648 C17.75621404 17.08534259 13.83183581 17.1160817 9.90621376 17.12578011 C8.41143754 17.1343374 6.91668297 17.15316287 5.42217064 17.18252373 C-6.21358004 17.39880427 -6.21358004 17.39880427 -9.68930054 15.24954224 C-11.96222141 12.68692807 -12.62747516 10.79749607 -12.76367188 7.39257812 C-10.37561199 1.28975843 -6.1851098 0.01690915 0 0 Z " fill="#0B9FD9" transform="translate(45.638671875,224.482421875)"/>
<path d="M0 0 C0.64574982 -0.0065712 1.29149963 -0.0131424 1.95681763 -0.01991272 C4.09710809 -0.03964753 6.23732837 -0.051309 8.37768555 -0.0612793 C9.47434571 -0.06739259 9.47434571 -0.06739259 10.59316063 -0.07362938 C14.46330864 -0.09449155 18.33342119 -0.10879222 22.20361328 -0.11816406 C26.19856905 -0.12922508 30.19296727 -0.16362023 34.18772602 -0.20333576 C37.26156134 -0.22949875 40.3352638 -0.2378556 43.40920067 -0.24144554 C44.88159129 -0.2463129 46.35397592 -0.25793129 47.82625771 -0.27648354 C49.88982749 -0.30086884 51.95195483 -0.29991224 54.015625 -0.29296875 C55.7752935 -0.30176811 55.7752935 -0.30176811 57.57051086 -0.31074524 C61.36817418 0.28078044 63.01043297 1.47838166 65.7019043 4.17700195 C66.7644043 7.11450195 66.7644043 7.11450195 66.7019043 10.17700195 C64.9315098 12.92416582 63.63898586 14.70846117 60.7019043 16.17700195 C58.60471026 16.28921887 56.5039285 16.33634476 54.40380859 16.35400391 C53.43518387 16.3638607 53.43518387 16.3638607 52.44699097 16.37391663 C50.3067005 16.39365143 48.16648023 16.40531291 46.02612305 16.4152832 C44.92946288 16.42139649 44.92946288 16.42139649 43.81064796 16.42763329 C39.94049995 16.44849546 36.0703874 16.46279613 32.20019531 16.47216797 C28.20523955 16.48322899 24.21084133 16.51762414 20.21608257 16.55733967 C17.14224725 16.58350265 14.0685448 16.5918595 10.99460793 16.59544945 C9.5222173 16.6003168 8.04983267 16.6119352 6.57755089 16.63048744 C4.51398111 16.65487274 2.45185376 16.65391615 0.38818359 16.64697266 C-0.78492874 16.6528389 -1.95804108 16.65870514 -3.16670227 16.66474915 C-6.96436559 16.07322347 -8.60662438 14.87562225 -11.2980957 12.17700195 C-12.3605957 9.23950195 -12.3605957 9.23950195 -12.2980957 6.17700195 C-8.70696128 0.60455198 -6.39842271 0.05380202 0 0 Z " fill="#0B9FD9" transform="translate(45.298095703125,195.822998046875)"/>
<path d="M0 0 C0.64574982 -0.0065712 1.29149963 -0.0131424 1.95681763 -0.01991272 C4.09710809 -0.03964753 6.23732837 -0.051309 8.37768555 -0.0612793 C9.47434571 -0.06739259 9.47434571 -0.06739259 10.59316063 -0.07362938 C14.46330864 -0.09449155 18.33342119 -0.10879222 22.20361328 -0.11816406 C26.19856905 -0.12922508 30.19296727 -0.16362023 34.18772602 -0.20333576 C37.26156134 -0.22949875 40.3352638 -0.2378556 43.40920067 -0.24144554 C44.88159129 -0.2463129 46.35397592 -0.25793129 47.82625771 -0.27648354 C49.88982749 -0.30086884 51.95195483 -0.29991224 54.015625 -0.29296875 C55.7752935 -0.30176811 55.7752935 -0.30176811 57.57051086 -0.31074524 C61.36817418 0.28078044 63.01043297 1.47838166 65.7019043 4.17700195 C66.7644043 7.11450195 66.7644043 7.11450195 66.7019043 10.17700195 C64.9315098 12.92416582 63.63898586 14.70846117 60.7019043 16.17700195 C58.60471026 16.28921887 56.5039285 16.33634476 54.40380859 16.35400391 C53.43518387 16.3638607 53.43518387 16.3638607 52.44699097 16.37391663 C50.3067005 16.39365143 48.16648023 16.40531291 46.02612305 16.4152832 C44.92946288 16.42139649 44.92946288 16.42139649 43.81064796 16.42763329 C39.94049995 16.44849546 36.0703874 16.46279613 32.20019531 16.47216797 C28.20523955 16.48322899 24.21084133 16.51762414 20.21608257 16.55733967 C17.14224725 16.58350265 14.0685448 16.5918595 10.99460793 16.59544945 C9.5222173 16.6003168 8.04983267 16.6119352 6.57755089 16.63048744 C4.51398111 16.65487274 2.45185376 16.65391615 0.38818359 16.64697266 C-0.78492874 16.6528389 -1.95804108 16.65870514 -3.16670227 16.66474915 C-6.96436559 16.07322347 -8.60662438 14.87562225 -11.2980957 12.17700195 C-12.3605957 9.23950195 -12.3605957 9.23950195 -12.2980957 6.17700195 C-8.70696128 0.60455198 -6.39842271 0.05380202 0 0 Z " fill="#0B9FD9" transform="translate(45.298095703125,166.822998046875)"/>
<path d="M0 0 C4.01993847 -0.12426099 8.03912279 -0.21464411 12.06054688 -0.2746582 C13.42630503 -0.2996928 14.79193067 -0.33373218 16.15722656 -0.37719727 C28.96618624 -0.7745555 28.96618624 -0.7745555 32.8671875 2.26953125 C36.5411971 6.97307101 36.18254651 11.6369661 36.1875 17.4375 C36.19974609 18.18837891 36.21199219 18.93925781 36.22460938 19.71289062 C36.23559968 23.87821661 36.16282991 27.31734366 34 31 C31.20477493 33.76047604 29.61297385 34.91619762 25.6784668 35.45410156 C24.44781494 35.4331543 23.21716309 35.41220703 21.94921875 35.390625 C21.29041214 35.38496521 20.63160553 35.37930542 19.95283508 35.37347412 C17.86362784 35.35121239 15.77618227 35.3010433 13.6875 35.25 C12.26499886 35.22992144 10.84247063 35.21167304 9.41992188 35.1953125 C5.9460492 35.15138359 2.47319675 35.08243096 -1 35 C-0.20174805 34.37488525 0.59650391 33.74977051 1.41894531 33.10571289 C4.53402784 30.56892241 4.53402784 30.56892241 6 27 C6.27607907 24.0154639 6.27887078 21.05784344 6.25 18.0625 C6.25773437 17.26392578 6.26546875 16.46535156 6.2734375 15.64257812 C6.25501171 10.08259524 5.96596897 6.0221197 1.92285156 1.86352539 C1.28831055 1.24856201 0.65376953 0.63359863 0 0 Z " fill="#7A6E79" transform="translate(323,438)"/>
<path d="M0 0 C4.46567763 -0.09917794 8.93076507 -0.17161225 13.3972168 -0.21972656 C14.9152341 -0.23979203 16.43317459 -0.26705134 17.95092773 -0.30175781 C20.13805122 -0.35050393 22.32414952 -0.37301805 24.51171875 -0.390625 C25.82615967 -0.41157227 27.14060059 -0.43251953 28.49487305 -0.45410156 C32.54786688 0.07097809 34.15487289 1.12692403 37 4 C39.85667603 10.80339948 39.46826548 20.08745123 40 27 C25.48 27 10.96 27 -4 27 C-4 26.67 -4 26.34 -4 26 C-0.7 26 2.6 26 6 26 C6.99347627 13.04814194 6.99347627 13.04814194 1.921875 1.7890625 C1.28765625 1.19867188 0.6534375 0.60828125 0 0 Z " fill="#FCD331" transform="translate(151,276)"/>
<path d="M0 0 C0.80610718 -0.0038269 1.61221436 -0.00765381 2.44274902 -0.01159668 C4.14397432 -0.0143139 5.84524153 -0.0069659 7.54638672 0.00976562 C10.14775896 0.0311801 12.74636972 0.00995981 15.34765625 -0.015625 C17.00261025 -0.01298169 18.65756254 -0.00785663 20.3125 0 C21.47670471 -0.01214539 21.47670471 -0.01214539 22.66442871 -0.02453613 C26.13808832 0.03566294 28.24358617 0.22988261 31.08496094 2.30493164 C32.62330344 4.48456888 33.45206632 6.12209662 34.140625 8.68359375 C34.35332031 9.46025391 34.56601562 10.23691406 34.78515625 11.03710938 C34.99011719 11.83955078 35.19507813 12.64199219 35.40625 13.46875 C35.62667969 14.26732422 35.84710938 15.06589844 36.07421875 15.88867188 C37.12915182 19.84303278 37.95658145 23.40169249 37.65625 27.53125 C36.82480469 27.55703125 35.99335938 27.5828125 35.13671875 27.609375 C34.05003906 27.66609375 32.96335937 27.7228125 31.84375 27.78125 C30.22533203 27.85085937 30.22533203 27.85085937 28.57421875 27.921875 C25.53880768 28.26079022 25.53880768 28.26079022 23.76953125 30.578125 C23.40214844 31.22265625 23.03476562 31.8671875 22.65625 32.53125 C22.15078964 30.44923472 21.65208165 28.36557933 21.15625 26.28125 C20.8778125 25.12109375 20.599375 23.9609375 20.3125 22.765625 C19.65625 19.53125 19.65625 19.53125 19.65625 15.53125 C18.86452393 15.55743408 18.07279785 15.58361816 17.25708008 15.6105957 C13.66117283 15.71469122 10.06558269 15.779619 6.46875 15.84375 C4.59993164 15.9065918 4.59993164 15.9065918 2.69335938 15.97070312 C-7.61340387 16.10886349 -7.61340387 16.10886349 -10.671875 13.203125 C-12.71791954 9.93327812 -13.06888704 8.31807675 -12.34375 4.53125 C-9.04793526 -0.15093326 -5.31720542 -0.05547092 0 0 Z " fill="#B5ADB6" transform="translate(344.34375,142.46875)"/>
<path d="M0 0 C2 1.0625 2 1.0625 3 3 C3.6673358 6.4034126 3.77674793 8.75992875 1.88671875 11.77734375 C0.02178546 13.96621086 -1.95770261 15.97422605 -4 18 C-5.09733922 19.12012959 -6.19361287 20.24130364 -7.2890625 21.36328125 C-17.4615225 31.70695667 -17.4615225 31.70695667 -21.625 32.5 C-26.76990782 31.73779143 -29.4369537 28.60843543 -33 25 C-33.845625 24.175 -34.69125 23.35 -35.5625 22.5 C-37 20 -37 20 -36.9375 16.375 C-35.57142857 11.45714286 -35.57142857 11.45714286 -33 10 C-28.35633186 9.57003073 -25.22865554 10.17630148 -21 12 C-20.22914063 11.21753906 -19.45828125 10.43507813 -18.6640625 9.62890625 C-17.65117427 8.60663943 -16.63814616 7.58451119 -15.625 6.5625 C-15.11710937 6.04623047 -14.60921875 5.52996094 -14.0859375 4.99804688 C-9.47786229 0.35965538 -6.5664288 -0.71169883 0 0 Z " fill="#179A8C" transform="translate(431,89)"/>
<path d="M0 0 C1.13759766 -0.00515625 2.27519531 -0.0103125 3.44726562 -0.015625 C4.63126953 -0.00015625 5.81527344 0.0153125 7.03515625 0.03125 C8.21529297 0.01578125 9.39542969 0.0003125 10.61132812 -0.015625 C12.3196582 -0.00789063 12.3196582 -0.00789063 14.0625 0 C15.61892212 0.00676758 15.61892212 0.00676758 17.20678711 0.01367188 C20.82264715 0.6610516 22.51591237 1.95856077 25.09765625 4.53125 C25.81934545 8.3000714 25.475204 9.92454863 23.44726562 13.18334961 C21.09765625 15.53125 21.09765625 15.53125 18.22851562 16.16235352 C17.14376953 16.16162842 16.05902344 16.16090332 14.94140625 16.16015625 C13.16056641 16.16305664 13.16056641 16.16305664 11.34375 16.16601562 C10.10753906 16.14216797 8.87132812 16.11832031 7.59765625 16.09375 C6.36144531 16.10470703 5.12523437 16.11566406 3.8515625 16.12695312 C-5.22636661 16.05302862 -5.22636661 16.05302862 -8.25585938 13.71459961 C-9.90234375 11.53125 -9.90234375 11.53125 -10.40234375 8.03125 C-9.48892743 1.63733574 -6.13137658 0.02668924 0 0 Z " fill="#CECECE" transform="translate(199.90234375,66.46875)"/>
<path d="M0 0 C2 3 2 3 1.8125 6.0625 C1 9 1 9 -2 11 C-4.83079592 11.35384949 -6.36830089 11.3920891 -8.8125 9.875 C-10.55198782 7.12844028 -10.39769128 5.18153026 -10 2 C-7.65569181 -2.27491494 -4.20074737 -1.06928115 0 0 Z " fill="#EFECEF" transform="translate(453,251)"/>
<path d="M0 0 C1.670625 0.37125 1.670625 0.37125 3.375 0.75 C4.77435013 3.54870027 4.62765405 5.65498792 4.375 8.75 C3.3125 10.6875 3.3125 10.6875 1.375 11.75 C-2.1875 11.625 -2.1875 11.625 -5.625 10.75 C-7.625 7.75 -7.625 7.75 -7.4375 4.6875 C-6.18726059 0.16740366 -4.54840784 -0.3136833 0 0 Z " fill="#EFEBEF" transform="translate(398.625,250.25)"/>
<path d="M0 0 C0.46059814 0.49991455 0.92119629 0.9998291 1.39575195 1.51489258 C3.51803001 3.47955814 4.80867414 3.42065841 7.66796875 3.51171875 C8.56064453 3.54716797 9.45332031 3.58261719 10.37304688 3.61914062 C11.30181641 3.64169922 12.23058594 3.66425781 13.1875 3.6875 C14.59805664 3.73874023 14.59805664 3.73874023 16.03710938 3.79101562 C18.35795393 3.87348218 20.67842148 3.94263403 23 4 C23 4.33 23 4.66 23 5 C8.48 5 -6.04 5 -21 5 C-21 4.67 -21 4.34 -21 4 C-17.7 4 -14.4 4 -11 4 C-10.34 2.68 -9.68 1.36 -9 0 C-5.45026831 -1.1832439 -3.60040463 -0.90010116 0 0 Z " fill="#F2AB3B" transform="translate(168,298)"/>
</svg>
