<?xml version="1.0" encoding="UTF-8"?>
<svg version="1.1" xmlns="http://www.w3.org/2000/svg" width="512" height="512">
<path d="M0 0 C10.56 0 21.12 0 32 0 C32.33 5.61 32.66 11.22 33 17 C35.7225 17.86625 35.7225 17.86625 38.5 18.75 C42.38349629 20.02312732 45.93089268 21.38765615 49.5 23.375 C52.69172039 25.33589031 52.69172039 25.33589031 54.921875 24.390625 C57.52691926 22.64739989 59.56674992 20.62246332 61.75 18.375 C62.54921875 17.55773437 63.3484375 16.74046875 64.171875 15.8984375 C65.07679688 14.95871094 65.07679688 14.95871094 66 14 C69.66752005 15.5391801 71.98580573 17.75485452 74.765625 20.5703125 C75.65507812 21.46621094 76.54453125 22.36210938 77.4609375 23.28515625 C78.38132812 24.22230469 79.30171875 25.15945312 80.25 26.125 C81.19484856 27.07988637 82.14015633 28.03431859 83.0859375 28.98828125 C85.39518338 31.32109087 87.69963203 33.65844086 90 36 C89.67 36.99 89.34 37.98 89 39 C89.85111359 39.00364563 90.70222717 39.00729126 91.57913208 39.01104736 C99.61250994 39.04896372 107.64548333 39.10585769 115.67857552 39.18390274 C119.80819377 39.2233589 123.93759939 39.25555631 128.06738281 39.27099609 C132.05526299 39.28617525 136.04255854 39.32064226 140.03017807 39.36830902 C141.54910059 39.38311 143.06810659 39.39104028 144.58710098 39.39188385 C146.72031734 39.39425932 148.85192553 39.4213808 150.98486328 39.45410156 C152.1973172 39.46298401 153.40977112 39.47186646 154.65896606 39.48101807 C159.91265457 40.29710359 162.83826828 42.56499034 166.14565849 46.65038872 C168.30640984 50.55348696 168.55106587 53.59519445 168.48101807 57.93466187 C168.48443577 58.71566336 168.48785347 59.49666486 168.49137473 60.30133307 C168.49794425 62.90878599 168.47599369 65.5152011 168.45410156 68.12255859 C168.45297288 69.99534074 168.45360735 71.86812465 168.45587158 73.74090576 C168.45701885 78.81905627 168.43350736 83.89682855 168.40557575 88.97489119 C168.38056428 94.283992 168.37822029 99.59310156 168.37347412 104.9022522 C168.36104362 114.95318749 168.32822091 125.00394867 168.28807616 135.05480731 C168.24336085 146.49847681 168.221372 157.94215464 168.20129442 169.38588977 C168.15948842 192.9240263 168.08832873 216.46199605 168 240 C175.92 240 183.84 240 192 240 C192.09204469 245.30279683 192.17161406 250.60280125 192.21972656 255.90576172 C192.23979033 257.70794081 192.26704813 259.51005521 192.30175781 261.31201172 C192.35050829 263.90869136 192.37302082 266.50450729 192.390625 269.1015625 C192.41127014 269.9017984 192.43191528 270.7020343 192.45318604 271.52651978 C192.45529096 276.82385322 191.60615545 279.867229 188 284 C182.2848313 289.27117215 176.17863361 288.56036508 168.71484375 288.50793457 C167.34450111 288.51254529 165.97416342 288.51889937 164.60383606 288.52684355 C160.84351843 288.54353679 157.08360703 288.53529076 153.32328796 288.52289867 C149.26595308 288.51385041 145.20868818 288.52781679 141.15136719 288.53881836 C133.2051728 288.55661058 125.25912948 288.55276049 117.31292915 288.5411678 C110.85525395 288.53213651 104.39762111 288.53090815 97.93994141 288.53526306 C97.02106675 288.53587599 96.1021921 288.53648893 95.15547276 288.53712043 C93.28883233 288.53839933 91.42219193 288.53969618 89.55555153 288.5410108 C72.04952232 288.55241865 54.54357688 288.53929967 37.03756142 288.51780933 C22.01458232 288.49993816 6.99172686 288.50304221 -8.03125 288.52148438 C-25.47437069 288.54288745 -42.91741794 288.55132 -60.36054993 288.53903532 C-62.22034708 288.53776112 -64.08014424 288.53650363 -65.93994141 288.53526306 C-66.85501182 288.53464596 -67.77008223 288.53402886 -68.71288204 288.53339306 C-75.1632609 288.52993847 -81.6135932 288.53577084 -88.06396484 288.54518127 C-95.92418314 288.55639639 -103.78424163 288.55337151 -111.6444416 288.5320583 C-115.65534384 288.52154126 -119.66597959 288.51743703 -123.67687988 288.53065491 C-127.34838022 288.54257136 -131.01936698 288.53602917 -134.69082069 288.5147447 C-136.6485512 288.50815762 -138.60631733 288.52122151 -140.56401062 288.53497362 C-151.18618229 288.43984477 -151.18618229 288.43984477 -156 284 C-160.27569724 279.0999124 -160.55050571 275.29877292 -160.390625 269.1015625 C-160.38496521 268.26660248 -160.37930542 267.43164246 -160.37347412 266.57138062 C-160.35120223 263.92198734 -160.30102523 261.27397984 -160.25 258.625 C-160.22992302 256.82163421 -160.21167435 255.01824708 -160.1953125 253.21484375 C-160.15477982 248.80894114 -160.07647846 244.40600924 -160 240 C-152.08 240 -144.16 240 -136 240 C-136 229.44 -136 218.88 -136 208 C-186.16 208 -236.32 208 -288 208 C-288 176.32 -288 144.64 -288 112 C-237.84 112 -187.68 112 -136 112 C-136 91.54 -136 71.08 -136 50 C-131.10388119 42.65582179 -131.10388119 42.65582179 -126 40 C-122.65896606 39.48101807 -122.65896606 39.48101807 -118.98486328 39.45410156 C-118.31099075 39.44376389 -117.63711823 39.43342621 -116.94282532 39.42277527 C-114.73507312 39.39348573 -112.52824319 39.39185116 -110.3203125 39.390625 C-108.78187323 39.37563384 -107.24345001 39.35890472 -105.70504761 39.34051514 C-101.6707686 39.29693383 -97.63670667 39.27686323 -93.60223389 39.26177979 C-89.47948419 39.24217521 -85.35696778 39.20020906 -81.234375 39.16015625 C-73.15631121 39.08495418 -65.07833927 39.03460247 -57 39 C-57 37.68 -57 36.36 -57 35 C-55.07226562 32.61816406 -55.07226562 32.61816406 -52.40625 30.015625 C-51.94013306 29.55516785 -51.47401611 29.09471069 -50.99377441 28.62030029 C-49.5049818 27.15387258 -48.00288278 25.70197017 -46.5 24.25 C-45.48737217 23.25743702 -44.47564185 22.2639575 -43.46484375 21.26953125 C-40.98688309 18.83563843 -38.49679722 16.41458252 -36 14 C-32.36696916 15.69586126 -30.05450954 17.73800488 -27.25 20.625 C-26.45078125 21.44226563 -25.6515625 22.25953125 -24.828125 23.1015625 C-24.22484375 23.72804688 -23.6215625 24.35453125 -23 25 C-18.71543419 23.60638177 -14.51113964 22.07111705 -10.3125 20.4375 C-7.2193688 19.23521025 -4.14828362 18.04942787 -1 17 C-0.67 11.39 -0.34 5.78 0 0 Z " fill="#E1E6F5" transform="translate(304,16)"/>
<path d="M0 0 C36.96 0 73.92 0 112 0 C112 5.28 112 10.56 112 16 C113.78619499 15.96002899 113.78619499 15.96002899 115.60847473 15.91925049 C126.86239853 15.67537889 138.11578254 15.4958192 149.37175465 15.37825394 C155.15805984 15.31577612 160.94222273 15.2311254 166.72729492 15.09472656 C172.31664049 14.96377603 177.90393389 14.89247606 183.49469566 14.86147308 C185.62111396 14.83939819 187.74742705 14.79628622 189.87296486 14.73123932 C207.37150097 14.21732171 207.37150097 14.21732171 212.66195679 18.55358887 C215.53567169 21.4127964 217.76372431 24.62201997 220 28 C221.52489717 29.88866348 223.06414968 31.76593911 224.625 33.625 C225.71167969 34.97464844 225.71167969 34.97464844 226.8203125 36.3515625 C228.97757399 38.97275119 231.21311 41.49154281 233.5 44 C238.20571298 49.17219235 242.61863557 54.55227174 247 60 C248.14275391 61.40958984 248.14275391 61.40958984 249.30859375 62.84765625 C254.50158842 69.28104537 256.13273992 71.77012502 256 80 C257.02152853 79.99631283 258.04305706 79.99262566 259.095541 79.98882675 C283.96771376 79.89997304 308.8398659 79.83427063 333.71216393 79.79275131 C345.74029562 79.77213848 357.76832238 79.74404218 369.79638672 79.69824219 C380.28176654 79.65833545 390.76707036 79.63255789 401.25252402 79.62364602 C406.80295004 79.61843782 412.35315862 79.606223 417.90351486 79.57707977 C423.13196875 79.54985021 428.36011643 79.5415703 433.58863449 79.54756927 C435.50339423 79.54647241 437.41816462 79.53856368 439.33286285 79.5231781 C451.4764437 79.43041711 462.07784118 79.52612053 471.46875 88.296875 C478.06746789 95.63626531 480.33908218 103.15896241 480.125 112.875 C480.11597656 113.65875 480.10695313 114.4425 480.09765625 115.25 C480.07428063 117.16680055 480.03841653 119.08344191 480 121 C472.53128022 122.64076261 465.06252299 124.28135464 457.59375 125.921875 C456.41536812 126.18071409 455.23698624 126.43955318 454.02289581 126.70623589 C440.03902052 129.77779594 426.0548867 132.84817076 412.0700469 135.91533649 C406.39155405 137.1607497 400.71308817 138.40628593 395.03461742 139.65179992 C392.84647006 140.13173675 390.65831578 140.61164202 388.47016144 141.09154701 C370.36545116 145.06242474 352.26259759 149.0416008 334.16236877 153.03285789 C322.30285808 155.64790469 310.44229804 158.25815512 298.58097839 160.86498451 C290.75879778 162.58434723 282.93763976 164.3082305 275.11768937 166.0377087 C269.11315644 167.36521622 263.10696067 168.68505125 257.10012054 170.0020771 C254.63296126 170.54430976 252.16635763 171.08907771 249.70035553 171.636549 C246.33260625 172.38384883 242.96299711 173.12210721 239.59277344 173.8581543 C238.61401497 174.07761593 237.6352565 174.29707756 236.62683868 174.52318954 C224.55788287 177.13351103 224.55788287 177.13351103 219.54595947 174.9125061 C218.80666199 174.40335663 218.0673645 173.89420715 217.30566406 173.36962891 C216.45498352 172.79548248 215.60430298 172.22133606 214.72784424 171.62979126 C213.38529572 170.68769302 213.38529572 170.68769302 212.015625 169.7265625 C211.07821472 169.08762054 210.14080444 168.44867859 209.17498779 167.79037476 C206.18934743 165.75028776 203.21972032 163.68817412 200.25 161.625 C198.23669789 160.24330304 196.22238519 158.86307742 194.20703125 157.484375 C189.77725123 154.45028859 185.35749149 151.40222427 180.94610596 148.34146118 C176.81794982 145.49590121 174.80927948 144.74038443 169.78442383 144.68115234 C168.5033223 144.66128265 167.22222076 144.64141296 165.90229797 144.62094116 C164.50387749 144.60906473 163.10545517 144.59740188 161.70703125 144.5859375 C160.27641174 144.56722739 158.84580329 144.54765409 157.41520691 144.5272522 C153.65221673 144.47590817 149.88919077 144.43629479 146.1260376 144.39910889 C142.28510672 144.35908336 138.444325 144.30798443 134.60351562 144.2578125 C127.06910494 144.16102629 119.53463661 144.07765389 112 144 C112 149.28 112 154.56 112 160 C96.16 160 80.32 160 64 160 C64 165.28 64 170.56 64 176 C42.88 176 21.76 176 0 176 C0 117.92 0 59.84 0 0 Z " fill="#FBE1CA" transform="translate(16,320)"/>
<path d="M0 0 C10.56 0 21.12 0 32 0 C32.495 8.415 32.495 8.415 33 17 C35.7225 17.86625 35.7225 17.86625 38.5 18.75 C42.38349629 20.02312732 45.93089268 21.38765615 49.5 23.375 C52.69172039 25.33589031 52.69172039 25.33589031 54.921875 24.390625 C57.52691926 22.64739989 59.56674992 20.62246332 61.75 18.375 C62.54921875 17.55773437 63.3484375 16.74046875 64.171875 15.8984375 C64.77515625 15.27195312 65.3784375 14.64546875 66 14 C69.66752005 15.5391801 71.98580573 17.75485452 74.765625 20.5703125 C75.65507812 21.46621094 76.54453125 22.36210938 77.4609375 23.28515625 C78.38132812 24.22230469 79.30171875 25.15945312 80.25 26.125 C81.19484856 27.07988637 82.14015633 28.03431859 83.0859375 28.98828125 C85.39518338 31.32109087 87.69963203 33.65844086 90 36 C88.03085944 40.21274097 85.45910587 42.31984084 81.875 45.21875 C79.8441837 47.14802549 78.73426939 48.28618002 78 51 C79.01523981 53.81447124 79.01523981 53.81447124 80.75 56.6875 C83.52287663 61.84707637 85.04023125 66.24138751 86 72 C91.94 72 97.88 72 104 72 C104 82.56 104 93.12 104 104 C98.06 104 92.12 104 86 104 C85.608125 105.60875 85.21625 107.2175 84.8125 108.875 C83.45426767 113.98485464 81.46685829 118.26223255 78.79296875 122.80859375 C77.77486643 124.95118146 77.77486643 124.95118146 78.57421875 126.98828125 C80.36804504 129.51929642 82.40017124 131.58873777 84.625 133.75 C85.44226563 134.54921875 86.25953125 135.3484375 87.1015625 136.171875 C87.72804688 136.77515625 88.35453125 137.3784375 89 138 C87.48623919 141.56764285 85.39486871 143.83706287 82.6484375 146.546875 C81.79765625 147.39121094 80.946875 148.23554688 80.0703125 149.10546875 C79.18085938 149.97816406 78.29140625 150.85085937 77.375 151.75 C76.4778125 152.63816406 75.580625 153.52632812 74.65625 154.44140625 C72.44192996 156.63216969 70.22307565 158.81812763 68 161 C64.36696916 159.30413874 62.05450954 157.26199512 59.25 154.375 C58.05117188 153.14910156 58.05117188 153.14910156 56.828125 151.8984375 C56.22484375 151.27195313 55.6215625 150.64546875 55 150 C54.34386719 150.26554688 53.68773437 150.53109375 53.01171875 150.8046875 C49.29197171 152.28100734 45.55557861 153.70906619 41.8125 155.125 C41.08869141 155.40214844 40.36488281 155.67929688 39.61914062 155.96484375 C34.23048799 158 34.23048799 158 32 158 C32 163.94 32 169.88 32 176 C21.44 176 10.88 176 0 176 C0 170.06 0 164.12 0 158 C-1.2375 157.79375 -2.475 157.5875 -3.75 157.375 C-9.13258166 156.23194779 -13.54867099 153.75526725 -18.30078125 151.046875 C-20.86388619 149.74952117 -20.86388619 149.74952117 -23.05859375 150.5390625 C-25.51288483 152.38595357 -27.60965101 154.42169957 -29.75 156.625 C-30.54921875 157.44226563 -31.3484375 158.25953125 -32.171875 159.1015625 C-32.77515625 159.72804687 -33.3784375 160.35453125 -34 161 C-37.56764285 159.48623919 -39.83706287 157.39486871 -42.546875 154.6484375 C-43.39121094 153.79765625 -44.23554688 152.946875 -45.10546875 152.0703125 C-45.97816406 151.18085938 -46.85085938 150.29140625 -47.75 149.375 C-49.08224609 148.02921875 -49.08224609 148.02921875 -50.44140625 146.65625 C-52.63216969 144.44192996 -54.81812763 142.22307565 -57 140 C-55.30413874 136.36696916 -53.26199512 134.05450954 -50.375 131.25 C-49.55773437 130.45078125 -48.74046875 129.6515625 -47.8984375 128.828125 C-47.27195312 128.22484375 -46.64546875 127.6215625 -46 127 C-46.26554687 126.34386719 -46.53109375 125.68773437 -46.8046875 125.01171875 C-48.28100734 121.29197171 -49.70906619 117.55557861 -51.125 113.8125 C-51.40214844 113.08869141 -51.67929688 112.36488281 -51.96484375 111.61914062 C-54 106.23048799 -54 106.23048799 -54 104 C-59.94 104 -65.88 104 -72 104 C-72 93.44 -72 82.88 -72 72 C-66.06 72 -60.12 72 -54 72 C-53.690625 70.14375 -53.690625 70.14375 -53.375 68.25 C-52.23194779 62.86741834 -49.75526725 58.45132901 -47.046875 53.69921875 C-45.75665294 51.13900571 -45.75665294 51.13900571 -46.5078125 48.94140625 C-48.47325633 46.38427122 -50.69464313 44.36877266 -53.125 42.25 C-54.03507812 41.45078125 -54.94515625 40.6515625 -55.8828125 39.828125 C-56.58148438 39.22484375 -57.28015625 38.6215625 -58 38 C-56.4608199 34.33247995 -54.24514548 32.01419427 -51.4296875 29.234375 C-50.53378906 28.34492187 -49.63789063 27.45546875 -48.71484375 26.5390625 C-47.77769531 25.61867188 -46.84054687 24.69828125 -45.875 23.75 C-44.92011363 22.80515144 -43.96568141 21.85984367 -43.01171875 20.9140625 C-40.67890913 18.60481662 -38.34155914 16.30036797 -36 14 C-32.36696916 15.69586126 -30.05450954 17.73800488 -27.25 20.625 C-26.05117188 21.85089844 -26.05117188 21.85089844 -24.828125 23.1015625 C-24.22484375 23.72804688 -23.6215625 24.35453125 -23 25 C-18.71543419 23.60638177 -14.51113964 22.07111705 -10.3125 20.4375 C-7.2193688 19.23521025 -4.14828362 18.04942787 -1 17 C-0.67 11.39 -0.34 5.78 0 0 Z " fill="#5E87CA" transform="translate(304,16)"/>
<path d="M0 0 C36.96 0 73.92 0 112 0 C112 52.8 112 105.6 112 160 C96.16 160 80.32 160 64 160 C64 165.28 64 170.56 64 176 C42.88 176 21.76 176 0 176 C0 117.92 0 59.84 0 0 Z " fill="#D5883E" transform="translate(16,320)"/>
<path d="M0 0 C63.36 0 126.72 0 192 0 C192 31.68 192 63.36 192 96 C128.64 96 65.28 96 0 96 C0 64.32 0 32.64 0 0 Z " fill="#4C6CB5" transform="translate(16,128)"/>
<path d="M0 0 C116.16 0 232.32 0 352 0 C352 38 352 38 348 44 C342.44286796 49.38161433 335.99002207 48.55904015 328.71484375 48.50793457 C327.34450111 48.51254529 325.97416342 48.51889937 324.60383606 48.52684355 C320.84351843 48.54353679 317.08360703 48.53529076 313.32328796 48.52289867 C309.26595308 48.51385041 305.20868818 48.52781679 301.15136719 48.53881836 C293.2051728 48.55661058 285.25912948 48.55276049 277.31292915 48.5411678 C270.85525395 48.53213651 264.39762111 48.53090815 257.93994141 48.53526306 C257.02106675 48.53587599 256.1021921 48.53648893 255.15547276 48.53712043 C253.28883233 48.53839933 251.42219193 48.53969618 249.55555153 48.5410108 C232.04952232 48.55241865 214.54357688 48.53929967 197.03756142 48.51780933 C182.01458232 48.49993816 166.99172686 48.50304221 151.96875 48.52148438 C134.52562931 48.54288745 117.08258206 48.55132 99.63945007 48.53903532 C97.77965292 48.53776112 95.91985576 48.53650363 94.06005859 48.53526306 C93.14498818 48.53464596 92.22991777 48.53402886 91.28711796 48.53339306 C84.8367391 48.52993847 78.3864068 48.53577084 71.93603516 48.54518127 C64.07581686 48.55639639 56.21575837 48.55337151 48.3555584 48.5320583 C44.34465616 48.52154126 40.33402041 48.51743703 36.32312012 48.53065491 C32.65161978 48.54257136 28.98063302 48.53602917 25.30917931 48.5147447 C23.3514488 48.50815762 21.39368267 48.52122151 19.43598938 48.53497362 C8.5825082 48.43777323 8.5825082 48.43777323 4 44 C0 38 0 38 0 0 Z " fill="#9CA0BE" transform="translate(144,256)"/>
<path d="M0 0 C1.58987675 0.00290684 3.17975994 0.00328796 4.76963806 0.00126648 C8.09282128 0.00447499 11.41467516 0.03133856 14.73754883 0.07641602 C18.98692391 0.13313137 23.23464584 0.14126916 27.48433781 0.133008 C30.76422838 0.13020447 34.04375314 0.14784664 37.32354546 0.17214012 C38.88994337 0.18231785 40.45638282 0.18744788 42.0228138 0.18734169 C44.21525311 0.19132918 46.40580973 0.22155843 48.59790039 0.2590332 C49.84253555 0.27126419 51.08717072 0.28349518 52.36952209 0.2960968 C57.66458685 1.11669136 60.5878677 3.35454053 63.92236042 7.47453213 C66.08385211 11.37770457 66.3284152 14.41906744 66.25836182 18.75888062 C66.26177952 19.53988211 66.26519722 20.32088361 66.26871848 21.12555182 C66.275288 23.73300474 66.25333744 26.33941985 66.23144531 28.94677734 C66.23031663 30.81955949 66.2309511 32.6923434 66.23321533 34.56512451 C66.2343626 39.64327502 66.21085111 44.7210473 66.1829195 49.79910994 C66.15790803 55.10821075 66.15556404 60.41732031 66.15081787 65.72647095 C66.13838737 75.77740624 66.10556466 85.82816742 66.06541991 95.87902606 C66.0207046 107.32269556 65.99871575 118.76637339 65.97863817 130.21010852 C65.93683217 153.74824505 65.86567248 177.2862148 65.77734375 200.82421875 C55.21734375 200.82421875 44.65734375 200.82421875 33.77734375 200.82421875 C33.77734375 145.38421875 33.77734375 89.94421875 33.77734375 32.82421875 C17.27734375 32.82421875 0.77734375 32.82421875 -16.22265625 32.82421875 C-18.20265625 27.54421875 -20.18265625 22.26421875 -22.22265625 16.82421875 C-23.21265625 15.17421875 -24.20265625 13.52421875 -25.22265625 11.82421875 C-24.573349 9.74287415 -24.573349 9.74287415 -23.22265625 7.82421875 C-22.84109879 7.19956223 -22.45954132 6.5749057 -22.06642151 5.93132019 C-16.32013953 -1.20028915 -8.37646676 -0.13705315 0 0 Z " fill="#C7CCEC" transform="translate(406.22265625,55.17578125)"/>
<path d="M0 0 C7.26 0 14.52 0 22 0 C22 31.68 22 63.36 22 96 C-41.36 96 -104.72 96 -170 96 C-170 88.08 -170 80.16 -170 72 C-163.66382658 71.9081714 -157.32996103 71.82853169 -150.99365234 71.78027344 C-148.83829933 71.76015724 -146.68300089 71.73286075 -144.52783203 71.69824219 C-141.42987605 71.64972514 -138.33264154 71.62703127 -135.234375 71.609375 C-134.27070007 71.58872986 -133.30702515 71.56808472 -132.31414795 71.54681396 C-125.56377623 71.5445495 -125.56377623 71.5445495 -122.48925781 74.02832031 C-121.99780273 74.67897461 -121.50634766 75.32962891 -121 76 C-118.88850355 76.07642709 -118.88850355 76.07642709 -117 75 C-116.55229248 74.49170654 -116.10458496 73.98341309 -115.64331055 73.4597168 C-113.55246098 71.60246089 -112.5288584 71.64832216 -109.76953125 71.70703125 C-108.96708984 71.71669922 -108.16464844 71.72636719 -107.33789062 71.73632812 C-106.50451172 71.76146484 -105.67113281 71.78660156 -104.8125 71.8125 C-103.96751953 71.82603516 -103.12253906 71.83957031 -102.25195312 71.85351562 C-100.16769616 71.88884201 -98.08376723 71.94264861 -96 72 C-96.33 73.65 -96.66 75.3 -97 77 C-96.195625 77.2475 -95.39125 77.495 -94.5625 77.75 C-90.25675857 79.26078647 -86.14635993 81.10188856 -82 83 C-81.731875 82.113125 -81.46375 81.22625 -81.1875 80.3125 C-79.0483673 74.34544562 -79.0483673 74.34544562 -77 72 C-73.75405498 71.22951926 -70.54492822 71.32395472 -67.22265625 71.37109375 C-65.77831459 71.36747581 -65.77831459 71.36747581 -64.30479431 71.36378479 C-62.26801436 71.36476445 -60.23120818 71.37818637 -58.19458008 71.40307617 C-55.0773662 71.43733661 -51.96299344 71.42375377 -48.84570312 71.40429688 C-46.86717543 71.41119649 -44.88865506 71.42086992 -42.91015625 71.43359375 C-41.97776627 71.42863388 -41.04537628 71.42367401 -40.08473206 71.41856384 C-33.5964298 71.53654252 -33.5964298 71.53654252 -30.38061523 74.03540039 C-29.92501221 74.68371826 -29.46940918 75.33203613 -29 76 C-26.53199953 74.84826645 -24.95216435 73.95216435 -23 72 C-15.41 72 -7.82 72 0 72 C0 48.24 0 24.48 0 0 Z " fill="#3B5892" transform="translate(186,128)"/>
<path d="M0 0 C8.95850358 5.36331464 15.80572833 13.29511423 18.6875 23.4140625 C21.41730632 35.66027698 20.02111038 47.03382327 13.25 57.875 C6.49850602 67.12013623 -2.00513896 72.2628827 -13 75 C-25.00894647 76.25782791 -34.50282053 74.06725097 -44.375 67.125 C-52.85768058 60.17025568 -56.5523846 52.34284619 -60 42 C-61.10810616 29.22511896 -58.86724459 18.91520891 -50.59375 8.7421875 C-37.05888121 -6.05328181 -17.93726281 -9.26108678 0 0 Z " fill="#E1E6F5" transform="translate(340,69)"/>
<path d="M0 0 C10.56 0 21.12 0 32 0 C32.06776667 16.95938996 32.12301065 33.91866406 32.15543652 50.87815189 C32.17089376 58.75304582 32.19196136 66.62784953 32.22631836 74.50268555 C32.25625579 81.36781213 32.27558331 88.23287336 32.28226548 95.09806341 C32.28617041 98.73186582 32.2953235 102.36548131 32.31719017 105.99922371 C32.34142479 110.0595434 32.34196721 114.11953982 32.34057617 118.17993164 C32.351362 119.37971146 32.36214783 120.57949127 32.3732605 121.81562805 C32.34778581 128.68390162 32.12984705 134.27756858 27.53515625 139.7421875 C18.70814372 146.53219714 12.62208831 144 0 144 C0 96.48 0 48.96 0 0 Z " fill="#F8D165" transform="translate(80,320)"/>
<path d="M0 0 C1.03301491 -0.02256111 1.03301491 -0.02256111 2.0868988 -0.045578 C4.3488083 -0.08843974 6.60954378 -0.10133144 8.87182617 -0.11010742 C10.45595214 -0.12551878 12.04007389 -0.14136964 13.62419128 -0.15763855 C16.94031416 -0.18604657 20.25602749 -0.19750534 23.57226562 -0.19921875 C27.80323173 -0.20439592 32.03096312 -0.26935001 36.26108265 -0.34950733 C39.53249425 -0.4017273 42.80313643 -0.41278001 46.07492638 -0.41272545 C47.63342061 -0.41925296 49.19192993 -0.44037242 50.75000954 -0.47690773 C62.90950559 -0.73763226 62.90950559 -0.73763226 67.86923218 2.66934204 C70.08873477 4.87302595 72.02686443 7.0613535 73.85229492 9.59692383 C71.98686674 14.27873445 70.03529305 18.92063253 68.07104492 23.56176758 C66.879714 26.52863978 65.86331421 29.56386596 64.85229492 32.59692383 C48.35229492 32.59692383 31.85229492 32.59692383 14.85229492 32.59692383 C14.85229492 45.79692383 14.85229492 58.99692383 14.85229492 72.59692383 C4.29229492 72.59692383 -6.26770508 72.59692383 -17.14770508 72.59692383 C-17.23168474 64.62352161 -17.31180914 56.65172919 -17.35470581 48.67826843 C-17.37579243 44.96492512 -17.40395079 41.25194947 -17.44946289 37.53881836 C-17.4930562 33.95966597 -17.51687031 30.38086918 -17.52721405 26.80147171 C-17.53458143 25.43874135 -17.54896845 24.07602956 -17.57062531 22.71345139 C-17.73570906 11.89251698 -17.73570906 11.89251698 -15.49829102 6.96264648 C-10.64885748 2.08198477 -6.91267468 0.1019285 0 0 Z " fill="#C7CCEC" transform="translate(185.147705078125,55.403076171875)"/>
<path d="M0 0 C5.28 0 10.56 0 16 0 C16 52.8 16 105.6 16 160 C0.16 160 -15.68 160 -32 160 C-32 154.72 -32 149.44 -32 144 C-30.70964844 143.96261719 -29.41929688 143.92523438 -28.08984375 143.88671875 C-26.37236851 143.82102298 -24.65492185 143.7545769 -22.9375 143.6875 C-22.08994141 143.66494141 -21.24238281 143.64238281 -20.36914062 143.61914062 C-13.74477236 143.3377968 -8.4393643 142.50355809 -3.625 137.5625 C-1.09105554 133.5666645 -0.87316077 130.22569218 -0.84178162 125.54571533 C-0.8319928 124.43796249 -0.82220398 123.33020966 -0.81211853 122.18888855 C-0.80636307 120.97832291 -0.8006076 119.76775726 -0.79467773 118.52050781 C-0.78477814 117.24220596 -0.77487854 115.96390411 -0.76467896 114.64686584 C-0.73767034 111.14516819 -0.71663893 107.64345711 -0.69667697 104.14171314 C-0.67479244 100.4808235 -0.64741583 96.81997505 -0.62062073 93.15911865 C-0.57072719 86.22836961 -0.52577599 79.29759767 -0.48259836 72.36680388 C-0.43319744 64.47566119 -0.37828991 56.58455983 -0.32291877 48.69345713 C-0.20914998 32.46234261 -0.10249517 16.23118966 0 0 Z " fill="#F0AE42" transform="translate(112,320)"/>
<path d="M0 0 C3.03739302 1.35754589 5.11935473 2.87772991 7.45166016 5.24047852 C8.43255112 6.22643761 8.43255112 6.22643761 9.43325806 7.23231506 C10.12817352 7.94069016 10.82308899 8.64906525 11.5390625 9.37890625 C12.26112885 10.10617416 12.98319519 10.83344208 13.72714233 11.58274841 C16.03122694 13.90463582 18.32851132 16.23310139 20.625 18.5625 C22.92949133 20.89458572 25.23541392 23.22520945 27.54428101 25.55296326 C28.98049156 27.00145538 30.41402086 28.45261176 31.84463501 29.90663147 C32.492258 30.56078537 33.13988098 31.21493927 33.80712891 31.88891602 C34.37686432 32.46690445 34.94659973 33.04489288 35.53359985 33.64039612 C38.71700658 36.59195894 41.66903072 36.16563945 45.875 36.1875 C47.10992187 36.20167969 48.34484375 36.21585937 49.6171875 36.23046875 C53.6966054 36.04690995 53.6966054 36.04690995 57 34 C57.92499783 30.9017122 57.92499783 30.9017122 58.25 27.375 C58.62125 24.219375 58.62125 24.219375 59 21 C64.28 21 69.56 21 75 21 C75.6265625 37.290625 75.6265625 37.290625 71 43 C65.33485429 48.91880895 60.63526248 52.908979 52.26953125 53.37109375 C50.45068677 53.40416365 48.63160851 53.42596231 46.8125 53.4375 C45.91724609 53.47037109 45.02199219 53.50324219 44.09960938 53.53710938 C35.01574416 53.6092556 28.17013851 50.31250535 21.56005859 44.12768555 C20.07662412 42.64347297 18.60647373 41.14588911 17.1484375 39.63671875 C16.36352936 38.84473587 15.57862122 38.05275299 14.76992798 37.23677063 C12.29284599 34.73194777 9.83383244 32.2102264 7.375 29.6875 C5.68736725 27.97475848 3.99857551 26.26315814 2.30859375 24.55273438 C-1.80775692 20.38158396 -5.9094597 16.19645684 -10 12 C-8.39464713 8.58940597 -6.59481099 6.38207516 -3.875 3.75 C-3.15054688 3.04359375 -2.42609375 2.3371875 -1.6796875 1.609375 C-1.12539062 1.07828125 -0.57109375 0.5471875 0 0 Z " fill="#F2B9A1" transform="translate(197,379)"/>
<path d="M0 0 C3.84172903 0.70079892 6.83839253 1.75596411 10.3125 3.5625 C11.19550781 4.01753906 12.07851562 4.47257813 12.98828125 4.94140625 C13.65214844 5.29074219 14.31601563 5.64007813 15 6 C13.68569994 10.20976414 12.08913014 14.06599303 10.11083984 18.00537109 C9.5303891 19.16612152 8.94993835 20.32687195 8.35189819 21.52279663 C7.72166425 22.77305375 7.09134197 24.02326635 6.4609375 25.2734375 C5.81325863 26.56506088 5.16593529 27.85686259 4.51895142 29.14883423 C2.82263181 32.53387031 1.12151943 35.9164752 -0.58062744 39.29858398 C-2.31969289 42.75618474 -4.05418011 46.21608028 -5.7890625 49.67578125 C-9.18825034 56.45276562 -12.59250847 63.22718627 -16 70 C-19.84172903 69.29920108 -22.83839253 68.24403589 -26.3125 66.4375 C-27.19550781 65.98246094 -28.07851562 65.52742188 -28.98828125 65.05859375 C-29.98408203 64.53458984 -29.98408203 64.53458984 -31 64 C-29.68569994 59.79023586 -28.08913014 55.93400697 -26.11083984 51.99462891 C-25.5303891 50.83387848 -24.94993835 49.67312805 -24.35189819 48.47720337 C-23.72166425 47.22694625 -23.09134197 45.97673365 -22.4609375 44.7265625 C-21.81325863 43.43493912 -21.16593529 42.14313741 -20.51895142 40.85116577 C-18.82263181 37.46612969 -17.12151943 34.0835248 -15.41937256 30.70141602 C-13.68030711 27.24381526 -11.94581989 23.78391972 -10.2109375 20.32421875 C-6.81174966 13.54723438 -3.40749153 6.77281373 0 0 Z " fill="#5D86C9" transform="translate(120,141)"/>
<path d="M0 0 C2.56121861 1.1290107 4.20346161 2.6808065 6.19335938 4.64160156 C6.91136719 5.32867187 7.629375 6.01574219 8.36914062 6.72363281 C9.88085938 8.82910156 9.88085938 8.82910156 9.68652344 10.73120117 C8.70553901 13.28562517 7.45841631 14.59383598 5.50195312 16.50097656 C4.49165039 17.49677734 4.49165039 17.49677734 3.4609375 18.51269531 C2.75388672 19.19460937 2.04683594 19.87652344 1.31835938 20.57910156 C0.60744141 21.27648437 -0.10347656 21.97386719 -0.8359375 22.69238281 C-2.59044776 24.41156737 -4.35157415 26.12336028 -6.11914062 27.82910156 C-4.76470977 30.886876 -3.27209327 32.87331314 -0.82617188 35.14160156 C-0.19646484 35.74230469 0.43324219 36.34300781 1.08203125 36.96191406 C2.4124842 38.212566 3.74849841 39.4573266 5.08984375 40.69628906 C5.71568359 41.29699219 6.34152344 41.89769531 6.98632812 42.51660156 C7.56535889 43.05671875 8.14438965 43.59683594 8.7409668 44.15332031 C9.88085938 45.82910156 9.88085938 45.82910156 9.66845703 47.90014648 C8.59715819 50.52393202 7.05241381 52.1280992 5.06835938 54.14160156 C4.38128906 54.85960937 3.69421875 55.57761719 2.98632812 56.31738281 C0.88085938 57.82910156 0.88085938 57.82910156 -0.9140625 57.73974609 C-4.08030627 56.43216314 -6.15472335 54.18220741 -8.50585938 51.77050781 C-9.00833694 51.26615707 -9.51081451 50.76180634 -10.02851868 50.24217224 C-11.08675007 49.17723139 -12.1413839 48.10870512 -13.19262695 47.03686523 C-14.80428033 45.39400756 -16.42640677 43.76210741 -18.05078125 42.13183594 C-19.07810101 41.0953477 -20.10481491 40.05825852 -21.13085938 39.02050781 C-21.6162468 38.53087051 -22.10163422 38.04123322 -22.60173035 37.53675842 C-25.30919261 34.77116747 -26.88704196 33.04761953 -27.61914062 29.20410156 C-27.07615897 25.53897539 -26.55923686 24.85255727 -24.16210938 22.21582031 C-23.20860596 21.16539551 -23.20860596 21.16539551 -22.23583984 20.09375 C-18.51008752 16.10758177 -14.75507946 12.15938554 -10.93164062 8.26660156 C-10.13822266 7.43580078 -9.34480469 6.605 -8.52734375 5.74902344 C-7.75970703 4.96978516 -6.99207031 4.19054687 -6.20117188 3.38769531 C-5.5125708 2.6792749 -4.82396973 1.97085449 -4.11450195 1.2409668 C-2.11914062 -0.17089844 -2.11914062 -0.17089844 0 0 Z " fill="#5D86C9" transform="translate(67.119140625,147.1708984375)"/>
<path d="M0 0 C3.83418237 1.58078388 6.26189306 4.01807328 9.16796875 6.9375 C9.88839104 7.65860962 9.88839104 7.65860962 10.62336731 8.39428711 C11.6333707 9.40730151 12.64095273 10.4227352 13.64624023 11.44042969 C15.18746045 12.99995998 16.73658712 14.5512857 18.28710938 16.1015625 C26.73099342 24.58771547 26.73099342 24.58771547 27.5 28.625 C26.28273214 36.84155806 16.25117542 43.87091586 10.5625 49.5 C9.73556641 50.32242188 8.90863281 51.14484375 8.05664062 51.9921875 C6.04005041 53.99712113 4.02114764 55.99966253 2 58 C-1.20610865 56.4674096 -3.60129099 54.75883811 -6.25 52.375 C-6.95640625 51.74335938 -7.6628125 51.11171875 -8.390625 50.4609375 C-8.92171875 49.97882813 -9.4528125 49.49671875 -10 49 C-9.42118732 45.45177554 -8.17307641 43.81577197 -5.62109375 41.328125 C-4.94755859 40.66425781 -4.27402344 40.00039062 -3.58007812 39.31640625 C-2.87302734 38.63449219 -2.16597656 37.95257813 -1.4375 37.25 C-0.72658203 36.55261719 -0.01566406 35.85523438 0.71679688 35.13671875 C2.47130714 33.4175342 4.23243352 31.70574128 6 30 C4.6415798 26.95667235 3.11536976 24.87690849 0.7421875 22.546875 C0.11699219 21.928125 -0.50820312 21.309375 -1.15234375 20.671875 C-1.80332031 20.03765625 -2.45429688 19.4034375 -3.125 18.75 C-3.78371094 18.1003125 -4.44242188 17.450625 -5.12109375 16.78125 C-6.74296643 15.18288273 -8.3693281 13.58938103 -10 12 C-8.39464713 8.58940597 -6.59481099 6.38207516 -3.875 3.75 C-3.15054688 3.04359375 -2.42609375 2.3371875 -1.6796875 1.609375 C-1.12539062 1.07828125 -0.57109375 0.5471875 0 0 Z " fill="#5D86C9" transform="translate(157,147)"/>
<path d="M0 0 C10.56 0 21.12 0 32 0 C32 10.56 32 21.12 32 32 C21.44 32 10.88 32 0 32 C0 21.44 0 10.88 0 0 Z " fill="#C8CDED" transform="translate(168,224)"/>
</svg>
