<?xml version="1.0" encoding="UTF-8"?>
<svg version="1.1" xmlns="http://www.w3.org/2000/svg" width="512" height="512">
<path d="M0 0 C168.96 0 337.92 0 512 0 C512 168.96 512 337.92 512 512 C343.04 512 174.08 512 0 512 C0 343.04 0 174.08 0 0 Z " fill="#FEB600" transform="translate(0,0)"/>
<path d="M0 0 C168.96 0 337.92 0 512 0 C512 39.27 512 78.54 512 119 C511.67 119 511.34 119 511 119 C510.85304688 118.09121094 510.70609375 117.18242188 510.5546875 116.24609375 C507.69586744 100.22684339 502.29567166 84.32496074 490 73 C489.24847656 72.06671875 488.49695313 71.1334375 487.72265625 70.171875 C476.23498412 56.27119958 456.26475357 46.83517281 438.68359375 44.3203125 C413.45788229 42.12677237 390.73218512 46.61413731 370.63671875 62.734375 C354.01665169 77.01532151 341.57929772 97.57734924 339.77246094 119.79833984 C338.36664877 146.91106324 346.07900679 169.47533853 364 190 C381.49038529 206.53793856 401.52514251 214.42838484 425.5625 214.25 C426.60857422 214.25773438 427.65464844 214.26546875 428.73242188 214.2734375 C454.16311033 214.21029488 472.3321548 202.06123982 491 186 C493.679018 214.78792741 493.679018 214.78792741 489.55712891 222.80712891 C485.85679265 227.16959976 481.23329639 229.98431275 476.25683594 232.71435547 C472.88345377 234.63605933 469.98941737 237.03929023 467 239.5 C465.86644214 240.38779517 464.73099378 241.27318134 463.59375 242.15625 C459.50548381 245.36845915 455.50393302 248.68369701 451.5 252 C445.69185874 256.8104999 439.82778059 261.5329416 433.88232422 266.17236328 C429.52559655 269.57515461 425.23482388 273.05120943 420.96484375 276.5625 C412.3980773 283.60553329 403.80852369 290.61779655 395.0625 297.4375 C389.05718586 302.12083548 383.18150341 306.95081116 377.31665039 311.80834961 C372.37465665 315.89251734 367.36774396 319.87891521 362.30859375 323.81640625 C356.90700289 328.03678362 351.63238268 332.40529966 346.35375977 336.77783203 C339.66337509 342.30703756 332.85490302 347.67685819 326 353 C322.01387089 351.28606242 318.79828384 348.62484608 315.4375 345.9375 C314.81472168 345.44362793 314.19194336 344.94975586 313.55029297 344.44091797 C307.98667719 340.0176795 302.4890226 335.51528009 297 331 C289.52317442 324.85711485 282.03735143 318.72345682 274.375 312.8125 C273.47523438 312.11769531 272.57546875 311.42289062 271.6484375 310.70703125 C265.84280486 306.96505269 259.76523694 305.90429298 253 307 C245.47018727 309.98995805 239.47372436 315.81965661 233.4296875 321.06640625 C229.99732851 324.03250855 226.4553954 326.84057477 222.875 329.625 C218.65118018 332.91599435 214.45475005 336.23106539 210.3125 339.625 C209.00345703 340.69234375 209.00345703 340.69234375 207.66796875 341.78125 C205.77224556 343.35778114 203.90223198 344.96545426 202.05078125 346.59375 C200.60251953 347.84671875 200.60251953 347.84671875 199.125 349.125 C198.26132813 349.89070313 197.39765625 350.65640625 196.5078125 351.4453125 C194 353 194 353 191.578125 353.04296875 C188.12455261 351.64584174 185.46646761 349.53853134 182.625 347.1875 C182.0163208 346.69685059 181.4076416 346.20620117 180.78051758 345.70068359 C179.49368905 344.66246751 178.20997078 343.620386 176.92919922 342.57470703 C173.86378675 340.07256701 170.77565663 337.59897164 167.6875 335.125 C167.07011963 334.62887207 166.45273926 334.13274414 165.81665039 333.62158203 C161.12090225 329.86040407 156.35478521 326.19953139 151.5625 322.5625 C145.2117051 317.73987865 138.9844471 312.78887441 132.81323242 307.73901367 C126.84498534 302.85764766 120.79431372 298.08822903 114.71777344 293.34277344 C111.80728372 291.06766067 108.90405504 288.7833163 106 286.5 C104.83336721 285.58329022 103.66670056 284.66662352 102.5 283.75 C100.16666667 281.91666667 97.83333333 280.08333333 95.5 278.25 C94.92258057 277.79633057 94.34516113 277.34266113 93.75024414 276.87524414 C92.5826959 275.95784991 91.41521551 275.04036933 90.24780273 274.12280273 C87.3451721 271.84155755 84.44140726 269.56178786 81.53515625 267.28515625 C74.86231939 262.05509493 68.22245764 256.786497 61.60791016 251.48291016 C55.69155592 246.74339095 49.73264952 242.05945712 43.76464844 237.38525391 C41.92586572 235.94180439 40.09139832 234.4930129 38.2578125 233.04296875 C37.63914307 232.55449463 37.02047363 232.06602051 36.38305664 231.56274414 C35.21460317 230.63998399 34.04704285 229.71609111 32.88061523 228.79077148 C32.07539429 228.15570679 32.07539429 228.15570679 31.25390625 227.5078125 C30.75867966 227.11214081 30.26345306 226.71646912 29.7532196 226.30880737 C28.03399545 224.97396634 28.03399545 224.97396634 26.18270874 223.93998718 C24.22530066 222.76173885 22.61203849 221.62360153 21 220 C20.28066489 217.00676556 20.0383939 215.05870898 20.09765625 212.07421875 C20.08536484 211.32662796 20.07307343 210.57903717 20.06040955 209.80879211 C20.02875586 207.43402056 20.04492979 205.06236657 20.0625 202.6875 C20.04938621 201.07223686 20.03314393 199.45699588 20.01367188 197.84179688 C19.97288466 193.89386877 19.97496629 189.94803724 20 186 C19.05084717 186.8053418 18.10169434 187.61068359 17.1237793 188.44042969 C16.55766937 188.92072632 15.99155945 189.40102295 15.40829468 189.89587402 C14.23650797 190.89020421 13.06505787 191.88493112 11.89379883 192.87988281 C10.26679976 194.25839383 8.63404888 195.62985616 7 197 C6.07574219 197.77859375 5.15148437 198.5571875 4.19921875 199.359375 C2 201 2 201 0 201 C0 134.67 0 68.34 0 0 Z " fill="#F8FAF9" transform="translate(0,0)"/>
<path d="M0 0 C3.76848197 2.91953823 7.37503577 5.934049 10.84375 9.203125 C11.689375 9.96625 12.535 10.729375 13.40625 11.515625 C30.24152233 30.07759193 35.87636671 53.06331541 35.02734375 77.50244141 C33.67581505 97.38357243 24.43223318 115.04048056 10.84375 129.203125 C10.2559375 129.8425 9.668125 130.481875 9.0625 131.140625 C-3.62164312 144.54273849 -23.29452656 154.46008477 -41.81420898 155.32763672 C-57.81095647 155.75147879 -73.7083662 156.02507533 -88.15625 148.203125 C-89.22359375 147.64753906 -90.2909375 147.09195313 -91.390625 146.51953125 C-114.80439716 134.00259216 -128.09420143 115.51961861 -136.2109375 90.578125 C-142.58180349 67.83255387 -137.40998028 45.25312712 -126.15625 25.203125 C-125.61097656 24.20410156 -125.06570313 23.20507812 -124.50390625 22.17578125 C-113.45101921 3.33993219 -93.47053693 -9.41586695 -72.71875 -15.171875 C-47.29764597 -21.48500106 -20.86399431 -15.18320378 0 0 Z " fill="#C92D04" transform="translate(477.15625,59.796875)"/>
<path d="M0 0 C0.33 0 0.66 0 1 0 C3.679018 28.78792741 3.679018 28.78792741 -0.44287109 36.80712891 C-4.14320735 41.16959976 -8.76670361 43.98431275 -13.74316406 46.71435547 C-17.11657303 48.6360746 -20.01047244 51.03938208 -23 53.5 C-24.12320496 54.37860171 -25.24823997 55.25486839 -26.375 56.12890625 C-31.37985764 60.0602947 -36.26197621 64.14415526 -41.140625 68.23046875 C-41.81609375 68.7925 -42.4915625 69.35453125 -43.1875 69.93359375 C-43.77917969 70.42915771 -44.37085938 70.92472168 -44.98046875 71.43530273 C-47.56121103 73.43481643 -50.27843865 75.19854939 -53 77 C-53.39051072 76.31969947 -53.78102144 75.63939894 -54.18336582 74.93848324 C-67.13721361 53.06402474 -85.86412702 28.62045618 -111.22732067 21.03476429 C-130.57570784 16.43708839 -150.88743809 16.42729825 -170.68359375 16.41015625 C-171.39904549 16.40895261 -172.11449722 16.40774897 -172.85162932 16.40650886 C-191.46513634 16.38743161 -210.05261346 16.90204946 -228.65157855 17.59315431 C-239.46102252 17.98992438 -250.26730936 18.2451838 -261.08276367 18.40600586 C-261.85090672 18.41746866 -262.61904977 18.42893145 -263.41046988 18.44074161 C-267.26638579 18.49755925 -271.12233019 18.55207289 -274.97829521 18.60544407 C-306.66526659 19.04697843 -338.32903134 19.89006344 -370 21 C-370 16.05 -370 11.1 -370 6 C-338.83159835 5.66692289 -307.66318904 5.38029534 -276.4938148 5.15822976 C-272.81146646 5.13195408 -269.12912107 5.10528364 -265.44677734 5.07836914 C-264.34717515 5.07034203 -264.34717515 5.07034203 -263.22535877 5.06215275 C-251.36572472 4.97463647 -239.50661796 4.85516554 -227.64739759 4.72381943 C-215.47275708 4.58969369 -203.29818404 4.49006 -191.12299192 4.4222365 C-183.61394789 4.37932541 -176.10613567 4.30973161 -168.59768622 4.20565636 C-162.83371711 4.12864836 -157.07026747 4.09970528 -151.30583191 4.08843231 C-148.94588847 4.07635559 -146.58596459 4.0488275 -144.2264061 4.00452614 C-124.1690713 3.64246289 -124.1690713 3.64246289 -117.74594116 9.40260315 C-116.47297838 10.91493118 -115.22051116 12.44503285 -114 14 C-99.55447519 25.03845603 -82.19454469 28.3817777 -64.4375 28.25 C-63.39142578 28.25773437 -62.34535156 28.26546875 -61.26757812 28.2734375 C-39.29918167 28.21889151 -19.89513908 19.30325688 -4.07421875 4.15625 C-2.71056631 2.77632486 -1.3543397 1.38906636 0 0 Z " fill="#C2CDCD" transform="translate(490,186)"/>
<path d="M0 0 C89.1 0 178.2 0 270 0 C270 4.95 270 9.9 270 15 C180.9 15 91.8 15 0 15 C0 10.05 0 5.1 0 0 Z " fill="#C2CECE" transform="translate(121,255)"/>
<path d="M0 0 C80.85 0 161.7 0 245 0 C243.02 2.31 241.04 4.62 239 7 C238.0415089 8.60493381 237.10913501 10.22626977 236.22294426 11.87222958 C233.6868213 15.731719 233.6868213 15.731719 230.93437219 16.80686009 C228.39093182 17.12040494 225.99428344 17.13105874 223.43289185 17.04432678 C222.4762976 17.04793305 221.51970335 17.05153932 220.53412139 17.05525488 C217.33106573 17.0563674 214.13256181 16.99303564 210.93017578 16.92993164 C208.63377113 16.91752969 206.33734205 16.90910346 204.04090881 16.90435791 C197.80717537 16.88019521 191.57524584 16.80035632 185.34215784 16.71061635 C178.82808614 16.62626589 172.31376006 16.59297815 165.79928589 16.55430603 C154.86545624 16.4825068 143.93234024 16.37919414 132.99902344 16.25170898 C121.73905236 16.12050137 110.47915575 16.00830465 99.21875 15.92163086 C98.52435637 15.91627935 97.82996274 15.91092785 97.11452688 15.90541417 C93.6308644 15.87868366 90.14719922 15.85232645 86.6635325 15.82615483 C57.77506004 15.60864264 28.88745482 15.32505321 0 15 C0 10.05 0 5.1 0 0 Z " fill="#C2CECD" transform="translate(120,67)"/>
<path d="M0 0 C72.27 0 144.54 0 219 0 C219.33 4.95 219.66 9.9 220 15 C147.4 15 74.8 15 0 15 C0 10.05 0 5.1 0 0 Z " fill="#C2CECE" transform="translate(120,129)"/>
<path d="M0 0 C0.33 0 0.66 0 1 0 C3.679018 28.78792741 3.679018 28.78792741 -0.44287109 36.80712891 C-4.14320735 41.16959976 -8.76670361 43.98431275 -13.74316406 46.71435547 C-17.11657303 48.6360746 -20.01047244 51.03938208 -23 53.5 C-24.12320496 54.37860171 -25.24823997 55.25486839 -26.375 56.12890625 C-31.37985764 60.0602947 -36.26197621 64.14415526 -41.140625 68.23046875 C-41.81609375 68.7925 -42.4915625 69.35453125 -43.1875 69.93359375 C-43.77917969 70.42915771 -44.37085938 70.92472168 -44.98046875 71.43530273 C-47.56121103 73.43481643 -50.27843865 75.19854939 -53 77 C-59.91912956 70.15029051 -66.83020365 63.29256698 -73.7310257 56.42441082 C-76.93539169 53.23572046 -80.14249666 50.04988854 -83.35595703 46.87036133 C-86.45530577 43.80353812 -89.54733158 40.72950712 -92.63435364 37.65027809 C-93.81513514 36.47505233 -94.9985598 35.30247623 -96.18461609 34.13257408 C-97.84168003 32.49719365 -99.48921092 30.85275978 -101.13476562 29.20581055 C-101.63035477 28.72100723 -102.12594391 28.23620392 -102.6365509 27.73670959 C-106 24.34215648 -106 24.34215648 -106 21 C-100.76824767 20.63918949 -97.26385284 22.50868562 -92.62109375 24.7109375 C-83.4826237 27.96411454 -74.0526536 28.3213555 -64.4375 28.25 C-63.39142578 28.25773437 -62.34535156 28.26546875 -61.26757812 28.2734375 C-39.29918167 28.21889151 -19.89513908 19.30325688 -4.07421875 4.15625 C-2.71056631 2.77632486 -1.3543397 1.38906636 0 0 Z " fill="#D5DBD9" transform="translate(490,186)"/>
<path d="M0 0 C2.16356659 1.23138523 2.16356659 1.23138523 4 3 C4.50336456 5.09149837 4.50336456 5.09149837 4.50793457 7.5478363 C4.51921387 8.48015076 4.53049316 9.41246521 4.54211426 10.37303162 C4.53401733 11.39389359 4.52592041 12.41475555 4.51757812 13.46655273 C4.5245874 14.54321198 4.53159668 15.61987122 4.53881836 16.72915649 C4.55646135 20.29756259 4.54475181 23.86517921 4.53125 27.43359375 C4.53394328 29.90837253 4.53782433 32.38315027 4.54284668 34.85792542 C4.54875047 40.04902199 4.54015081 45.23984355 4.52148438 50.4309082 C4.49870644 57.09060575 4.51180516 63.74938919 4.53577423 70.40910244 C4.5502183 75.52115248 4.54563229 80.63304921 4.53526306 85.74510384 C4.53259133 88.20074604 4.53588112 90.65640208 4.54518127 93.11202812 C4.55532216 96.54307871 4.53987818 99.97308041 4.51757812 103.40405273 C4.52567505 104.42289047 4.53377197 105.44172821 4.54211426 106.49143982 C4.45924511 113.36188451 4.45924511 113.36188451 2.10632324 116.63124084 C-0.31648401 118.20566187 -1.62891756 118.51124356 -4.5 118.4375 C-5.2528125 118.43621094 -6.005625 118.43492187 -6.78125 118.43359375 C-9.75738804 117.85198931 -10.90052636 117.23331466 -13 115 C-13.41023195 111.98403774 -13.563981 109.32591272 -13.54589844 106.3059082 C-13.56140495 104.9738887 -13.56140495 104.9738887 -13.57722473 103.61495972 C-13.60674708 100.67671719 -13.60815389 97.73916069 -13.609375 94.80078125 C-13.62435028 92.76481301 -13.64107604 90.72885696 -13.65948486 88.69291687 C-13.7032438 83.33189346 -13.72317642 77.97103393 -13.73822021 72.60986328 C-13.75776051 67.14020055 -13.79973393 61.67071561 -13.83984375 56.20117188 C-13.91523841 45.46750264 -13.96547383 34.73387302 -14 24 C-14.87978516 25.45212891 -14.87978516 25.45212891 -15.77734375 26.93359375 C-18 30 -18 30 -21.5625 31.0625 C-25 31 -25 31 -26.9375 30 C-28.58688893 26.8952679 -28.31503832 24.4645044 -28 21 C-26.19580078 18.38525391 -26.19580078 18.38525391 -23.6953125 15.9765625 C-22.80199219 15.10128906 -21.90867187 14.22601563 -20.98828125 13.32421875 C-20.04339844 12.43347656 -19.09851563 11.54273437 -18.125 10.625 C-17.18785156 9.71105469 -16.25070312 8.79710938 -15.28515625 7.85546875 C-6.62552755 -0.5300422 -6.62552755 -0.5300422 0 0 Z " fill="#FEFDFD" transform="translate(434,70)"/>
<path d="M0 0 C11.88 0 23.76 0 36 0 C36 39.27 36 78.54 36 119 C35.67 119 35.34 119 35 119 C34.85304688 118.09121094 34.70609375 117.18242188 34.5546875 116.24609375 C32.08867223 102.42790475 27.77012392 85.84359363 16.92016602 76.13989258 C13.86838413 71.14955986 14.49673885 66.12742338 14.56640625 60.39453125 C14.55679641 57.85872336 14.5470257 55.32291608 14.53710938 52.78710938 C14.54569062 48.8022222 14.56247154 44.81759742 14.5847168 40.83276367 C14.59930083 36.97803518 14.58393393 33.12422775 14.56640625 29.26953125 C14.58288712 28.09002396 14.59936798 26.91051666 14.61634827 25.69526672 C14.57107629 18.1349136 13.40373535 12.27545078 9 6 C7.05749709 4.2109548 5.3780331 3.24071292 3 2 C2.01 1.34 1.02 0.68 0 0 Z " fill="#FFFFFF" transform="translate(476,0)"/>
<path d="M0 0 C0.33 0 0.66 0 1 0 C1 20.13 1 40.26 1 61 C-2.14119152 59.42940424 -4.24635923 58.13605934 -6.890625 55.9609375 C-7.59960938 55.38085938 -8.30859375 54.80078125 -9.0390625 54.203125 C-9.76867187 53.59984375 -10.49828125 52.9965625 -11.25 52.375 C-11.99507813 51.76398438 -12.74015625 51.15296875 -13.5078125 50.5234375 C-15.34135497 49.0189924 -17.17194246 47.51110107 -19 46 C-17.29074691 42.49422479 -15.29320267 39.28537931 -13.1875 36 C-6.11599251 24.6229857 -2.75604116 12.99496502 0 0 Z " fill="#FFFFFF" transform="translate(511,140)"/>
<path d="M0 0 C5.02195161 3.76646371 10.03063494 7.54082789 15 11.375 C15.87591797 12.04982422 15.87591797 12.04982422 16.76953125 12.73828125 C18.18003846 13.82506549 19.59007218 14.91246421 21 16 C19.61766285 20.14701146 16.67127858 21.87989796 13.3125 24.4375 C12.69955078 24.91509766 12.08660156 25.39269531 11.45507812 25.88476562 C7.71863619 28.77327694 3.94957491 31.36695006 0 34 C0 22.78 0 11.56 0 0 Z " fill="#FE9101" transform="translate(491,185)"/>
<path d="M0 0 C0 11.22 0 22.44 0 34 C-2.64 32.02 -5.28 30.04 -8 28 C-9.19625 27.10796875 -10.3925 26.2159375 -11.625 25.296875 C-12.75032816 24.4483517 -13.87533272 23.59939906 -15 22.75 C-15.58394531 22.316875 -16.16789062 21.88375 -16.76953125 21.4375 C-18.21700357 20.33918376 -19.61389236 19.17481074 -21 18 C-21 17.34 -21 16.68 -21 16 C-19.1640625 14.3359375 -19.1640625 14.3359375 -16.625 12.375 C-15.72136719 11.67117187 -14.81773438 10.96734375 -13.88671875 10.2421875 C-12.93410156 9.50226563 -11.98148438 8.76234375 -11 8 C-8.3077929 5.82708319 -5.62038224 3.64836001 -2.93359375 1.46875 C-1 0 -1 0 0 0 Z " fill="#FF9101" transform="translate(21,185)"/>
<path d="M0 0 C0.33 0 0.66 0 1 0 C1 5.28 1 10.56 1 16 C-3.95 16 -8.9 16 -14 16 C-11 14 -11 14 -8.125 12.5 C-3.69888159 9.62302303 -2.02211367 4.68844054 0 0 Z " fill="#FFFFFF" transform="translate(511,496)"/>
<path d="M0 0 C2 3 2 3 3.0078125 4.90234375 C6.11676494 10.56585502 9.03465523 12.57341907 15 15 C15 15.33 15 15.66 15 16 C10.05 16 5.1 16 0 16 C0 10.72 0 5.44 0 0 Z " fill="#FFFFFF" transform="translate(0,496)"/>
<path d="M0 0 C3.7910119 1.44950455 7.3874638 3.15172566 11 5 C10.01 5.33 9.02 5.66 8 6 C7.67 6.66 7.34 7.32 7 8 C5.83035398 6.8572081 4.66435444 5.71068285 3.5 4.5625 C2.8503125 3.92441406 2.200625 3.28632813 1.53125 2.62890625 C0 1 0 1 0 0 Z " fill="#969896" transform="translate(376,201)"/>
</svg>
