<?xml version="1.0" encoding="UTF-8"?>
<svg version="1.1" xmlns="http://www.w3.org/2000/svg" width="512" height="512">
<path d="M0 0 C1.87695193 0.00502509 3.75390516 0.00958621 5.63085938 0.01367188 C10.19143887 0.02459742 14.75195479 0.04180643 19.3125 0.0625 C19.64355401 22.61661533 19.67827184 44.7026041 16.3125 67.0625 C16.17328125 68.04428223 16.0340625 69.02606445 15.890625 70.03759766 C10.59382485 107.08454589 0.35945568 143.64344345 -15.52587891 177.57763672 C-16.66882354 180.02254854 -17.78026275 182.47980226 -18.88671875 184.94140625 C-27.19642629 203.20932093 -37.44823446 220.45493397 -48.6875 237.0625 C-49.3985791 238.1136499 -49.3985791 238.1136499 -50.12402344 239.18603516 C-57.44481941 249.93249417 -65.33299415 260.10360408 -73.6875 270.0625 C-74.20876465 270.68817871 -74.7300293 271.31385742 -75.26708984 271.95849609 C-81.73922289 279.71328455 -88.42891862 287.03035617 -95.6875 294.0625 C-98.43006478 296.78699187 -101.14935047 299.53248746 -103.8515625 302.296875 C-110.80115563 309.37668535 -117.89535543 315.90491449 -125.6875 322.0625 C-127.73364269 323.76586105 -129.7752681 325.47359735 -131.8125 327.1875 C-136.68656445 331.25982539 -141.63735845 335.21112943 -146.6875 339.0625 C-146.24019531 339.94808594 -145.79289062 340.83367187 -145.33203125 341.74609375 C-141.9561153 348.59625329 -139.0344227 355.41600098 -136.875 362.75 C-136.68075439 363.400896 -136.48650879 364.05179199 -136.28637695 364.72241211 C-127.90270787 394.53469519 -132.17581849 426.59461717 -147.125 453.5 C-150.52593975 459.41400166 -154.20180546 464.90541084 -158.6875 470.0625 C-159.37457031 470.86945313 -160.06164062 471.67640625 -160.76953125 472.5078125 C-179.52333174 493.98764703 -205.19654386 508.46570236 -233.6875 512.0625 C-238.58682805 512.35489837 -243.46784202 512.39699963 -248.375 512.375 C-249.03835358 512.37251251 -249.70170715 512.37002502 -250.38516235 512.36746216 C-277.76133972 512.20871785 -302.63716605 503.4096858 -323.84375 486.0078125 C-325.6875 484.0625 -325.6875 484.0625 -325.6875 481.0625 C-324.85347656 480.84335937 -324.01945313 480.62421875 -323.16015625 480.3984375 C-313.25984271 477.60865843 -305.56388013 473.86812068 -298.6875 466.0625 C-298.19507813 465.51207031 -297.70265625 464.96164062 -297.1953125 464.39453125 C-288.98575048 454.48996015 -286.89459913 441.57900655 -287.6875 429.0625 C-289.02612852 419.57398604 -290.6275149 409.07777571 -296.8125 401.4375 C-298.56877926 399.86537878 -298.56877926 399.86537878 -300.6875 400.0625 C-302.00342117 401.74476917 -302.00342117 401.74476917 -303.3125 403.9375 C-320.4182972 430.25096315 -345.38754363 448.94716848 -375.6875 457.0625 C-376.88405176 453.47284472 -376.3852838 452.352966 -375.25390625 448.80859375 C-374.93486328 447.78958984 -374.61582031 446.77058594 -374.28710938 445.72070312 C-373.94486328 444.65787109 -373.60261719 443.59503906 -373.25 442.5 C-372.58233328 440.39526015 -371.91685533 438.28982432 -371.25390625 436.18359375 C-370.95427979 435.2495874 -370.65465332 434.31558105 -370.34594727 433.35327148 C-369.59541684 431.13939202 -369.59541684 431.13939202 -369.6875 429.0625 C-370.34419678 429.4342334 -371.00089355 429.8059668 -371.67749023 430.18896484 C-392.61941089 441.96142609 -413.84940115 452.66868261 -437.6875 457.0625 C-433.17053169 432.55626149 -422.00379938 410.48948658 -409.6875 389.0625 C-417.23656401 390.85795306 -424.61218509 392.92821283 -431.97265625 395.390625 C-434.6875 396.0625 -434.6875 396.0625 -437.6875 395.0625 C-428.36516207 363.80524931 -410.30739315 338.84354709 -382.6875 321.0625 C-382.0275 320.7325 -381.3675 320.4025 -380.6875 320.0625 C-382.2071731 315.80741532 -384.89499967 314.32383917 -388.6875 312.0625 C-392.08180974 310.78200803 -392.08180974 310.78200803 -395.625 309.875 C-397.37103516 309.38966797 -397.37103516 309.38966797 -399.15234375 308.89453125 C-413.68361369 305.4744644 -428.71654611 306.09501679 -441.6875 314.0625 C-442.68716797 314.67544922 -442.68716797 314.67544922 -443.70703125 315.30078125 C-452.56935299 321.31631513 -457.29119101 330.12957622 -460.6875 340.0625 C-461.1 341.25875 -461.5125 342.455 -461.9375 343.6875 C-462.185 344.47125 -462.4325 345.255 -462.6875 346.0625 C-478.91429793 334.12685179 -489.26529444 307.16393332 -492.1796875 288.05078125 C-496.10324818 255.31053901 -489.86067609 223.0338847 -469.3125 196.75 C-449.40295704 172.07203243 -421.37382713 155.54940813 -389.6875 152.0625 C-364.95055739 150.25058311 -341.58852772 154.19944332 -319.6875 166.0625 C-312.89403495 158.0169709 -312.89403495 158.0169709 -306.375 149.75 C-298.22883012 139.18303435 -289.26658896 129.33802628 -279.6875 120.0625 C-276.94492127 117.3380241 -274.225644 114.59251617 -271.5234375 111.828125 C-264.57314336 104.74652303 -257.48660079 98.2131779 -249.6875 92.0625 C-248.45975692 91.04857164 -247.2346709 90.03142058 -246.01171875 89.01171875 C-236.92095659 81.45740763 -227.55564381 74.5643723 -217.6875 68.0625 C-217.09759277 67.6711084 -216.50768555 67.2797168 -215.89990234 66.87646484 C-160.24249369 30.04874054 -97.89169274 8.55033159 -31.6875 1.0625 C-30.83454346 0.95574951 -29.98158691 0.84899902 -29.1027832 0.73901367 C-19.44401888 -0.33817546 -9.70341282 -0.04536305 0 0 Z " fill="#D5D7DA" transform="translate(492.6875,-0.0625)"/>
<path d="M0 0 C3.78647203 1.73795561 5.60993587 3.6947083 8.1875 7 C11.89709398 11.65672436 15.73322483 16.12672895 19.74609375 20.5234375 C21.2742196 22.20252205 22.78685858 23.89580823 24.28515625 25.6015625 C28.3113233 30.17329936 32.38860264 34.37218883 37.046875 38.296875 C39.07792955 40.06795457 40.93806768 41.93961054 42.8125 43.875 C47.54065472 48.66792397 52.74290818 52.80622378 58 57 C58.75667969 57.62390625 59.51335937 58.2478125 60.29296875 58.890625 C72.84754547 69.17630231 86.2273376 78.43083545 100 87 C98.66852055 94.11577541 96.39669029 100.28321034 93.4375 106.875 C92.76823486 108.38392822 92.76823486 108.38392822 92.08544922 109.92333984 C90.73453295 112.95392884 89.3691683 115.97762037 88 119 C87.6189209 119.85013672 87.2378418 120.70027344 86.84521484 121.57617188 C78.25615459 140.66641306 67.72561354 158.67378767 56 176 C55.2889209 177.0511499 55.2889209 177.0511499 54.56347656 178.12353516 C47.24268059 188.86999417 39.35450585 199.04110408 31 209 C30.47873535 209.62567871 29.9574707 210.25135742 29.42041016 210.89599609 C22.94827711 218.65078455 16.25858138 225.96785617 9 233 C6.25743522 235.72449187 3.53814953 238.46998746 0.8359375 241.234375 C-6.11365563 248.31418535 -13.20785543 254.84241449 -21 261 C-23.04614269 262.70336105 -25.0877681 264.41109735 -27.125 266.125 C-31.99906445 270.19732539 -36.94985845 274.14862943 -42 278 C-41.32904297 279.32837891 -41.32904297 279.32837891 -40.64453125 280.68359375 C-37.2686153 287.53375329 -34.3469227 294.35350098 -32.1875 301.6875 C-31.99325439 302.338396 -31.79900879 302.98929199 -31.59887695 303.65991211 C-23.21520787 333.47219519 -27.48831849 365.53211717 -42.4375 392.4375 C-45.83843975 398.35150166 -49.51430546 403.84291084 -54 409 C-54.68707031 409.80695313 -55.37414062 410.61390625 -56.08203125 411.4453125 C-74.83583174 432.92514703 -100.50904386 447.40320236 -129 451 C-133.89932805 451.29239837 -138.78034202 451.33449963 -143.6875 451.3125 C-144.35085358 451.31001251 -145.01420715 451.30752502 -145.69766235 451.30496216 C-173.07383972 451.14621785 -197.94966605 442.3471858 -219.15625 424.9453125 C-221 423 -221 423 -221 420 C-220.16597656 419.78085937 -219.33195312 419.56171875 -218.47265625 419.3359375 C-208.57234271 416.54615843 -200.87638013 412.80562068 -194 405 C-193.50757813 404.44957031 -193.01515625 403.89914062 -192.5078125 403.33203125 C-184.29825048 393.42746015 -182.20709913 380.51650655 -183 368 C-184.71464569 355.84618787 -187.23387336 344.85066515 -196.09765625 336.03125 C-196.73381363 335.37539917 -197.36997101 334.71954834 -198.02540588 334.04382324 C-200.33301369 331.67828183 -202.66539816 329.33890129 -205 327 C-205.96437237 326.02713277 -206.92827941 325.05380413 -207.89178467 324.08007812 C-215.12141919 316.77613367 -222.39069328 309.51246281 -229.67163086 302.25970459 C-232.65081795 299.29091767 -235.62702345 296.31914464 -238.60351562 293.34765625 C-244.39950563 287.56225399 -250.19867548 281.78005304 -256 276 C-254.861426 272.51202964 -253.76889785 269.27900346 -251.92578125 266.1015625 C-251.51344238 265.38742187 -251.10110352 264.67328125 -250.67626953 263.9375 C-250.22622559 263.174375 -249.77618164 262.41125 -249.3125 261.625 C-248.83409668 260.80773437 -248.35569336 259.99046875 -247.86279297 259.1484375 C-230.50702534 229.71358436 -211.31902118 201.69986039 -190 175 C-189.31679687 174.13375 -188.63359375 173.2675 -187.9296875 172.375 C-183.77332666 167.12485999 -179.4880808 161.99567209 -175.14550781 156.8996582 C-172.12522313 153.3506665 -169.17298691 149.75508085 -166.25 146.125 C-163.22651617 142.40751366 -160.09215912 138.97514613 -156.65234375 135.64453125 C-154.99154399 133.99158397 -153.46377609 132.27748362 -151.9375 130.5 C-148.31919661 126.31168991 -144.57611881 122.24487175 -140.8125 118.1875 C-140.20591553 117.52878906 -139.59933105 116.87007813 -138.97436523 116.19140625 C-136.15459721 113.16246356 -133.4638422 110.31209318 -130 108 C-129.9906543 108.5576001 -129.98130859 109.1152002 -129.97167969 109.68969727 C-129.48996723 132.67729905 -124.72613308 153.84836787 -108.4375 171.125 C-100.04611638 179.14598769 -90.05603936 185.40542563 -79 189 C-77.86884766 189.44472656 -77.86884766 189.44472656 -76.71484375 189.8984375 C-59.47217594 195.85549231 -38.10923188 192.69406553 -21.9765625 185.05859375 C-3.34777501 175.73517005 9.36867075 160.71195126 16 141 C22.3727692 121.85589171 19.9729661 101.67162163 11.3125 83.75 C1.81259872 65.27022466 -13.59943987 53.45426501 -33.125 46.75 C-41.24692555 44.37574649 -49.60050861 43.71645493 -58 43 C-53.90777841 38.69027844 -49.45131067 35.0643695 -44.75 31.4375 C-43.95787109 30.82471191 -43.16574219 30.21192383 -42.34960938 29.58056641 C-28.67729955 19.07656189 -14.3908812 9.48380163 0 0 Z " fill="#E2E7EB" transform="translate(388,61)"/>
<path d="M0 0 C3.36419942 2.73021655 4.77445333 6.43099025 6.4375 10.3125 C6.89709106 11.37839355 6.89709106 11.37839355 7.3659668 12.46582031 C19.20067856 40.5986924 19.57447819 72.72904369 8.56176758 101.19018555 C3.96546105 112.29264077 -2.10402269 122.92219528 -10 132 C-10.68707031 132.80695313 -11.37414062 133.61390625 -12.08203125 134.4453125 C-30.83583174 155.92514703 -56.50904386 170.40320236 -85 174 C-89.89932805 174.29239837 -94.78034202 174.33449963 -99.6875 174.3125 C-100.35085358 174.31001251 -101.01420715 174.30752502 -101.69766235 174.30496216 C-129.07383972 174.14621785 -153.94966605 165.3471858 -175.15625 147.9453125 C-177 146 -177 146 -177 143 C-175.74896484 142.67128906 -175.74896484 142.67128906 -174.47265625 142.3359375 C-164.57234271 139.54615843 -156.87638013 135.80562068 -150 128 C-149.50757813 127.44957031 -149.01515625 126.89914062 -148.5078125 126.33203125 C-140.30486157 116.43543623 -138.19335255 103.51011132 -139 91 C-140.28139177 82.48095403 -142.28808242 74.17421965 -145 66 C-143.14712429 65.41257903 -141.29258346 64.83041119 -139.4375 64.25 C-138.40496094 63.92515625 -137.37242187 63.6003125 -136.30859375 63.265625 C-132.5576579 62.12586964 -128.76789971 61.16055864 -124.97265625 60.1796875 C-117.17726785 58.13392887 -109.58476611 55.59847544 -102 52.875 C-101.33257782 52.6366745 -100.66515564 52.398349 -99.97750854 52.15280151 C-74.27621998 42.94766114 -48.93203261 31.73660778 -25.80810547 17.13720703 C-23.82026986 15.88695882 -21.819332 14.65951061 -19.81640625 13.43359375 C-12.97642806 9.22966195 -6.30391529 4.99059961 0 0 Z " fill="#E20D07" transform="translate(344,338)"/>
<path d="M0 0 C-0.61941222 3.13324071 -1.66203899 5.28571291 -3.44921875 7.921875 C-3.96033203 8.68701416 -4.47144531 9.45215332 -4.99804688 10.24047852 C-5.55556641 11.06862061 -6.11308594 11.8967627 -6.6875 12.75 C-34.13111719 54.38477574 -52.43254455 98.88025554 -65 147 C-65.63631348 146.80301514 -66.27262695 146.60603027 -66.92822266 146.40307617 C-84.2714522 141.10474712 -101.17580599 137.84231959 -118.25 145.8125 C-119.51650027 146.51261506 -120.76691916 147.24257299 -122 148 C-122.99966797 148.61294922 -122.99966797 148.61294922 -124.01953125 149.23828125 C-132.88185299 155.25381513 -137.60369101 164.06707622 -141 174 C-141.4125 175.19625 -141.825 176.3925 -142.25 177.625 C-142.4975 178.40875 -142.745 179.1925 -143 180 C-159.22679793 168.06435179 -169.57779444 141.10143332 -172.4921875 121.98828125 C-176.41574818 89.24803901 -170.17317609 56.9713847 -149.625 30.6875 C-113.42463555 -14.18301368 -51.09698491 -27.67753349 0 0 Z " fill="#E20D07" transform="translate(173,166)"/>
<path d="M0 0 C1.21171875 0.41378906 2.4234375 0.82757813 3.671875 1.25390625 C12.11618192 4.29330315 19.02574728 8.2636495 26 14 C26.99 14.78375 27.98 15.5675 29 16.375 C42.20626907 27.93048544 51.63679281 46.01963566 53.22314453 63.45214844 C54.50237726 84.82616239 49.34521695 105.29899318 35.109375 121.76953125 C19.77087011 137.98857993 1.52174033 146.62349663 -20.82910156 147.38769531 C-41.36342924 147.7454851 -58.87255495 141.4310565 -73.87084961 127.20629883 C-87.74117989 113.53327723 -97.01107381 95.83390751 -97.19067383 76.05859375 C-97.16331894 53.46766523 -91.21645108 34.33596977 -75.015625 17.82421875 C-55.66330583 -0.87499135 -25.75922657 -9.1259292 0 0 Z " fill="#E2100A" transform="translate(355,107)"/>
<path d="M0 0 C0.33105401 22.55411533 0.36577184 44.6401041 -3 67 C-3.13921875 67.98178223 -3.2784375 68.96356445 -3.421875 69.97509766 C-7.29234466 97.04598672 -14.17887631 123.16606383 -23 149 C-29.52003977 145.27292472 -35.9259328 141.54656362 -42 137.125 C-42.87398437 136.48957275 -42.87398437 136.48957275 -43.765625 135.84130859 C-44.95001143 134.97780077 -46.13235867 134.11148803 -47.3125 133.2421875 C-48.89018829 132.08083362 -50.47605508 130.93061316 -52.0625 129.78125 C-59.51355096 124.31186153 -66.52047228 118.40618801 -73.47558594 112.32910156 C-74.77166554 111.19907956 -76.07634384 110.078932 -77.3828125 108.9609375 C-81.51864778 105.40898485 -85.374375 101.65737232 -89.1953125 97.76953125 C-91.0547614 95.87987987 -91.0547614 95.87987987 -93.5625 94 C-96.4695422 91.61473461 -98.75198071 88.91793641 -101.1875 86.0625 C-102.84681749 84.17431113 -104.56541186 82.43006635 -106.375 80.6875 C-110.50160357 76.61579582 -114.08695376 72.14631742 -117.70068359 67.62011719 C-119.09906872 65.87647125 -120.51164882 64.14495691 -121.92578125 62.4140625 C-131.8686029 50.1937371 -140.56770831 37.29630864 -149 24 C-126.1245408 8.74969387 -87.29170987 5.84260499 -61 2 C-60.1013623 1.86577637 -59.20272461 1.73155273 -58.27685547 1.59326172 C-39.05616467 -1.14484911 -19.36327481 -0.18407501 0 0 Z " fill="#E20F09" transform="translate(512,0)"/>
<path d="M0 0 C2.98093009 1.34027957 5.06345315 2.81531889 7.36627197 5.12576294 C8.01124634 5.76798798 8.6562207 6.41021301 9.32073975 7.07189941 C10.01701477 7.77536499 10.71328979 8.47883057 11.43066406 9.20361328 C12.17251953 9.9451767 12.914375 10.68674011 13.67871094 11.45077515 C16.12911939 13.90257671 18.572368 16.36138605 21.015625 18.8203125 C22.71341057 20.52182825 24.41163829 22.22290292 26.11029053 23.92355347 C30.57974916 28.40064806 35.04316914 32.88371638 39.50537109 37.36804199 C44.05985468 41.94298469 48.62000567 46.51227048 53.1796875 51.08203125 C62.12535692 60.04914995 71.0648529 69.02239708 80 78 C70.54711006 102.22066026 44.95682023 121.21212667 22.20068359 132.04101562 C16.32916193 134.59962857 10.17641283 136.34575215 4 138 C2.80344824 134.41034472 3.3022162 133.290466 4.43359375 129.74609375 C4.75263672 128.72708984 5.07167969 127.70808594 5.40039062 126.65820312 C5.74263672 125.59537109 6.08488281 124.53253906 6.4375 123.4375 C7.10516672 121.33276015 7.77064467 119.22732432 8.43359375 117.12109375 C8.73322021 116.1870874 9.03284668 115.25308105 9.34155273 114.29077148 C10.09208316 112.07689202 10.09208316 112.07689202 10 110 C9.34330322 110.3717334 8.68660645 110.7434668 8.01000977 111.12646484 C-12.93191089 122.89892609 -34.16190115 133.60618261 -58 138 C-53.48303169 113.49376149 -42.31629938 91.42698658 -30 70 C-37.54906401 71.79545306 -44.92468509 73.86571283 -52.28515625 76.328125 C-55 77 -55 77 -58 76 C-48.62058115 44.55136033 -30.55697675 20.07950822 -3 2 C-2.01 1.34 -1.02 0.68 0 0 Z " fill="#FBC300" transform="translate(113,319)"/>
<path d="M0 0 C0.87446777 -0.01023193 1.74893555 -0.02046387 2.64990234 -0.03100586 C16.11944495 0.14958148 28.02610607 5.84065988 37.4375 15.4375 C48.84231561 28.41539363 51.47158508 42.02338538 50.67138672 58.80761719 C49.50515317 71.92104907 40.65371595 83.44505913 30.87109375 91.71875 C26.69944302 94.66502018 22.17527291 96.5854615 17.4375 98.4375 C16.62796875 98.79070312 15.8184375 99.14390625 14.984375 99.5078125 C3.51120223 103.6958725 -9.54842997 102.13202165 -20.5625 97.4375 C-35.00236882 90.03538929 -43.0659012 79.40709395 -48.66015625 64.515625 C-52.63865933 51.71039649 -50.95374764 38.69458908 -44.9375 26.8125 C-39.12276609 16.89745004 -31.70350545 9.80710541 -21.5625 4.4375 C-20.7684375 4.00308594 -19.974375 3.56867188 -19.15625 3.12109375 C-12.90278722 0.28130923 -6.76114513 0.0609272 0 0 Z " fill="#A0D7F0" transform="translate(332.5625,128.5625)"/>
<path d="M0 0 C3.36406541 2.7301078 4.77487543 6.43090759 6.4375 10.3125 C6.74316895 11.0230957 7.04883789 11.73369141 7.36376953 12.46582031 C10.17702313 19.165747 12.39907603 25.90423801 14 33 C14.268125 34.08667969 14.53625 35.17335938 14.8125 36.29296875 C15.37998814 39.46538508 15.62123846 41.83690037 15 45 C12.31425361 48.39287961 8.79307557 50.02480397 5 52 C3.63771691 52.77092532 2.27852454 53.54732856 0.921875 54.328125 C-2.92401839 56.52571739 -6.8058433 58.64946727 -10.70361328 60.75341797 C-12.82162153 61.90316814 -14.92568538 63.07462212 -17.02734375 64.25390625 C-37.90311476 75.82659712 -60.28623996 83.8688537 -83 91 C-84.62856934 91.51916992 -84.62856934 91.51916992 -86.29003906 92.04882812 C-93.1813249 94.21774182 -100.07026467 96.07316242 -107.125 97.625 C-108.47271484 97.93050781 -108.47271484 97.93050781 -109.84765625 98.2421875 C-112.56104893 98.84948916 -115.2782324 99.43146166 -118 100 C-119.3917041 100.29342285 -119.3917041 100.29342285 -120.81152344 100.59277344 C-126.65529538 101.75013725 -132.043806 102.19528505 -138 102 C-138.08636719 100.88625 -138.17273438 99.7725 -138.26171875 98.625 C-139.1158368 88.96345516 -140.80699979 80.2313807 -143.9765625 71.0625 C-145 68 -145 68 -145 66 C-143.14712429 65.41257903 -141.29258346 64.83041119 -139.4375 64.25 C-138.40496094 63.92515625 -137.37242187 63.6003125 -136.30859375 63.265625 C-132.5576579 62.12586964 -128.76789971 61.16055864 -124.97265625 60.1796875 C-117.17726785 58.13392887 -109.58476611 55.59847544 -102 52.875 C-101.33257782 52.6366745 -100.66515564 52.398349 -99.97750854 52.15280151 C-74.27621998 42.94766114 -48.93203261 31.73660778 -25.80810547 17.13720703 C-23.82026986 15.88695882 -21.819332 14.65951061 -19.81640625 13.43359375 C-12.97642806 9.22966195 -6.30391529 4.99059961 0 0 Z " fill="#C40606" transform="translate(344,338)"/>
<path d="M0 0 C2.22454835 0.39714159 4.43347117 0.886557 6.625 1.4375 C7.59735596 1.66977295 7.59735596 1.66977295 8.58935547 1.90673828 C19.20486067 4.49717281 28.89229655 8.52156391 38.625 13.4375 C38.00558778 16.57074071 36.96296101 18.72321291 35.17578125 21.359375 C34.66466797 22.12451416 34.15355469 22.88965332 33.62695312 23.67797852 C33.06943359 24.50612061 32.51191406 25.3342627 31.9375 26.1875 C4.49388281 67.82227574 -13.80754455 112.31775554 -26.375 160.4375 C-27.01131348 160.23979004 -27.64762695 160.04208008 -28.30322266 159.83837891 C-39.82335839 156.31145499 -51.33200361 154.08786666 -63.375 153.4375 C-59.51613277 118.1310826 -48.54771091 82.43041401 -33.30908203 50.41748047 C-32.35495788 48.39501656 -31.43817866 46.35869519 -30.52734375 44.31640625 C-25.60177501 33.38756147 -19.84495921 22.99249514 -13.70263672 12.70263672 C-12.57172192 10.77313552 -11.50958053 8.8283956 -10.47265625 6.84765625 C-7.64016442 1.90984041 -5.89000476 -0.19952591 0 0 Z " fill="#C40606" transform="translate(134.375,152.5625)"/>
<path d="M0 0 C-2.84164992 1.89443328 -5.15671991 2.87148551 -8.35546875 3.99609375 C-9.98391724 4.57834717 -9.98391724 4.57834717 -11.64526367 5.17236328 C-12.81420166 5.5898584 -13.98313965 6.00735352 -15.1875 6.4375 C-28.46852377 11.26874003 -41.27045691 16.86431659 -54 23 C-54.71591309 23.34208496 -55.43182617 23.68416992 -56.16943359 24.03662109 C-60.82598713 26.27070349 -65.42278128 28.60795339 -70 31 C-70.94568848 31.49338867 -71.89137695 31.98677734 -72.86572266 32.49511719 C-89.0162094 40.96168293 -104.81989571 49.87993048 -120 60 C-122.64594242 59.80850453 -123.71315085 59.2910584 -125.58056641 57.39624023 C-126.08249512 56.70731689 -126.58442383 56.01839355 -127.1015625 55.30859375 C-127.66987793 54.53555908 -128.23819336 53.76252441 -128.82373047 52.96606445 C-129.41814941 52.13163818 -130.01256836 51.29721191 -130.625 50.4375 C-131.23875488 49.59082764 -131.85250977 48.74415527 -132.48486328 47.87182617 C-138.02871061 40.14091013 -143.11544162 32.15968854 -148 24 C-125.12731515 8.75154344 -86.28940301 5.83722549 -60 2 C-59.09604492 1.86577637 -58.19208984 1.73155273 -57.26074219 1.59326172 C-38.36187412 -1.07812898 -19.03702998 -0.18609022 0 0 Z " fill="#C40808" transform="translate(511,0)"/>
</svg>
